<svg id="Capa_1" enable-background="new 0 0 512 512" height="512" viewBox="0 0 512 512" width="512" xmlns="http://www.w3.org/2000/svg"><g><path d="m224 480h-32v-448c0-8.837 7.163-16 16-16 8.837 0 16 7.163 16 16z" fill="#685e68"/><path d="m192 79.876h32v94.906h-32z" fill="#554e56"/><path d="m416.062 112h-96.125c-8.802 0-15.938 7.135-15.938 15.938s7.136 15.938 15.938 15.938h.063v80.124l48 16 48-16v-80.124h.062c8.802 0 15.938-7.135 15.938-15.938s-7.135-15.938-15.938-15.938z" fill="#d2e4f9"/><path d="m350.906 224v-80.124h-.062c-8.802 0-15.938-7.135-15.938-15.938s7.135-15.938 15.937-15.938h-30.906c-8.802 0-15.938 7.135-15.938 15.938s7.136 15.938 15.938 15.938h.063v80.124l48 16 27.453-9.151z" fill="#bbd3ea"/><path d="m128 48h-80c-8.837 0-16 7.164-16 16s7.163 16 16 16h8v128l32 16 32-16v-128h8c8.837 0 16-7.163 16-16s-7.163-16-16-16z" fill="#d2e4f9"/><path d="m86.906 208v-128h-8c-8.837 0-16-7.163-16-16s7.163-16 16-16h-30.906c-8.837 0-16 7.164-16 16s7.163 16 16 16h8v128l32 16 15.453-7.726z" fill="#bbd3ea"/><path d="m240 143.876h-208c-8.837 0-16-7.163-16-16 0-8.837 7.163-16 16-16h208c8.837 0 16 7.163 16 16 0 8.836-7.163 16-16 16z" fill="#685e68"/><path d="m16 312c0 40.345 33.184 72.94 73.746 71.979 38.122-.902 69.236-31.939 70.229-70.059.719-27.618-14.118-51.835-36.38-64.521-2.206-1.257-3.595-3.571-3.595-6.11v-35.289h-64v35.289c0 2.542-1.394 4.856-3.602 6.115-21.74 12.391-36.398 35.782-36.398 62.596z" fill="#bce098"/><path d="m46.906 312c0-26.814 14.658-50.205 36.398-62.596 2.208-1.259 3.602-3.573 3.602-6.115v-35.289h-30.906v35.29c0 2.539-1.39 4.853-3.595 6.11-22.257 12.683-37.093 36.894-36.38 64.506.995 38.517 32.724 69.712 71.252 70.091 5.558.055 10.973-.521 16.177-1.659-32.339-7.072-56.548-35.878-56.548-70.338z" fill="#acd680"/><path d="m265.403 435.791c-4.626 13.878 5.703 28.209 20.332 28.209l82.265 20 82.266-20c14.628 0 24.957-14.331 20.332-28.209l-54.238-162.714c-.238-.714-.359-1.461-.359-2.214v-46.863h-96v46.864c0 .752-.121 1.5-.359 2.214z" fill="#ffb22a"/><path d="m296.309 435.791 54.238-162.714c.238-.714.359-1.461.359-2.214v-46.863h-30.906v46.864c0 .752-.121 1.5-.359 2.214l-54.238 162.714c-4.626 13.877 5.703 28.208 20.331 28.208h30.906c-14.628 0-24.957-14.331-20.331-28.209z" fill="#f9a319"/><path d="m496 496h-480c-8.837 0-16-7.163-16-16 0-8.837 7.163-16 16-16h480c8.837 0 16 7.163 16 16 0 8.837-7.163 16-16 16z" fill="#685e68"/><path d="m192 433.094h32v30.906h-32z" fill="#554e56"/><path d="m386.754 367.758c8.27 14.397-1.616 33.133-18.754 33.133-17.14 0-27.022-18.738-18.754-33.133l12.684-22.081c2.691-4.685 9.449-4.685 12.14 0z" fill="#fee07d"/><g><g><path d="m64.004 311.723c-4.222 0-7.726-3.404-7.726-7.726 0-4.346 3.556-7.726 7.721-7.726 4.246 0 7.721 3.451 7.721 7.726 0 4.259-3.449 7.726-7.716 7.726z" fill="#acd680"/></g><g><path d="m88.274 352.003c0-4.268 3.446-7.729 7.725-7.729 3.728 0 6.913 2.685 7.574 6.215.759 3.734-1.381 7.349-4.616 8.643-4.968 2.096-10.683-1.544-10.683-7.129z" fill="#acd680"/></g><g><path d="m112 295.724c-4.274 0-7.726-3.473-7.726-7.726 0-3.568 2.452-6.789 6.212-7.572.507-.102 1.013-.151 1.512-.151 4.102 0 7.729 3.312 7.729 7.723-.001 4.211-3.415 7.726-7.727 7.726z" fill="#acd680"/></g></g></g></svg>