<svg id="Layer_1" viewBox="0 0 512 512" xmlns="http://www.w3.org/2000/svg" data-name="Layer 1"><path d="m233.56 251.159 12.297-8.246c2.003-1.343 4.612-1.088 6.317.617l19.031 19.031c1.705 1.705 1.96 4.315.617 6.317l-8.246 12.297 10.46 25.246 14.524 2.864c2.366.466 4.031 2.491 4.031 4.903v26.914c0 2.412-1.665 4.437-4.031 4.904l-14.524 2.863-10.46 25.246 8.246 12.297c1.343 2.003 1.088 4.612-.617 6.317l-19.031 19.031c-1.705 1.705-4.314 1.96-6.317.617l-12.297-8.247-25.246 10.46-2.864 14.524c-.466 2.366-2.492 4.031-4.903 4.031h-26.914c-2.412 0-4.437-1.665-4.903-4.031l-2.864-14.524-25.246-10.459-12.297 8.247c-2.003 1.343-4.612 1.088-6.317-.617l-19.031-19.031c-1.705-1.705-1.96-4.315-.617-6.317l8.246-12.297-10.46-25.246-14.524-2.863c-2.366-.467-4.031-2.492-4.031-4.904v-26.914c0-2.412 1.665-4.437 4.031-4.903l14.524-2.864 10.46-25.246-8.246-12.297c-1.343-2.003-1.089-4.612.617-6.317l19.031-19.031c1.705-1.705 4.314-1.96 6.317-.617l12.297 8.246 25.246-10.46 2.864-14.524c.467-2.366 2.492-4.031 4.903-4.031h26.914c2.411 0 4.437 1.665 4.903 4.031l2.864 14.524 25.246 10.46z" fill="#f9ac00" fill-rule="evenodd"/><path d="m233.56 251.159 8.924-5.984 20.291 20.291-10.535 15.709 10.46 25.246 18.555 3.658v35.132l-18.555 3.658-10.46 25.246 10.535 15.709-20.291 20.29-18.109-12.143-26.265 10.882-4.79 24.291h-19.688c-2.411 0-4.436-1.665-4.903-4.031l-2.864-14.524-34.643-14.351-12.414 8.325-15.834-15.834c-1.705-1.705-1.96-4.314-.617-6.317l8.247-12.297-10.46-25.246-14.524-2.863c-2.366-.466-4.03-2.492-4.03-4.903v-26.914c0-2.412 1.665-4.437 4.03-4.904l14.524-2.863 10.46-25.246-8.247-12.296c-1.343-2.003-1.088-4.613.617-6.318l15.834-15.834 12.414 8.325 9.396-3.893 25.246-10.46 2.864-14.523c.467-2.366 2.492-4.031 4.903-4.031h19.688l4.79 24.292 26.265 10.882 9.185-6.159z" fill="#fcdb35" fill-rule="evenodd"/><circle cx="178.497" cy="327.644" fill="#f9ac00" r="54.104" transform="matrix(.926 -.376 .376 .926 -110.21 91.297)"/><circle cx="187.089" cy="327.644" fill="#fff" r="54.103"/><g fill-rule="evenodd"><path d="m46.352 376.694c-2.523 0-4.961-1.369-6.211-3.76-42.645-81.709-37.339-180.067 13.844-256.705 51.185-76.644 140.013-119.234 231.814-111.136 43.623 3.842 85.691 19.073 121.659 44.046 31.959 22.187 58.394 51.565 77.107 85.551l1.998-13.443c.569-3.827 4.131-6.464 7.953-5.895s6.464 4.131 5.895 7.953l-5.293 35.591c-.328 2.203-1.682 4.116-3.654 5.157-1.967 1.041-4.309 1.085-6.315.116l-32.082-15.491c-3.481-1.682-4.941-5.866-3.259-9.346 1.68-3.485 5.865-4.94 9.346-3.258l13.865 6.695c-37.833-69.708-108.988-116.727-188.451-123.731-86.702-7.645-170.601 32.579-218.942 104.966-48.342 72.382-53.352 165.284-13.076 242.453 1.789 3.422.461 7.649-2.966 9.438-1.035.545-2.142.8-3.235.8zm434.459 0c2.623 0 5.14-1.489 6.336-4.02l8.57-18.157c1.648-3.49.154-7.659-3.345-9.312-3.495-1.658-7.667-.159-9.317 3.34l-8.57 18.162c-1.649 3.49-.153 7.669 3.342 9.317.966.453 1.983.67 2.985.67zm-403.872 45.323c-2.079 0-4.135-.921-5.515-2.68l-12.383-15.81c-2.384-3.042-1.849-7.442 1.193-9.833 3.045-2.376 7.445-1.851 9.829 1.2l12.381 15.81c2.384 3.041 1.851 7.442-1.193 9.823-1.28 1.007-2.802 1.489-4.311 1.489zm373.283 0c-1.51 0-3.029-.482-4.311-1.489-3.043-2.381-3.577-6.782-1.194-9.823l12.382-15.81c2.384-3.051 6.784-3.576 9.828-1.2 3.043 2.391 3.577 6.791 1.194 9.833l-12.382 15.81c-1.38 1.759-3.438 2.68-5.516 2.68zm-333.418 37.418c-1.552 0-3.114-.506-4.414-1.566l-15.578-12.672c-2.999-2.439-3.453-6.849-1.013-9.852 2.438-2.988 6.848-3.446 9.847-1.007l15.578 12.672c3 2.439 3.453 6.849 1.013 9.847-1.382 1.702-3.4 2.579-5.433 2.579zm293.555 0c-2.035 0-4.052-.877-5.436-2.579-2.438-2.998-1.984-7.408 1.013-9.847l15.578-12.672c3.001-2.439 7.409-1.981 9.847 1.007 2.44 3.003 1.987 7.413-1.013 9.852l-15.578 12.672c-1.299 1.06-2.86 1.566-4.411 1.566zm-47.176 27.653c-2.58 0-5.059-1.431-6.281-3.899-1.714-3.461-.292-7.664 3.173-9.37l17.999-8.912c3.465-1.706 7.663-.289 9.377 3.181 1.715 3.46.294 7.659-3.171 9.37l-17.999 8.912c-.998.487-2.056.718-3.097.718zm-199.205 0c-1.042 0-2.1-.231-3.097-.718l-18-8.912c-3.466-1.711-4.884-5.909-3.171-9.37 1.713-3.47 5.912-4.887 9.378-3.181l17.998 8.912c3.466 1.706 4.886 5.909 3.173 9.37-1.22 2.468-3.702 3.899-6.281 3.899zm52.143 16.509c-.542 0-1.092-.067-1.64-.202l-19.525-4.685c-3.76-.901-6.076-4.68-5.172-8.44.904-3.764 4.684-6.083 8.44-5.172l19.525 4.69c3.76.901 6.074 4.68 5.172 8.44-.773 3.21-3.64 5.369-6.801 5.369zm94.919 0c-3.161 0-6.029-2.159-6.801-5.369-.904-3.76 1.412-7.539 5.17-8.44l19.525-4.69c3.758-.911 7.539 1.407 8.443 5.172.904 3.76-1.412 7.538-5.17 8.44l-19.525 4.685c-.549.135-1.101.202-1.642.202zm-34.409 4.29h-26.101c-3.865 0-7-3.143-7-6.999s3.135-6.999 7-6.999h26.101c3.868 0 7.001 3.128 7.001 6.999s-3.133 6.999-7.001 6.999z" fill="#909cd1"/><path d="m289.416 64.601 9.558-6.409c1.557-1.044 3.584-.846 4.91.479l14.792 14.792c1.325 1.325 1.523 3.354.479 4.91l-6.409 9.558 8.13 19.623 11.288 2.226c1.839.362 3.133 1.936 3.133 3.811v20.919c0 1.874-1.294 3.449-3.133 3.811l-11.289 2.225-8.13 19.623 6.409 9.558c1.044 1.557.846 3.585-.479 4.91l-14.792 14.792c-1.325 1.325-3.353 1.523-4.91.48l-9.558-6.41-19.622 8.13-2.226 11.289c-.363 1.839-1.937 3.133-3.811 3.133h-20.919c-1.875 0-3.449-1.294-3.811-3.133l-2.226-11.289-19.622-8.129-9.558 6.41c-1.556 1.044-3.584.846-4.91-.48l-14.792-14.792c-1.325-1.325-1.523-3.353-.479-4.91l6.409-9.558-8.13-19.623-11.289-2.225c-1.839-.363-3.133-1.937-3.133-3.811v-20.919c0-1.875 1.294-3.448 3.133-3.811l11.288-2.226 8.13-19.623-6.409-9.558c-1.044-1.556-.846-3.585.479-4.91l14.792-14.792c1.325-1.325 3.353-1.523 4.91-.479l9.558 6.409 19.623-8.13 2.226-11.289c.363-1.839 1.936-3.133 3.811-3.133h20.919c1.874 0 3.448 1.294 3.811 3.133l2.226 11.289 19.622 8.13z" fill="#9b827a"/><path d="m289.416 64.601 6.936-4.651 15.772 15.771-8.188 12.21 8.13 19.622 14.422 2.843v27.306l-14.422 2.843-8.13 19.623 8.188 12.21-15.771 15.771-14.075-9.438-20.414 8.458-3.723 18.88h-15.302c-1.874 0-3.448-1.294-3.811-3.133l-2.226-11.289-26.926-11.155-9.649 6.471-12.307-12.307c-1.326-1.325-1.524-3.353-.48-4.91l6.409-9.558-8.13-19.623-11.289-2.226c-1.839-.363-3.133-1.937-3.133-3.811v-20.919c0-1.875 1.294-3.449 3.133-3.811l11.289-2.226 8.13-19.622-6.409-9.558c-1.044-1.557-.846-3.585.48-4.91l12.307-12.307 9.649 6.471 7.303-3.026 19.623-8.13 2.226-11.288c.363-1.839 1.937-3.133 3.811-3.133h15.302l3.723 18.881 20.414 8.458 7.139-4.787z" fill="#c2a9a1"/></g><circle cx="246.619" cy="124.05" fill="#9b827a" r="42.052" transform="matrix(.707 -.707 .707 .707 -15.484 210.719)"/><circle cx="253.297" cy="124.05" fill="#fff" r="42.052" transform="matrix(.234 -.972 .972 .234 73.429 341.295)"/><path d="m429.211 204.396 9.558-6.409c1.557-1.044 3.584-.846 4.91.479l14.792 14.792c1.325 1.325 1.523 3.354.479 4.91l-6.409 9.558 8.13 19.623 11.288 2.226c1.839.362 3.133 1.936 3.133 3.811v20.919c0 1.874-1.294 3.449-3.133 3.811l-11.289 2.225-8.13 19.623 6.409 9.558c1.044 1.557.846 3.585-.479 4.91l-14.792 14.792c-1.325 1.325-3.353 1.523-4.91.48l-9.558-6.41-19.622 8.13-2.226 11.289c-.363 1.839-1.937 3.133-3.811 3.133h-20.919c-1.874 0-3.449-1.294-3.811-3.133l-2.226-11.289-19.622-8.129-9.558 6.41c-1.557 1.044-3.584.846-4.91-.48l-14.792-14.792c-1.325-1.325-1.523-3.353-.479-4.91l6.409-9.558-8.13-19.623-11.289-2.225c-1.839-.363-3.133-1.937-3.133-3.811v-20.919c0-1.875 1.294-3.448 3.133-3.811l11.288-2.226 8.13-19.623-6.409-9.558c-1.044-1.556-.846-3.585.479-4.91l14.792-14.792c1.325-1.325 3.353-1.523 4.91-.479l9.558 6.409 19.623-8.129 2.226-11.289c.363-1.839 1.936-3.133 3.811-3.133h20.919c1.874 0 3.448 1.294 3.811 3.133l2.226 11.289 19.622 8.129z" fill="#909cd1" fill-rule="evenodd"/><path d="m429.211 204.396 6.936-4.651 15.772 15.771-8.188 12.21 8.13 19.622 14.422 2.843v27.306l-14.422 2.843-8.13 19.623 8.188 12.21-15.771 15.771-14.075-9.438-20.414 8.458-3.723 18.88h-15.302c-1.874 0-3.448-1.294-3.811-3.133l-2.225-11.289-26.926-11.155-9.649 6.471-12.307-12.307c-1.326-1.325-1.524-3.353-.48-4.91l6.409-9.558-8.13-19.622-11.289-2.226c-1.839-.363-3.133-1.937-3.133-3.811v-20.919c0-1.875 1.294-3.449 3.133-3.811l11.289-2.226 8.13-19.622-6.409-9.558c-1.044-1.557-.846-3.585.48-4.91l12.307-12.307 9.649 6.471 7.303-3.026 19.623-8.13 2.225-11.288c.363-1.839 1.937-3.133 3.811-3.133h15.302l3.723 18.881 20.414 8.458 7.139-4.787z" fill="#bdc7f2" fill-rule="evenodd"/><circle cx="386.414" cy="263.845" fill="#909cd1" r="42.052" transform="matrix(.707 -.707 .707 .707 -73.388 350.514)"/><circle cx="393.092" cy="263.845" fill="#fff" r="42.052" transform="matrix(.707 -.707 .707 .707 -71.432 355.236)"/></svg>