<?xml version="1.0" encoding="iso-8859-1"?>
<!-- Generator: Adobe Illustrator 19.0.0, SVG Export Plug-In . SVG Version: 6.00 Build 0)  -->
<svg version="1.1" id="Capa_1" xmlns="http://www.w3.org/2000/svg" xmlns:xlink="http://www.w3.org/1999/xlink" x="0px" y="0px"
	 viewBox="0 0 512 512" style="enable-background:new 0 0 512 512;" xml:space="preserve">
<ellipse style="fill:#42C3E2;" cx="256" cy="463.839" rx="185.319" ry="48.159"/>
<path style="fill:#00A6C8;" d="M111.891,463.841c0-24.787,72.063-45.197,164.713-47.861c-6.766-0.195-13.638-0.298-20.604-0.298
	c-102.347,0-185.316,21.562-185.316,48.159S153.653,512,256,512c6.966,0,13.837-0.103,20.604-0.298
	C183.955,509.038,111.891,488.628,111.891,463.841z"/>
<path style="fill:#DC5A64;" d="M373.358,52.308C343.6,19.223,300.502,0,256.001,0c-44.502,0-87.599,19.223-117.357,52.308
	c-76.319,84.853-37.577,211.23,15.163,296.101c28.602,46.026,63.938,87.689,102.193,125.945h0.001
	c38.255-38.255,73.591-79.918,102.193-125.945C410.935,263.54,449.676,137.161,373.358,52.308z M256.001,182.382
	c-38.546,0-69.795-31.248-69.795-69.795s31.248-69.795,69.795-69.795s69.795,31.248,69.795,69.795S294.547,182.382,256.001,182.382z
	"/>
<path style="fill:#C13247;" d="M184.712,348.409c-52.741-84.87-91.482-211.248-15.163-296.101
	C195.846,23.072,232.56,4.671,271.454,0.783C266.334,0.271,261.178,0,256.001,0c-44.502,0-87.599,19.223-117.357,52.308
	c-76.319,84.853-37.577,211.23,15.163,296.101c28.602,46.026,63.938,87.689,102.193,125.945h0.001
	c5.21-5.21,10.361-10.489,15.452-15.829C239.157,424.663,209.419,388.168,184.712,348.409z"/>
<g>
	<path style="fill:#3A484A;" d="M183.598,307.884c-4.267,0-7.726-3.459-7.726-7.726v-13.104c0-4.267,3.459-7.726,7.726-7.726
		s7.726,3.459,7.726,7.726v13.104C191.324,304.425,187.865,307.884,183.598,307.884z"/>
	<path style="fill:#3A484A;" d="M328.402,307.884c-4.267,0-7.726-3.459-7.726-7.726v-13.104c0-4.267,3.459-7.726,7.726-7.726
		c4.267,0,7.726,3.459,7.726,7.726v13.104C336.129,304.425,332.67,307.884,328.402,307.884z"/>
	<path style="fill:#3A484A;" d="M256,314.878c-9.194,0-17.828-3.845-23.688-10.548c-2.808-3.213-2.481-8.094,0.732-10.902
		c3.213-2.808,8.094-2.481,10.902,0.732c2.925,3.346,7.318,5.265,12.053,5.265s9.127-1.919,12.053-5.265
		c2.808-3.212,7.688-3.541,10.902-0.731c3.212,2.808,3.54,7.689,0.731,10.902C273.827,311.034,265.194,314.878,256,314.878z"/>
</g>
<g>
</g>
<g>
</g>
<g>
</g>
<g>
</g>
<g>
</g>
<g>
</g>
<g>
</g>
<g>
</g>
<g>
</g>
<g>
</g>
<g>
</g>
<g>
</g>
<g>
</g>
<g>
</g>
<g>
</g>
</svg>
