<svg id="Capa_1" enable-background="new 0 0 512 512" height="512" viewBox="0 0 512 512" width="512" xmlns="http://www.w3.org/2000/svg"><g><g><path d="m159.155 426.03h288v-426.03h-208.004l-17.773 63.584-62.223 16.416z" fill="#d2e4f9"/><g><path d="m407.029 101.412c17.877 31.123-4.15 71.937-41.978 70.4-34.803-1.414-55.287-39.895-37.937-70.098l33.974-59.146c2.691-4.685 9.449-4.685 12.14 0z" fill="#fee07d"/></g><path d="m358.193 101.412 24.418-42.51-9.383-16.335c-2.691-4.685-9.449-4.685-12.14 0l-33.801 58.845c-17.242 30.017 2.673 68.624 37.245 70.376 6.519.33 12.575-.595 18.047-2.511-26.319-9.273-39.355-41.805-24.386-67.865z" fill="#ffcf64"/><g><g><path d="m368.371 392.984-37.389 1.76-.005-.003c1.083-1.688 2.507-5.594 2.507-5.594 3.087-11.003-3.331-22.425-14.333-25.511 0 0-31.065-7.805-47.062-13.203-14.595-4.925-41.491-28.292-52.951-31.507-.079-.022-.159-.044-.239-.066-16.933-4.646-28.838.066-28.838.066v-238.926l19.274-31.409-50.18 31.409v346.03h257.422c8.626-4.041 18.734-8.783 30.578-14.347v-45.908z" fill="#bbd3ea"/><path d="m126.953 468.814 141.053 27.582c6.582 1.842 13.514 2.055 20.197.62l78.168-16.776s-1.062.839 98.978-46.203c10.537-2.685 17.625-14.636 14.917-25.166-2.825-11.071-14.089-17.761-25.16-14.937l-86.735 29.955-31.009 1.457c-2.812.132-4.844-2.648-3.879-5.293v-.001c3.087-11.003-3.331-22.425-14.334-25.512 0 0-31.065-7.805-47.062-13.203-14.595-4.925-41.491-28.292-52.95-31.507-29.538-8.286-91.997 8.371-91.997 8.371l-15.607 13.091v76.708z" fill="#ffeee6"/><path d="m473.834 398.405c-2.389 2.233-5.277 3.909-8.485 4.727-100.04 47.042-98.978 46.203-98.978 46.203l-78.168 16.776c-6.683 1.434-13.615 1.221-20.197-.62l-141.053-27.582-15.42-20.814v30.905l15.42 20.814 141.053 27.582c6.582 1.842 13.514 2.055 20.197.62l78.168-16.776s-1.062.839 98.978-46.203c10.537-2.685 17.625-14.636 14.917-25.166-1.077-4.219-3.381-7.803-6.432-10.466z" fill="#ffdfcf"/><path d="m76.76 489.119h42.557c4.321 0 7.823-3.503 7.823-7.823v-142.822c0-4.321-3.502-7.823-7.823-7.823h-42.557z" fill="#fee07d"/><path d="m119.317 458.213h-42.557v30.906h42.557c4.321 0 7.823-3.502 7.823-7.823v-30.906c0 4.321-3.502 7.823-7.823 7.823z" fill="#ffcf64"/><path d="m88.926 512h-50.771c-3.866 0-7-3.134-7-7v-190.23c0-3.866 3.134-7 7-7h50.771c3.866 0 7 3.134 7 7v190.23c0 3.866-3.134 7-7 7z" fill="#685e68"/><path d="m88.926 482h-50.771c-3.866 0-7-3.134-7-7v30c0 3.866 3.134 7 7 7h50.771c3.866 0 7-3.134 7-7v-30c0 3.866-3.134 7-7 7z" fill="#554e56"/><path d="m333.483 420.054v-.001c1.055-3.762 1-7.573.029-11.084l-8.794 12.146c-1.064 1.475-4.167 6.323-11.11 6.323-4.806 0-72.649-20.707-76.671-20.707-4.019 0-7.727 3.231-7.727 7.731 0 3.377 2.231 6.479 5.642 7.436l71.033 19.927c12.061 3.383 24.663-1.392 31.467-11.81l3.498-4.831-3.488.163c-2.813.133-4.844-2.648-3.879-5.293z" fill="#ffdfcf"/></g></g><path d="m239.151 0v73c0 3.866-3.134 7-7 7h-72.996z" fill="#698ed5"/><path d="m62.026 335.376c-3.862.823-6.212 4.109-6.212 7.572 0 4.231 3.421 7.726 7.726 7.726 4.304 0 7.726-3.489 7.726-7.726 0-4.844-4.428-8.515-9.24-7.572z" fill="#d2e4f9"/><g fill="#bbd3ea"><path d="m191.155 131.003h96c4.268 0 7.726-3.459 7.726-7.726s-3.459-7.726-7.726-7.726h-96c-4.268 0-7.726 3.459-7.726 7.726s3.459 7.726 7.726 7.726z"/><path d="m191.155 179.003h96c4.268 0 7.726-3.459 7.726-7.726s-3.459-7.726-7.726-7.726h-96c-4.268 0-7.726 3.459-7.726 7.726s3.459 7.726 7.726 7.726z"/><path d="m191.155 227.003h224c4.268 0 7.726-3.459 7.726-7.726s-3.459-7.726-7.726-7.726h-224c-4.268 0-7.726 3.459-7.726 7.726s3.459 7.726 7.726 7.726z"/><path d="m415.155 259.55h-30.318c-4.268 0-7.726 3.459-7.726 7.726s3.459 7.726 7.726 7.726h30.318c4.268 0 7.726-3.459 7.726-7.726.001-4.267-3.458-7.726-7.726-7.726z"/><path d="m191.155 275.003h160.008c4.268 0 7.726-3.459 7.726-7.726s-3.459-7.726-7.726-7.726h-160.008c-4.268 0-7.726 3.459-7.726 7.726 0 4.266 3.459 7.726 7.726 7.726z"/><path d="m415.155 307.55h-224c-4.268 0-7.726 3.459-7.726 7.726s3.459 7.726 7.726 7.726h224c4.268 0 7.726-3.459 7.726-7.726.001-4.267-3.458-7.726-7.726-7.726z"/></g></g></g></svg>