<svg id="Capa_1" enable-background="new 0 0 512 512" height="512" viewBox="0 0 512 512" width="512" xmlns="http://www.w3.org/2000/svg"><g><g><path d="m505.972 285.201c2.768-.816 4.745-3.246 5.002-6.121.679-7.603 1.026-15.301 1.026-23.08s-.347-15.477-1.027-23.08c-.257-2.875-2.233-5.305-5.002-6.121l-51.55-15.186c-2.35-.692-4.187-2.558-4.79-4.932-2.14-8.426-4.815-16.639-7.987-24.6-.907-2.276-.519-4.864.976-6.805l32.789-42.601c1.76-2.287 1.929-5.416.448-7.893-7.935-13.267-17.037-25.756-27.164-37.325-1.898-2.169-4.923-2.971-7.638-2.005l-50.665 18.026c-2.308.821-4.89.391-6.774-1.175-6.615-5.498-13.589-10.577-20.884-15.197-2.067-1.309-3.27-3.629-3.202-6.074l1.489-53.798c.08-2.881-1.617-5.509-4.266-6.644-14.031-6.013-28.707-10.807-43.896-14.252-2.811-.637-5.729.49-7.358 2.867l-30.425 44.41c-1.387 2.024-3.732 3.184-6.181 3.028-4.263-.272-8.561-.41-12.892-.41s-8.63.138-12.892.41c-2.449.156-4.794-1.004-6.181-3.028l-30.425-44.41c-1.629-2.378-4.547-3.505-7.358-2.867-15.189 3.444-29.865 8.239-43.896 14.252-2.649 1.135-4.346 3.764-4.266 6.644l1.489 53.798c.068 2.445-1.135 4.765-3.202 6.074-7.295 4.62-14.27 9.699-20.884 15.197-1.884 1.566-4.466 1.997-6.774 1.175l-50.667-18.027c-2.716-.966-5.74-.164-7.638 2.005-10.127 11.569-19.229 24.058-27.164 37.325-1.482 2.477-1.313 5.606.448 7.893l32.789 42.601c1.494 1.941 1.883 4.53.976 6.805-3.172 7.961-5.848 16.173-7.987 24.6-.603 2.374-2.44 4.24-4.79 4.932l-51.55 15.186c-2.768.816-4.745 3.246-5.002 6.121-.68 7.604-1.027 15.302-1.027 23.081s.347 15.477 1.027 23.08c.257 2.875 2.233 5.305 5.002 6.121l51.55 15.186c2.35.692 4.187 2.558 4.79 4.932 2.14 8.426 4.815 16.639 7.987 24.6.907 2.276.519 4.864-.976 6.805l-32.79 42.601c-1.76 2.287-1.929 5.416-.448 7.893 7.935 13.267 17.037 25.756 27.164 37.325 1.898 2.169 4.923 2.971 7.638 2.005l50.665-18.026c2.308-.821 4.89-.391 6.774 1.176 6.615 5.498 13.589 10.577 20.884 15.197 2.067 1.309 3.27 3.629 3.202 6.074l-1.489 53.798c-.08 2.881 1.617 5.509 4.266 6.644 14.031 6.013 28.707 10.807 43.896 14.252 2.811.637 5.729-.49 7.358-2.867l30.425-44.41c1.387-2.024 3.732-3.184 6.181-3.028 4.263.272 8.561.41 12.892.41s8.63-.138 12.892-.41c2.449-.156 4.794 1.004 6.181 3.028l30.425 44.41c1.629 2.378 4.547 3.505 7.358 2.867 15.189-3.444 29.865-8.239 43.896-14.252 2.649-1.135 4.346-3.763 4.266-6.644l-1.489-53.798c-.068-2.445 1.135-4.765 3.202-6.074 7.295-4.62 14.27-9.699 20.884-15.197 1.884-1.566 4.466-1.997 6.774-1.176l50.665 18.026c2.716.966 5.74.164 7.638-2.005 10.127-11.569 19.229-24.058 27.164-37.325 1.482-2.477 1.313-5.606-.448-7.893l-32.789-42.601c-1.494-1.941-1.883-4.53-.976-6.805 3.172-7.961 5.848-16.173 7.987-24.6.603-2.374 2.44-4.24 4.79-4.932z" fill="#685e68"/></g><g><circle cx="256" cy="256" fill="#698ed5" r="160"/><path d="m127.524 256c0-83.047 63.271-151.316 144.238-159.233-5.185-.507-10.443-.767-15.762-.767-88.366 0-160 71.634-160 160s71.634 160 160 160c5.319 0 10.577-.26 15.762-.767-80.967-7.917-144.238-76.186-144.238-159.233z" fill="#3f73c8"/><circle cx="256" cy="256" fill="#d2e4f9" r="128.063"/><path d="m158.843 256c0-65.497 49.17-119.51 112.61-127.14-5.066-.609-10.223-.923-15.453-.923-70.727 0-128.063 57.336-128.063 128.063s57.336 128.063 128.063 128.063c5.23 0 10.387-.314 15.453-.923-63.441-7.63-112.61-61.643-112.61-127.14z" fill="#bbd3ea"/><g><path d="m295.874 255.485c17.877 31.123-4.15 71.937-41.978 70.4-34.803-1.414-55.287-39.895-37.937-70.098l33.974-59.146c2.691-4.685 9.449-4.685 12.14 0z" fill="#fee07d"/></g><path d="m247.038 255.485 24.418-42.51-9.383-16.335c-2.691-4.685-9.449-4.685-12.14 0l-33.988 59.17c-17.255 30.04 2.915 68.358 37.516 70.056 6.487.318 12.514-.607 17.963-2.516-26.319-9.273-39.355-41.806-24.386-67.865z" fill="#ffcf64"/></g><g><g><g><path d="m269.661 56.648h17.188c3.822 0 7.702 0 11.445-.096 3.388-.087 6.621-1.385 8.536-4.181l27.514-40.16c-7.037-2.259-14.206-4.223-21.494-5.875-2.809-.637-5.725.493-7.353 2.869l-30.653 44.743c.001.001-1.857 2.595-5.183 2.7z" fill="#554e56"/></g><g><path d="m134.812 97.179 17.703 6.299c2.308.821 4.89.391 6.774-1.176 6.615-5.498 13.589-10.577 20.884-15.197 2.067-1.309 3.27-3.629 3.202-6.074l-1.489-53.798c-.08-2.883 1.621-5.51 4.272-6.646 7.299-3.128 14.773-5.926 22.402-8.375l-2.06-3.007c-1.629-2.378-4.547-3.505-7.358-2.867-15.189 3.444-29.865 8.239-43.896 14.252-2.649 1.135-4.346 3.764-4.266 6.644l1.489 53.799c.068 2.448-1.141 4.767-3.21 6.077-4.967 3.147-9.787 6.508-14.447 10.069z" fill="#554e56"/></g><g><path d="m67.497 379.325 32.789-42.6c1.494-1.941 1.883-4.53.976-6.805-3.172-7.961-5.848-16.173-7.987-24.6-.603-2.374-2.44-4.24-4.79-4.932l-51.55-15.186c-2.768-.816-4.745-3.246-5.002-6.121-.679-7.603-1.027-15.301-1.027-23.08s.347-15.477 1.027-23.08c.257-2.875 2.233-5.305 5.002-6.121l51.55-15.186c2.35-.692 4.187-2.558 4.79-4.932 2.14-8.426 4.815-16.639 7.987-24.6.907-2.276.519-4.864-.976-6.805l-32.789-42.6c-1.758-2.284-1.933-5.411-.454-7.884 6.848-11.451 14.566-22.322 23.061-32.523l-19.159-6.817c-2.716-.966-5.74-.164-7.638 2.005-10.127 11.569-19.229 24.058-27.164 37.325-1.482 2.477-1.313 5.606.448 7.893l32.789 42.601c1.494 1.941 1.883 4.53.976 6.805-3.172 7.961-5.848 16.173-7.987 24.6-.603 2.374-2.44 4.24-4.79 4.932l-51.55 15.186c-2.768.816-4.745 3.246-5.002 6.121-.68 7.602-1.027 15.3-1.027 23.079s.347 15.477 1.027 23.08c.257 2.875 2.233 5.305 5.002 6.121l51.55 15.186c2.35.692 4.187 2.558 4.79 4.932 2.14 8.426 4.815 16.639 7.987 24.6.907 2.276.519 4.864-.976 6.805l-32.79 42.601c-1.76 2.287-1.929 5.416-.448 7.893 7.935 13.267 17.037 25.756 27.164 37.325 1.898 2.169 4.923 2.971 7.638 2.005l19.159-6.817c-8.495-10.201-16.213-21.072-23.061-32.523-1.479-2.473-1.304-5.599.455-7.883z" fill="#554e56"/></g><g><path d="m269.413 455.345c7.551-.29 12.758-.165 17.449-.165 4.331 0 8.679.184 12.936.177 2.454-.004 4.794 1.004 6.181 3.028l28.365 41.403c-7.037 2.259-14.206 4.223-21.494 5.875-2.809.637-5.725-.493-7.353-2.869l-30.36-44.315c.001.001-1.838-3.095-5.724-3.134z" fill="#554e56"/></g><g><path d="m181.888 484.767 1.489-53.798c.068-2.445-1.135-4.765-3.202-6.074-7.295-4.62-14.27-9.699-20.884-15.197-1.884-1.566-4.466-1.997-6.774-1.176l-17.703 6.299c4.66 3.561 9.48 6.922 14.449 10.069 2.069 1.31 3.277 3.629 3.21 6.077l-1.489 53.799c-.08 2.881 1.617 5.509 4.266 6.644 14.03 6.013 28.707 10.807 43.896 14.252 2.811.637 5.729-.49 7.358-2.867l2.06-3.007c-7.63-2.45-15.103-5.248-22.402-8.375-2.654-1.136-4.354-3.763-4.274-6.646z" fill="#554e56"/></g></g></g></g></svg>