<svg height="512" viewBox="0 0 48 48" width="512" xmlns="http://www.w3.org/2000/svg"><g id="box_in_the_gear" data-name="box in the gear"><path d="m43.34 29a19.89 19.89 0 0 1 -2.12 5.14l2.58 2.59-7.07 7.07-2.59-2.58a19.89 19.89 0 0 1 -5.14 2.12v3.66h-10v-3.66a19.83 19.83 0 0 1 -5.14-2.12l-2.59 2.58-7.07-7.07 2.58-2.59a19.89 19.89 0 0 1 -2.12-5.14h-3.66v-10h3.66a19.89 19.89 0 0 1 2.12-5.14l-2.58-2.59 7.07-7.07 2.59 2.58a19.89 19.89 0 0 1 5.14-2.12v-3.66h10v3.66a19.89 19.89 0 0 1 5.14 2.12l2.59-2.58 7.07 7.07-2.58 2.59a19.89 19.89 0 0 1 2.12 5.14h3.66v10z" fill="#7c7d7d"/><path d="m43.34 29a19.89 19.89 0 0 1 -2.12 5.14l2.58 2.59-5 5a22.32 22.32 0 0 1 -2.71 1.39l-1.93-1.92a19.89 19.89 0 0 1 -5.16 2.14v1.57a22.84 22.84 0 0 1 -10-1.35v-.22c-8.27-2.1-16.38-12.42-14.8-24.34h.46a19.89 19.89 0 0 1 2.12-5.14l-.92-.92a22.92 22.92 0 0 1 6-8.2l2 2a19.89 19.89 0 0 1 5.14-2.08v-3.66h10v3.66a19.89 19.89 0 0 1 5.14 2.12l2.59-2.58 7.07 7.07-2.58 2.59a19.89 19.89 0 0 1 2.12 5.14h3.66v10z" fill="#919191"/><path d="m37 24a13 13 0 1 1 -13-13 13 13 0 0 1 13 13z" fill="#747575"/><path d="m22 14a12.93 12.93 0 0 0 -9.73 4.39 13 13 0 0 0 -1.27 5.61c0 12 14.88 17.52 22.73 8.61a13 13 0 0 0 -11.73-18.61zm6 18h-12v-12h12z" fill="#7c7d7d"/><path d="m18 18h12v12h-12z" fill="#edb996"/><path d="m30 18c0 10.61-.1 10 0 10a10 10 0 0 1 -10-10z" fill="#f6ccaf"/><path d="m25 18v2a1 1 0 0 1 -2 0v-2z" fill="#a87e6b"/></g></svg>