<svg clip-rule="evenodd" fill-rule="evenodd" height="512" image-rendering="optimizeQuality" shape-rendering="geometricPrecision" text-rendering="geometricPrecision" viewBox="0 0 173.397 173.397" width="512" xmlns="http://www.w3.org/2000/svg"><g id="Layer_x0020_1"><g id="_307510008"><path id="_307511208" d="m49.5164 50.7631c0 7.7119-5.5666 16.1258-12.4333 16.1258-6.8668 0-12.4334-8.4139-12.4334-16.1258 0-18.3899 24.8667-18.3899 24.8667 0z" fill="#ffd180"/><path id="_307511304" d="m123.881 50.7631c0 7.7119 5.5666 16.1258 12.4334 16.1258 6.8667 0 12.4333-8.4139 12.4333-16.1258 0-18.3899-24.8667-18.3899-24.8667 0z" fill="#ffd180"/><path id="_307510872" d="m86.0315 37.7012h28.9083c1.5293 0 2.7806 1.2521 2.7806 2.7806v16.6844c0 1.5293-1.2513 2.7805-2.7806 2.7805h-2.7504v7.4254l-7.2486-7.4254h-18.9093c-1.5284 0-2.7805-1.2512-2.7805-2.7805v-16.6844c0-1.5294 1.2512-2.7806 2.7805-2.7806z" fill="#58c5fb"/><g fill="#0087ff"><path id="_307510608" d="m109.968 46.8049c.9352 0 1.6934-.7582 1.6934-1.6934s-.7582-1.6934-1.6934-1.6934h-18.9653c-.9352 0-1.6934.7582-1.6934 1.6934s.7582 1.6934 1.6934 1.6934z" fill-rule="nonzero"/><path id="_307510248" d="m109.968 54.2298c.9352 0 1.6934-.7582 1.6934-1.6934s-.7582-1.6934-1.6934-1.6934h-18.9653c-.9352 0-1.6934.7582-1.6934 1.6934s.7582 1.6934 1.6934 1.6934z" fill-rule="nonzero"/><path id="_307510584" d="m78.7771 10.8372h-28.9083c-1.5293 0-2.7806 1.2521-2.7806 2.7806v16.6844c0 1.5293 1.2513 2.7805 2.7806 2.7805h2.7504v7.4254l7.2486-7.4254h18.9093c1.5284 0 2.7805-1.2512 2.7805-2.7805v-16.6844c0-1.5294-1.2512-2.7806-2.7805-2.7806z"/></g><path id="_307510416" d="m54.8402 16.5541c-.9352 0-1.6934.7582-1.6934 1.6934s.7582 1.6934 1.6934 1.6934h18.9653c.9352 0 1.6934-.7582 1.6934-1.6934s-.7582-1.6934-1.6934-1.6934z" fill="#58c5fb" fill-rule="nonzero"/><path id="_307510128" d="m54.8402 23.979c-.9352 0-1.6934.7582-1.6934 1.6934s.7582 1.6934 1.6934 1.6934h18.9653c.9352 0 1.6934-.7582 1.6934-1.6934s-.7582-1.6934-1.6934-1.6934z" fill="#58c5fb" fill-rule="nonzero"/><path id="_307510536" d="m63.329 112.726-.0003-30.7581c0-5.2084-4.6161-9.4694-10.2581-9.4694h-31.975c-5.642 0-10.2581 4.261-10.2581 9.4694l-.0003 30.7581c0 4.7468 4.5423 8.6302 10.0946 8.6302l-.0002 34.2992c0 3.7976 3.6339 6.9043 8.0758 6.9043 4.4418 0 8.0757-3.1067 8.0757-6.9043 0 3.7976 3.6339 6.9043 8.0757 6.9043 4.4419 0 8.0758-3.1067 8.0758-6.9043l-.0002-34.2992c5.5523 0 10.0946-3.8834 10.0946-8.6302z" fill="#ff9801"/><path id="_307510776" d="m17.5584 120.857c1.0562.3227 2.1917.4992 3.3734.4992l-.0001-21.6025c0-.9315-.7552-1.6867-1.6867-1.6867s-1.6867.7552-1.6867 1.6867z" fill="#d38006"/><path id="_307510296" d="m162.56 112.726-.0003-30.7581c0-5.2084-4.6161-9.4694-10.2581-9.4694h-31.975c-5.642 0-10.2581 4.261-10.2581 9.4694l-.0003 30.7581c0 4.7468 4.5423 8.6302 10.0946 8.6302l-.0002 34.2992c0 3.7976 3.6339 6.9043 8.0758 6.9043 4.4418 0 8.0757-3.1067 8.0757-6.9043 0 3.7976 3.6339 6.9043 8.0757 6.9043 4.4419 0 8.0758-3.1067 8.0758-6.9043l-.0002-34.2992c5.5523 0 10.0946-3.8834 10.0946-8.6302z" fill="#32d736"/><path id="_307509888" d="m35.3964 153.969c0 .9315.7552 1.6867 1.6867 1.6867s1.6867-.7552 1.6867-1.6867l-.0001-26.4491c0-.9315-.7552-1.6867-1.6867-1.6867s-1.6867.7552-1.6867 1.6867z" fill="#d38006" fill-rule="nonzero"/><path id="_307509696" d="m134.627 153.969c0 .9315.7552 1.6867 1.6867 1.6867s1.6867-.7552 1.6867-1.6867l.0001-26.4491c0-.9315-.7552-1.6867-1.6867-1.6867s-1.6867.7552-1.6867 1.6867z" fill="#2eb331" fill-rule="nonzero"/><path id="_307509552" d="m56.6078 120.857c-1.0562.3227-2.1917.4992-3.3734.4992l.0001-21.6025c0-.9315.7552-1.6867 1.6867-1.6867s1.6867.7552 1.6867 1.6867z" fill="#d38006"/><path id="_307509840" d="m155.839 120.857c-1.0562.3227-2.1917.4992-3.3734.4992l.0001-21.6025c0-.9315.7552-1.6867 1.6867-1.6867s1.6867.7552 1.6867 1.6867z" fill="#2eb331"/><path id="_307509288" d="m116.789 120.857c1.0562.3227 2.1917.4992 3.3734.4992l-.0001-21.6025c0-.9315-.7552-1.6867-1.6867-1.6867s-1.6867.7552-1.6867 1.6867z" fill="#2eb331"/></g></g></svg>