<svg id="Capa_1" enable-background="new 0 0 512 512" height="512" viewBox="0 0 512 512" width="512" xmlns="http://www.w3.org/2000/svg"><g><path d="m478.403 512h-407.495l50.016-134.264v-365.031c-.001-7.017 5.688-12.705 12.704-12.705h344.775c7.017 0 12.705 5.688 12.705 12.705v486.59c0 7.017-5.688 12.705-12.705 12.705z" fill="#e6f6ff"/><path d="m478.403 0h-22.041c7.017 0 12.705 5.688 12.705 12.705v486.591c0 7.017-5.688 12.705-12.705 12.705h22.041c7.017 0 12.705-5.688 12.705-12.705v-486.591c0-7.017-5.688-12.705-12.705-12.705z" fill="#d1edff"/><path d="m70.908 512c-27.623 0-50.016-22.393-50.016-50.016v-100.351c0-7.017 5.688-12.705 12.705-12.705h87.327v113.056c-.001 27.623-22.393 50.016-50.016 50.016z" fill="#d1edff"/><g><circle cx="306.016" cy="104.582" fill="#ffea76" r="69.39"/><path d="m306.016 35.192c-4.157 0-8.221.386-12.177 1.087 32.513 5.759 57.213 34.137 57.213 68.304 0 34.166-24.7 62.544-57.213 68.303 3.956.701 8.02 1.087 12.177 1.087 38.323 0 69.39-31.067 69.39-69.39 0-38.324-31.067-69.391-69.39-69.391z" fill="#ffe54c"/><path d="m326.232 110.596c0 11.165-9.051 20.216-20.216 20.216s-20.216-9.051-20.216-20.216 9.051-32.243 20.216-32.243 20.216 21.078 20.216 32.243z" fill="#6c5e69"/></g><g><path d="m335.985 462.278c-.927 0-1.869-.168-2.786-.522-3.98-1.54-5.958-6.014-4.419-9.994 6.453-16.678 13.7-27.934 22.807-35.42 6.007-4.937 13.941-6.226 21.22-3.456 7.216 2.748 12.234 8.927 13.422 16.524.524 3.349.387 6.402.268 9.095l-.014.303c-.157 3.576 2.529 5.233 3.356 5.655.954.488 3.432 1.413 5.841-.498 2.383-1.89 3.522-6.607 5.116-14.149.54-2.561 2.341-4.674 4.784-5.614 2.444-.942 5.196-.58 7.314.958 8.453 6.135 14.166 5.244 20.783 4.212 6.852-1.071 16.242-2.535 24.725 7.16 2.81 3.211 2.484 8.093-.727 10.902-3.209 2.808-8.092 2.486-10.902-.727-2.773-3.169-4.375-3.056-10.714-2.066-5.902.921-13.443 2.099-22.6-1.558-1.6 5.088-3.921 9.615-8.176 12.99-6.449 5.113-15.059 5.939-22.471 2.153-7.632-3.897-12.14-11.6-11.766-20.1l.014-.31c.097-2.159.188-4.197-.098-6.017-.462-2.956-2.709-4.112-3.654-4.472-.977-.371-3.505-1.022-5.907.953-6.969 5.728-12.755 14.961-18.207 29.057-1.186 3.064-4.111 4.941-7.209 4.941z" fill="#ff6c53"/></g><g><g><path d="m423.74 231.649h-227.963c-4.268 0-7.726-3.459-7.726-7.726s3.459-7.726 7.726-7.726h227.963c4.268 0 7.726 3.459 7.726 7.726s-3.458 7.726-7.726 7.726z" fill="#6c5e69"/></g><g><path d="m423.74 272.478h-227.963c-4.268 0-7.726-3.459-7.726-7.726s3.459-7.726 7.726-7.726h227.963c4.268 0 7.726 3.459 7.726 7.726s-3.458 7.726-7.726 7.726z" fill="#6c5e69"/></g><g><path d="m423.74 313.307h-227.963c-4.268 0-7.726-3.459-7.726-7.726s3.459-7.726 7.726-7.726h227.963c4.268 0 7.726 3.459 7.726 7.726s-3.458 7.726-7.726 7.726z" fill="#6c5e69"/></g><g><path d="m423.74 354.136h-227.963c-4.268 0-7.726-3.459-7.726-7.726s3.459-7.726 7.726-7.726h227.963c4.268 0 7.726 3.459 7.726 7.726s-3.458 7.726-7.726 7.726z" fill="#6c5e69"/></g></g><g><path d="m280.764 457.211h-104.889c-4.475 0-8.102-3.627-8.102-8.102v-37.289c0-4.475 3.627-8.102 8.102-8.102h104.889c4.475 0 8.102 3.627 8.102 8.102v37.289c0 4.474-3.627 8.102-8.102 8.102z" fill="#ff6c53"/><path d="m280.764 403.717h-22.709c4.475 0 8.102 3.628 8.102 8.102v37.289c0 4.475-3.627 8.102-8.102 8.102h22.709c4.475 0 8.102-3.628 8.102-8.102v-37.289c0-4.474-3.627-8.102-8.102-8.102z" fill="#ff534a"/></g></g></svg>