<svg id="Capa_1" enable-background="new 0 0 512 512" viewBox="0 0 512 512" xmlns="http://www.w3.org/2000/svg"><g><path d="m17.322 191.663s90.165 72.337 258.422 72.337c197.257 0 214.776-43.476 215.256-43.839-21.856-112.904-121.209-198.165-240.499-198.165-109.025 0-201.401 71.22-233.183 169.669z" fill="#fef156"/><path d="m6.048 283.245c-.352-5.372-.549-10.786-.549-16.247 0-26.288 4.157-51.6 11.823-75.334 29.403-8.778 60.845-25.139 84.117-55.307 33.621-43.582 58.039-82.384 91.08-107.457h57.077l18.404 279.075s-177.236 39.182-261.952-24.73z" fill="#1d8df2"/><path d="m491.012 220.152c-40.47 12.304-85.513 3.293-85.513-34.064 0-15.317 15.251-20.648 28.233-22.411 8.956-1.216 12.568-12.204 6.247-18.664-17.136-17.511-47.29-26.019-76.184 2.875-37.84 37.84-98.023 40.362-98.023-11.532 0-28.781 13.579-46.311 25.675-56.217 7.267-5.951 18.113-2.33 20.562 6.738 1.343 4.975 3.534 9.993 7.099 13.558 9.969 9.969 40.542-5.342 30.812-48.588-4.054-18.019-15.71-30.125-27.929-38.118-16.781-10.976-37.007-15.357-56.942-13.192-29.831 3.24-52.729 13.336-72.529 28.362 0 0 58.256 24.101 19.368 78.101s-25.194 138.428 35.959 166.714c0 0 44.401 38.286 124.027 38.286s123.592-47.942 123.592-47.942c-.176-14.999-1.697-29.672-4.454-43.906z" fill="#27a6ff"/><path d="m19.367 348.403c-7.255-20.598-11.832-42.454-13.319-65.158 8.374-.739 16.578-3.915 23.479-9.536 15.89-12.942 38.685-12.943 54.575-.002l.006.005c15.89 12.94 38.684 12.941 54.574 0l.009-.007c15.89-12.94 38.683-12.94 54.573-.001l.011.01c15.89 12.94 38.683 12.939 54.572 0l38.153 90.953s-164.599 28.805-266.633-16.264z" fill="#27a6ff"/><path d="m486.469 333.107c6.095-21.799 9.283-44.785 8.996-69.055-10.327-.475-20.789 2.742-29.28 9.658-15.89 12.942-38.685 12.943-54.576.002l-.006-.004c-15.889-12.94-38.683-12.94-54.573-.001l-.009.007c-15.89 12.94-38.683 12.94-54.573 0v.006l-.02-.016c-15.89-12.938-38.682-12.938-54.57.002l-.012.01s-26.285 40.93 6.267 64.275c0 0 58.385 35.746 124.885 35.746s107.471-40.63 107.471-40.63z" fill="#02c0fc"/><path d="m46.209 402.261c-11.039-16.639-20.096-34.702-26.842-53.858 3.585-1.548 7.01-3.597 10.16-6.163 15.89-12.942 38.685-12.943 54.575-.001l.006.005c15.89 12.94 38.684 12.941 54.574 0l.009-.007c15.89-12.94 38.683-12.94 54.573-.001l.011.01c15.89 12.94 38.683 12.939 54.572 0l.012-.01c1.986-1.617 4.08-3.033 6.255-4.246l31.886 96.677s-143.222 64.163-239.791-32.406z" fill="#02c0fc"/><path d="m441.639 420.257c20.387-25.393 35.822-54.927 44.831-87.15-7.251 1.188-14.263 4.23-20.283 9.133-15.89 12.942-38.685 12.943-54.576.002l-.006-.004c-15.889-12.941-38.683-12.941-54.573-.001l-.009.007c-15.89 12.94-38.683 12.94-54.573 0v.006l-.02-.016c-13.903-11.321-33.091-12.736-48.315-4.244 0 0-30.326 41.394 8.03 64.953l34.355 39.057s84.777 14.013 145.139-21.743z" fill="#6ad9fb"/><path d="m305.676 505.747c-17.734 4.083-36.2 6.253-55.175 6.253-85.307 0-160.418-43.608-204.292-109.739 12.914-3.264 27.02-.472 37.893 8.383l.006.005c15.89 12.94 38.684 12.941 54.574 0l.009-.007c15.89-12.94 38.683-12.94 54.573-.001l.011.01c15.89 12.94 38.683 12.939 54.572 0l.012-.01c4.34-3.534 9.196-6.096 14.284-7.7l48.615 40.695z" fill="#6ad9fb"/><path d="m411.61 410.647-.006-.004c-15.889-12.941-38.683-12.941-54.573-.001l-.009.007c-15.89 12.94-38.683 12.94-54.573 0v.006l-.02-.016c-11.55-9.405-26.744-11.965-40.286-7.698s-20.7 72.972 43.532 102.806c54.516-12.552 102.081-43.29 135.962-85.491-10.567.67-21.33-2.526-30.027-9.609z" fill="#ade9f7"/><g fill="#6ad9fb"><ellipse cx="401.39" cy="77.607" rx="22.111" ry="22.111" transform="matrix(.253 -.968 .968 .253 224.954 446.398)"/><circle cx="489.751" cy="116.469" r="16.75"/><ellipse cx="350.501" cy="223.123" rx="21.373" ry="21.373" transform="matrix(.722 -.692 .692 .722 -56.984 304.306)"/></g></g><g/><g/><g/><g/><g/><g/><g/><g/><g/><g/><g/><g/><g/><g/><g/></svg>