<svg id="Capa_1" enable-background="new 0 0 512 512" height="512" viewBox="0 0 512 512" width="512" xmlns="http://www.w3.org/2000/svg"><g><path d="m438.769 75.762c-84.653-15.938-92.227-20.581-128.643-43.389-11.719-7.354-26.235-16.436-46.685-28.125l-7.441-4.248-7.441 4.248c-20.771 11.865-35.42 21.05-47.212 28.447-36.783 23.057-43.404 27.115-128.116 43.052l-12.231 2.3v168.358c0 119.297 63.545 206.488 188.862 262.841l6.138 2.754 6.138-2.739c125.317-56.089 188.862-143.281 188.862-262.856v-168.343z" fill="#edf9ff"/><path d="m451 246.405v-168.343l-12.231-2.3c-84.653-15.938-92.227-20.581-128.643-43.389-11.719-7.354-26.235-16.436-46.685-28.125l-7.441-4.248v512l6.138-2.739c125.317-56.089 188.862-143.281 188.862-262.856z" fill="#c0e1f0"/><g><path d="m241 78.691-4.731 2.93c-35.977 22.383-50.874 31.538-103.55 43.33l-11.719 2.622v118.832c0 84.274 39.547 145.644 120 190.924z" fill="#97de3d"/><path d="m379.281 124.951c-52.617-11.792-67.485-20.933-103.403-43.257l-4.878-3.015v358.755c80.457-45.114 120-106.511 120-191.029v-118.832z" fill="#59c36a"/></g></g></svg>