<?xml version="1.0" encoding="iso-8859-1"?>
<!-- Generator: Adobe Illustrator 21.0.0, SVG Export Plug-In . SVG Version: 6.00 Build 0)  -->
<svg xmlns="http://www.w3.org/2000/svg" xmlns:xlink="http://www.w3.org/1999/xlink" version="1.1" id="Capa_1" x="0px" y="0px" viewBox="0 0 497 497" style="enable-background:new 0 0 497 497;" xml:space="preserve" width="512" height="512">
<g>
	<path style="fill:#57565C;" d="M329.651,364.324l-47.296-259.265l23.188-57.524l56.705,310.842l-0.066-0.365   c1.498,7.44,2.285,15.138,2.285,23.02C364.467,445.08,312.547,497,248.5,497s-115.967-51.92-115.967-115.967   c0-7.882,0.786-15.58,2.285-23.02l-0.066,0.365l56.705-310.842l23.188,57.524l-47.296,259.265H329.651z"/>
	<circle style="fill:#F7931E;" cx="248.5" cy="57.982" r="57.982"/>
	<path style="fill:#F7831E;" d="M248.5,0c-3.536,0-6.993,0.334-10.354,0.94c27.079,4.884,47.628,28.556,47.628,57.042   s-20.549,52.157-47.628,57.042c3.362,0.606,6.818,0.94,10.354,0.94c32.023,0,57.982-25.96,57.982-57.982   C306.482,25.96,280.523,0,248.5,0z"/>
	<circle style="fill:#C6C5CA;" cx="248.5" cy="57.982" r="24.851"/>
	<circle style="fill:#C6C5CA;" cx="248.499" cy="381.033" r="82.833"/>
	<circle style="fill:#898890;" cx="248.5" cy="381.033" r="57.983"/>
	<path style="fill:#74747A;" d="M248.5,323.05c-3.5,0-6.921,0.328-10.25,0.922c27.131,4.843,47.733,28.538,47.733,57.062   s-20.602,52.219-47.733,57.062c3.329,0.594,6.75,0.922,10.25,0.922c32.023,0,57.983-25.96,57.983-57.983   S280.523,323.05,248.5,323.05z"/>
	<g>
		<g>
			<path style="fill:#57565C;" d="M248.5,340.133c-4.289,0-7.766,3.477-7.766,7.766v8.284c0,4.289,3.476,7.766,7.766,7.766     s7.766-3.477,7.766-7.766v-8.284C256.266,343.61,252.789,340.133,248.5,340.133z"/>
			<path style="fill:#57565C;" d="M230.561,352.113c-3.031-3.033-7.949-3.032-10.982,0c-3.032,3.033-3.032,7.95,0.001,10.983     l5.858,5.857c1.516,1.516,3.504,2.274,5.491,2.274c1.987,0,3.975-0.758,5.491-2.275c3.033-3.033,3.033-7.95-0.001-10.983     L230.561,352.113z"/>
			<path style="fill:#57565C;" d="M231.415,381.033c0-4.289-3.476-7.766-7.766-7.766h-8.283c-4.289,0-7.766,3.477-7.766,7.766     c0,4.289,3.476,7.766,7.766,7.766h8.283C227.938,388.799,231.415,385.322,231.415,381.033z"/>
			<path style="fill:#57565C;" d="M225.438,393.114l-5.858,5.857c-3.033,3.033-3.033,7.95-0.001,10.983     c1.517,1.516,3.504,2.275,5.492,2.275c1.987,0,3.975-0.758,5.49-2.274l5.858-5.857c3.033-3.033,3.033-7.95,0.001-10.983     C233.387,390.082,228.47,390.082,225.438,393.114z"/>
			<path style="fill:#57565C;" d="M248.5,398.118c-4.289,0-7.766,3.477-7.766,7.766v8.283c0,4.289,3.476,7.766,7.766,7.766     s7.766-3.477,7.766-7.766v-8.283C256.266,401.595,252.789,398.118,248.5,398.118z"/>
			<path style="fill:#57565C;" d="M271.562,393.114c-3.031-3.033-7.949-3.032-10.982,0.001c-3.033,3.033-3.033,7.95,0.001,10.983     l5.858,5.857c1.516,1.516,3.504,2.274,5.491,2.274c1.987,0,3.975-0.758,5.491-2.275c3.033-3.033,3.033-7.95-0.001-10.983     L271.562,393.114z"/>
			<path style="fill:#57565C;" d="M281.634,373.268h-8.283c-4.289,0-7.766,3.477-7.766,7.766s3.476,7.766,7.766,7.766h8.283     c4.289,0,7.766-3.477,7.766-7.766S285.924,373.268,281.634,373.268z"/>
			<path style="fill:#57565C;" d="M266.072,371.227c1.987,0,3.975-0.758,5.49-2.274l5.858-5.857     c3.034-3.033,3.034-7.95,0.001-10.983c-3.032-3.031-7.95-3.033-10.982,0l-5.858,5.857c-3.034,3.033-3.034,7.95-0.001,10.983     C262.097,370.468,264.084,371.227,266.072,371.227z"/>
		</g>
	</g>
	<circle style="fill:#F7931E;" cx="248.5" cy="381.033" r="24.851"/>
	<path style="fill:#F7831E;" d="M248.5,356.183c-3.697,0-7.201,0.813-10.354,2.261c8.553,3.927,14.496,12.562,14.496,22.59   c0,10.028-5.943,18.663-14.496,22.59c3.153,1.448,6.658,2.261,10.354,2.261c13.725,0,24.85-11.126,24.85-24.851   C273.35,367.309,262.225,356.183,248.5,356.183z"/>
	<path style="fill:#AAA9AD;" d="M248.5,33.131c-3.697,0-7.201,0.813-10.354,2.261c8.553,3.927,14.496,12.562,14.496,22.59   c0,10.028-5.943,18.663-14.496,22.59c3.153,1.448,6.658,2.261,10.354,2.261c13.725,0,24.85-11.126,24.85-24.851   C273.35,44.257,262.225,33.131,248.5,33.131z"/>
</g>















</svg>
