<svg id="Capa_1" enable-background="new 0 0 512 512" height="512" viewBox="0 0 512 512" width="512" xmlns="http://www.w3.org/2000/svg"><g><g><g><path d="m309.78 370.141h-72.58l-10.222-15.762 2.617-63.049 8.177-7.868 2.611-62.921-7.518-8.023 3.271-78.811v-24.524c0-3.866 3.134-7 7-7h64.811c3.866 0 7 3.134 7 7v24.524l3.273 78.858-6.153 8.795 2.577 62.087 6.846 7.881 2.617 63.049z" fill="#d2e4f9"/><path d="m260.041 291.33 8.177-7.867 2.611-62.921-7.518-8.023 3.271-78.811v-31.524h-23.446c-3.866 0-7 3.134-7 7v24.524l-3.271 78.811 7.518 8.023-2.611 62.921-8.177 7.867-2.617 63.049 10.222 15.762h30.446l-10.222-15.762z" fill="#bbd3ea"/><path d="m232.865 212.519h85.353l3.27 78.811h-3.115-85.637-3.142z" fill="#de6a66"/><path d="m232.865 212.519-3.271 78.811h30.447l3.27-78.811z" fill="#d15d5d"/></g><g><path d="m461.036 370.141h-75.818l-8.687-15.762 1.308-31.524 8.14-7.023 2.652-63.906-7.523-7.862 3.272-78.83v-24.524c0-3.866 3.134-7 7-7h64.811c3.866 0 7 3.134 7 7v24.524l3.271 78.811-6.569 7.881 2.667 64.274 7.173 6.656 1.308 31.524z" fill="#d2e4f9"/><path d="m408.285 322.854 8.141-7.023 2.652-63.906-7.523-7.862 3.272-78.83v-31.524h-23.446c-3.866 0-7 3.134-7 7v24.524l-3.272 78.83 7.523 7.862-2.652 63.906-8.141 7.023-1.308 31.524 8.687 15.762h30.446l-8.687-15.762z" fill="#bbd3ea"/><path d="m381.11 244.044h85.508l3.115 78.81h-91.894z" fill="#de6a66"/><path d="m381.11 244.044-3.271 78.81h30.446l3.271-78.81z" fill="#d15d5d"/></g><path d="m481.626 512h-262.034l-43.395-22.557 1.754-104.92 11.196-14.383h299.481v134.86c-.002 3.866-3.136 7-7.002 7z" fill="#d2e4f9"/><path d="m158.699 385.903v108.491l30.447 17.606h30.446v-141.859h-30.446z" fill="#bbd3ea"/><path d="m497.388 385.903h-338.689v-31.524h338.689c3.866 0 7 3.134 7 7v17.524c0 3.866-3.134 7-7 7z" fill="#de6a66"/><path d="m158.699 354.379h60.892v31.524h-60.892z" fill="#d15d5d"/><path d="m189.146 512h-31.524l-9.003-10.255h-93.345l-7.988 10.255h-24.524c-3.866 0-7-3.134-7-7v-450.102h173.384z" fill="#b5adb6"/><g><path d="m15.762 54.898v450.102c0 3.866 3.134 7 7 7h24.524v-457.102z" fill="#a79ba7"/></g><path d="m15.762 54.898h173.384v47.286h-173.384z" fill="#d2e4f9"/><path d="m15.762 54.898h31.524v47.286h-31.524z" fill="#bbd3ea"/><path d="m54.286 133.709h96.335c3.866 0 7 3.134 7 7v17.524c0 3.866-3.134 7-7 7h-96.335c-3.866 0-7-3.134-7-7v-17.524c0-3.866 3.134-7 7-7z" fill="#d2e4f9"/><path d="m54.286 196.757h96.335c3.866 0 7 3.134 7 7v17.524c0 3.866-3.134 7-7 7h-96.335c-3.866 0-7-3.134-7-7v-17.524c0-3.866 3.134-7 7-7z" fill="#d2e4f9"/><path d="m77.286 158.233v-17.524c0-3.866 3.134-7 7-7h-30c-3.866 0-7 3.134-7 7v17.524c0 3.866 3.134 7 7 7h30c-3.866 0-7-3.134-7-7z" fill="#bbd3ea"/><path d="m77.286 221.281v-17.524c0-3.866 3.134-7 7-7h-30c-3.866 0-7 3.134-7 7v17.524c0 3.866 3.134 7 7 7h30c-3.866 0-7-3.133-7-7z" fill="#bbd3ea"/><path d="m157.621 512h-110.335v-119.097c0-3.866 3.134-7 7-7h96.335c3.866 0 7 3.134 7 7z" fill="#d2e4f9"/><path d="m450.102 448.951h-222.432c-3.866 0-7-3.134-7-7v-17.524c0-3.866 3.134-7 7-7h222.432c3.866 0 7 3.134 7 7v17.524c0 3.866-3.134 7-7 7z" fill="#b5adb6"/><path d="m199.278 70.66h-192.278c-3.866 0-7-3.134-7-7v-17.524c0-3.866 3.134-7 7-7h192.278c3.866 0 7 3.134 7 7v17.524c0 3.866-3.134 7-7 7z" fill="#de6a66"/><path d="m30 63.66v-17.524c0-3.866 3.134-7 7-7h-30c-3.866 0-7 3.134-7 7v17.524c0 3.866 3.134 7 7 7h30c-3.866 0-7-3.134-7-7z" fill="#d15d5d"/><path d="m333.845 126.097h-113.471c-4.204 0-7.612 3.408-7.612 7.612s3.407 7.612 7.612 7.612h113.471c4.204 0 7.612-3.408 7.612-7.612s-3.408-7.612-7.612-7.612z" fill="#bbd3ea"/><path d="m482.09 157.622h-113.472c-4.204 0-7.612 3.408-7.612 7.612s3.407 7.612 7.612 7.612h113.472c4.204 0 7.612-3.408 7.612-7.612 0-4.205-3.408-7.612-7.612-7.612z" fill="#bbd3ea"/><g fill="#685e68"><path d="m260.313 78.272c4.204 0 7.612-3.408 7.612-7.612v-24.237c0-17.203 13.996-31.199 31.199-31.199h110.692c4.204 0 7.612-3.408 7.612-7.612s-3.408-7.612-7.612-7.612h-110.692c-25.598 0-46.423 20.825-46.423 46.423v24.237c.001 4.204 3.408 7.612 7.612 7.612z"/><path d="m302.894 31.525c-10.293 0-18.668 8.375-18.668 18.669v20.466c0 4.204 3.407 7.612 7.612 7.612s7.612-3.408 7.612-7.612v-20.467c0-1.9 1.545-3.446 3.445-3.446h91.159c4.204 0 7.612-3.408 7.612-7.612s-3.407-7.612-7.612-7.612h-91.16z"/><path d="m504.388 31.525h-55.538c-25.598 0-46.423 20.825-46.423 46.422v24.238c0 4.204 3.407 7.612 7.612 7.612s7.612-3.408 7.612-7.612v-24.238c0-17.203 13.996-31.199 31.199-31.199h55.539c4.204 0 7.612-3.408 7.612-7.612s-3.408-7.611-7.613-7.611z"/><path d="m488.626 63.049h-36.005c-10.294 0-18.669 8.375-18.669 18.669v20.467c0 4.204 3.407 7.612 7.612 7.612s7.612-3.408 7.612-7.612v-20.468c0-1.9 1.546-3.446 3.446-3.446h36.005c4.204 0 7.612-3.408 7.612-7.612s-3.409-7.61-7.613-7.61z"/></g></g></g></svg>