<svg id="Capa_1" enable-background="new 0 0 511.184 511.184" height="512" viewBox="0 0 511.184 511.184" width="512" xmlns="http://www.w3.org/2000/svg"><g><g><g><path d="m71.585 466.716c-4.267 0-7.727-3.459-7.727-7.727v-233.217c0-4.267 3.459-7.727 7.727-7.727 4.267 0 7.727 3.459 7.727 7.727v233.218c0 4.267-3.46 7.726-7.727 7.726z" fill="#d2e4f9"/></g><g><path d="m447.599 366.642c-4.267 0-7.727-3.459-7.727-7.727v-218.423c0-4.267 3.459-7.727 7.727-7.727s7.727 3.459 7.727 7.727v218.423c0 4.267-3.459 7.727-7.727 7.727z" fill="#d2e4f9"/></g><path d="m143.624 471.596 2.038 14.552.175-.086 97.568-49.919c2.288-1.171 4.998-1.172 7.286-.001 18.12 9.271 97.683 49.977 97.582 49.925 5.798 2.959 12.481-2.222 11.046-8.579-.001-.006-.002-.011-.004-.017l-61.788-271.867c-.019-.094-.041-.187-.064-.28l-9.935-42.029-12.082 14.883 4.89 21.517c.605 2.663-.393 5.435-2.558 7.1l-26.462 20.355c-2.516 1.935-6.02 1.935-8.536 0l-26.462-20.355c-2.165-1.665-3.163-4.437-2.558-7.1l5.019-22.083c.87-3.827-1.103-7.862-4.789-9.208zm55.837-166.131 24.923 16.615c4.156 2.771 4.156 8.878 0 11.649l-33.824 22.549c-5.263 3.508-12.111-1.208-10.709-7.376l8.901-39.164c1.087-4.783 6.628-6.994 10.709-4.273zm7.493-24.693 35.827-27.559c2.516-1.936 6.02-1.936 8.536 0l35.827 27.559c3.8 2.923 3.604 8.714-.385 11.373l-35.828 23.885c-2.351 1.568-5.415 1.568-7.766 0l-35.827-23.885c-3.988-2.66-4.184-8.451-.384-11.373zm41.88 57.608 61.317 40.878c2.044 1.363 1.868 4.422-.319 5.541l-61.317 31.371c-.92.471-2.011.471-2.931 0l-61.317-31.371c-2.187-1.119-2.364-4.178-.319-5.541l61.317-40.878c1.08-.72 2.488-.72 3.569 0zm16.16-13.153 34.214-22.809c1.876-1.25 4.422-.234 4.922 1.964l12.219 53.765c.644 2.835-2.503 5.002-4.922 3.39l-46.433-30.956c-1.911-1.273-1.911-4.08 0-5.354zm22.531-93.903 4.024 17.705c1.453 6.395-5.896 11.098-11.094 7.1l-13.52-10.4c-3.643-2.802-3.643-8.295 0-11.097l9.497-7.305c4.048-3.114 9.961-.984 11.093 3.997zm-60.362 14.405-13.52 10.4c-5.198 3.998-12.547-.705-11.094-7.1l4.024-17.705c1.132-4.981 7.045-7.111 11.094-3.997l9.496 7.305c3.643 2.802 3.643 8.295 0 11.097zm-70.328 204.44 10.637-46.801c1.012-4.453 5.949-6.76 10.014-4.68l40.419 20.679c5.082 2.6 5.082 9.863 0 12.463l-51.055 26.121c-5.289 2.707-11.331-1.989-10.015-7.782zm169.791-46.801 10.637 46.801c1.316 5.793-4.726 10.489-10.014 7.783l-51.056-26.121c-5.082-2.6-5.082-9.863 0-12.463l40.419-20.679c4.066-2.081 9.002.226 10.014 4.679z" fill="#d2e4f9"/><g><path d="m170.557 456.055-3.707 1.897c-5.288 2.706-11.331-1.991-10.014-7.783l10.637-46.801c1.012-4.453 5.949-6.76 10.014-4.68l5.473 2.8c.971-4.271 1.965-8.647 2.979-13.107.326-1.434-.361-2.912-1.671-3.582-2.187-1.119-2.364-4.178-.319-5.541l4.789-3.193c1.627-7.158 3.291-14.479 4.975-21.889l-3.152 2.101c-5.263 3.508-12.111-1.208-10.709-7.376l8.901-39.164c1.087-4.783 6.628-6.994 10.709-4.273l4.622 3.081c1.231-5.416 2.455-10.801 3.666-16.129l-.409-.273c-3.989-2.659-4.185-8.45-.385-11.373l4.17-3.207c1.845-8.116 3.642-16.027 5.37-23.627l-2.85 2.193c-5.198 3.998-12.547-.705-11.094-7.1l4.024-17.705c1.132-4.981 7.045-7.111 11.094-3.997l4.149 3.191c1.334-5.87 2.597-11.424 3.772-16.595l-9.268-7.129c-2.165-1.665-3.163-4.437-2.558-7.1l5.019-22.083c.87-3.827-1.103-7.862-4.789-9.209-4.463-1.63-9.204 1.046-10.223 5.534-2.945 12.96-63.254 278.318-68.985 303.534-.001.006-.002.011-.004.017-.011.049-.022.099-.032.149-.003.013-.005.025-.008.038-.012.059-.023.118-.033.178l-.002.01c-1.137 6.214 5.288 11.072 10.957 8.285l.175-.086 20.256-10.363c.877-3.875 2.419-10.655 4.461-19.643z" fill="#bbd3ea"/></g><path d="m437.198 79.99-398.864 168.905c-9.402 3.981-20.005-2.12-21.287-12.249-.866-6.841 2.921-13.425 9.27-16.116l387.074-164.069z" fill="#685e68"/><path d="m437.198 79.99-398.864 168.905c-9.402 3.981-20.005-2.12-21.287-12.249-.866-6.841 2.921-13.425 9.27-16.116l387.074-164.069z" fill="#685e68"/><g><path d="m459.459 147.851-14.941-5.455-12.264-.61-43.802-117.426 1.297-10.015 6.823-13.623c1.707-.73 4.261-1.019 5.984-.328l36.621 14.69c1.723.691 3.101 2.039 3.831 3.746l35.453 82.946c.73 1.707.751 3.634.06 5.357l-14.69 36.621c-.691 1.722-2.665 3.368-4.372 4.097z" fill="#698ed5"/></g><path d="m95.586 490.317h-48.002v-36.136c0-3.866 3.134-7 7-7h34.002c3.866 0 7 3.134 7 7z" fill="#ffb22a"/><path d="m463.6 490.317h-32.001v-132.139c0-3.866 3.134-7 7-7h18.001c3.866 0 7 3.134 7 7z" fill="#ffb22a"/><path d="m488.39 511.184h-465.807c-3.866 0-7-3.134-7-7v-18.001c0-3.866 3.134-7 7-7h465.807c3.983 0 7.212 3.229 7.212 7.212v17.578c-.001 3.982-3.229 7.211-7.212 7.211z" fill="#698ed5"/><path d="m46.49 503.973v-17.578c0-3.983 3.229-7.212 7.212-7.212h-31.119c-3.866 0-7 3.134-7 7v18.001c0 3.866 3.134 7 7 7h31.118c-3.983 0-7.211-3.229-7.211-7.211z" fill="#3f73c8"/><path d="m264.144 143.17c0-7.663-1.796-14.907-4.989-21.333l-88.256 37.409c3.714 10.452 10.947 19.236 20.273 24.928l71.796-30.403c.77-3.411 1.176-6.958 1.176-10.601z" fill="#554e56"/><path d="m478.461 101.774-1.957-4.578c-12.173 2.57-21.981 4.634-29.889 6.296-3.267.686-6.557-1.029-7.869-4.098-4.773-11.168-15.837-37.051-20.454-47.854-1.233-2.886-.398-6.229 2.048-8.196 6.466-5.2 14.552-11.692 24.681-19.803 0 0-2.078-4.862-2.078-4.862-.703-1.645-1.958-2.87-3.528-3.5l-5.777-2.317-16.537 13.284c-3.613 2.902-8.999 1.556-10.82-2.706l-9.71-22.718-19.695 8.418c-3.555 1.519-5.205 5.633-3.685 9.188l57.385 134.256c1.519 3.555 5.633 5.205 9.188 3.685l19.696-8.419-8.914-20.854c-1.735-4.06.675-8.693 4.996-9.601l20.601-4.332 2.379-5.932c.69-1.723.669-3.65-.061-5.357z" fill="#3f73c8"/><circle cx="247.049" cy="143.17" fill="#fee07d" r="48.002"/><path d="m231.049 143.17c0-20.9 13.358-38.68 32.001-45.27-5.005-1.769-10.39-2.732-16.001-2.732-26.511 0-48.002 21.491-48.002 48.002s21.491 48.002 48.002 48.002c5.61 0 10.996-.963 16.001-2.732-18.644-6.59-32.001-24.37-32.001-45.27z" fill="#ffcf64"/><circle cx="247.049" cy="143.17" fill="#ffb22a" r="16.001"/></g></g></svg>