<svg id="Capa_1" enable-background="new 0 0 512 512" height="512" viewBox="0 0 512 512" width="512" xmlns="http://www.w3.org/2000/svg"><g><path d="m256 0h-15v45h15 15v-45z" fill="#fabe2c"/><path d="m256 0h15v45h-15z" fill="#ff9100"/><path d="m256 90h-15v362h15 15v-362z" fill="#fabe2c"/><path d="m256 90h15v362h-15z" fill="#ff9100"/><g><path d="m480.429 311.884-52.808-185.805-42.729-1.802-53.321 187.607 28.858 8.232 45.569-160.483 45.573 160.483z" fill="#ff9100"/></g><path d="m180.429 311.884-53.321-187.607-42.744 1.802-52.793 185.805 28.858 8.232 45.566-160.505 45.576 160.505z" fill="#fabe2c"/><g><g><path d="m106 391c-58.872 0-106-32.944-106-75v-15h211v15c0 42.056-46.128 75-105 75z" fill="#fed843"/></g></g><g><g><path d="m406 391c-58.872 0-105-32.944-105-75v-15h211v15c0 42.056-47.128 75-106 75z" fill="#fabe2c"/></g></g><path d="m350.438 67.866c-26.367-19.482-51.269-37.866-94.438-37.866s-68.071 18.384-94.438 37.866c-33.091 24.434-71.591 52.134-161.562 52.134v30c96.724 0 140.058-10.415 174.057-18.794 24.433-6.006 45.527-11.206 81.943-11.206s57.51 5.2 81.943 11.206c33.999 8.379 77.333 18.794 174.057 18.794v-30c-89.971 0-128.471-27.7-161.562-52.134z" fill="#fed843"/><path d="m512 150v-30c-89.971 0-128.471-27.7-161.562-52.134-26.367-19.482-51.269-37.866-94.438-37.866v90c36.416 0 57.51 5.2 81.943 11.206 33.999 8.379 77.333 18.794 174.057 18.794z" fill="#fabe2c"/><path d="m271 422h-15-15l-124.57 90h139.57 139.541z" fill="#fed843"/><path d="m271 422h-15v90h139.541z" fill="#fabe2c"/></g></svg>