<svg height="511pt" viewBox="1 -3 511.99975 511" width="511pt" xmlns="http://www.w3.org/2000/svg"><path d="m90.765625 56.3125c4.378906 30.6875 5.652344 61.742188 3.796875 92.6875l-1.820312 30.332031c10.457031 10.390625 37.105468 7.292969 42.453124-7.144531 17.765626-47.996094-1.039062-104.296875-39.597656-142.855469l-10.128906-10.128906zm0 0" fill="#ffd508"/><path d="m406.539062 69.863281c-23.144531-22.460937-50.714843-40.433593-81.167968-52.449219 10.652344 50.625 9.058594 123.609376 18.105468 174.535157 14.695313 82.699219 38.71875 143.574219 49.167969 226.941406l1.0625 8.5c26.175781-21.953125 47.628907-49.347656 62.617188-80.445313-7.253907-49.996093-9.453125-101.585937-18.511719-151.28125-7.773438-42.636718-22.175781-83.421874-31.273438-125.800781zm0 0" fill="#738c96"/><path d="m306.972656 473.972656-13.726562-61.25c-47.605469-106.054687-103.121094-189.003906-158.101563-291.398437.457031 17.136719-2.328125 34.34375-8.355469 50.621093-.84375 2.285157-2.011718 4.289063-3.421874 6.007813.066406-.082031.132812-.164063.199218-.246094 23.4375 66.996094 36.488282 133.109375 57.011719 201.078125l40.230469 105.019532h17.707031c24.277344 0 47.71875-3.582032 69.824219-10.242188-.453125.136719-.910156.273438-1.367188.410156zm0 0" fill="#738c96"/><g fill="#607882"><path d="m323.867188 16.828125c40.84375 25.457031 73.78125 62.5625 93.789062 106.535156-3.589844-17.855469-7.292969-35.6875-11.117188-53.496093-23.527343-22.832032-51.621093-41.023438-82.671874-53.039063zm0 0"/><path d="m456.324219 346.945312c-1.144531-7.875-2.308594-15.75-3.496094-23.621093-3.207031-21.246094-6.578125-42.464844-10.113281-63.65625-5.734375 8.890625-10.199219 18.574219-13.144532 28.808593-8.847656 30.761719-23.640624 59.003907-43.054687 83.40625 1.316406 9.757813-.984375 22.335938 0 29.898438 1.332031 10.28125 5.867187 15.039062 7.191406 25.597656v.011719c26.175781-21.949219 47.628907-49.347656 62.617188-80.445313zm0 0"/><path d="m214.40625 462.605469v13.535156l6.402344 7.664063h17.707031c23.777344 0 46.753906-3.433594 68.457031-9.832032l-2.546875-11.378906-11.171875-19.1875c-24.453125 10.585938-51 17.25-78.847656 19.199219zm0 0"/></g><path d="m97.15625 307.257812c-1.085938-21.710937 14.546875-43.414062 13.175781-65.105468-1.425781-22.574219-19.871093-45.136719-21.609375-67.691406-12.484375-15.515626-28.953125-27.691407-47.855468-34.964844-19.714844-7.585938-40.867188 7.324218-40.867188 28.453125v155.40625c0 21.429687 21.5625 36.226562 41.511719 28.40625 20.675781-8.101563 38.402343-22.078125 51.128906-39.871094 1.308594-1.832031 2.84375-3.382813 4.53125-4.648437-.003906.003906-.011719.011718-.015625.015624zm0 0" fill="#738c96"/><path d="m325.371094 17.414062c-27.644532-10.910156-57.671875-16.914062-88.925782-16.914062h-158.230468c-4.226563 0-6.34375 5.109375-3.355469 8.097656l20.738281 20.734375c25.480469 25.480469 38.664063 58.605469 39.546875 91.992188 54.976563 102.394531 106.320313 206.714843 153.925781 312.769531l17.902344 39.875c32.226563-9.5 61.648438-25.539062 86.734375-46.578125l-1.0625-8.5c-16.882812-134.707031-39.324219-268.648437-67.273437-401.476563zm0 0" fill="#ffe565"/><path d="m293.246094 443.398438 13.722656 30.566406c30.664062-9.027344 60.429688-24.519532 86.738281-46.585938-2.296875-18.324218-4.082031-32.472656-7.195312-55.511718-24.578125 30.898437-56.558594 55.636718-93.265625 71.53125zm0 0" fill="#ffd508"/><path d="m323.902344 16.851562c.527344.328126 1.039062.667969 1.5625.996094-.03125-.136718-.058594-.273437-.085938-.410156-.363281-.140625-.71875-.292969-1.082031-.4375-.132813-.050781-.261719-.097656-.394531-.148438zm0 0" fill="#ffd508"/><path d="m123.566406 177.707031c-8.035156 10.121094-24.300781 10.570313-32.835937-.679687-.65625-.867188-1.328125-1.71875-2.007813-2.566406 3.410156 44.222656 6.21875 88.492187 8.433594 132.796874 8.488281-6.375 20.894531-5.539062 28.234375 3.074219 36.554687 42.90625 42.273437 104.128907 14.296875 153.058594l-7.609375 13.316406c-1.808594 3.160157.472656 7.097657 4.117187 7.097657h84.617188l-31.292969-103.625c-20.527343-67.96875-42.515625-135.476563-65.953125-202.472657zm0 0" fill="#ffe565"/><path d="m139.792969 463.199219c-2.726563 4.792969-7.601563 13.273437-7.859375 13.800781-1.527344 3.132812.746094 6.804688 4.257812 6.804688h84.617188l-6.40625-21.210938c-11.535156.808594-12.144532.605469-74.609375.605469zm0 0" fill="#ffd508"/><path d="m324.824219 287.027344-55.355469 9.664062c-13.375 2.332032-26.214844-6.289062-29.113281-19.550781l-15.589844-71.304687c-2.746094-12.5625 10.289063-22.703126 21.789063-16.953126l86.320312 43.160157c9.910156 4.953125 16.171875 15.082031 16.171875 26.164062 0 14.21875-10.222656 26.375-24.222656 28.820313zm0 0" fill="#8bacde"/><path d="m332.875 232.042969-18.890625-9.445313c2.664063 4.457032 4.15625 9.617188 4.15625 15.007813 0 14.214843-10.21875 26.371093-24.222656 28.816406l-53.847657 9.402344.285157 1.316406c2.902343 13.261719 15.738281 21.882813 29.113281 19.550781l55.355469-9.664062c14.003906-2.445313 24.222656-14.601563 24.222656-28.820313 0-11.078125-6.261719-21.207031-16.171875-26.164062zm0 0" fill="#739ad6"/><path d="m507.453125 253.125c6.0625-6.058594 6.0625-15.886719 0-21.945312l-8.320313-8.320313c-13.304687-13.308594-23.296874-29.636719-28.625-47.683594-11.925781-40.417969-34.320312-76.546875-63.96875-105.3125 19.703126 91.777344 36.304688 184.191407 49.785157 277.082031 5.828125-12.09375 10.683593-24.75 14.453125-37.863281 5.195312-18.050781 15.113281-34.390625 28.398437-47.671875zm0 0" fill="#fff5f5"/><path d="m470.507812 175.164062c-11.480468-38.898437-33.175781-75.398437-63.960937-105.277343 3.820313 17.804687 7.523437 35.632812 11.109375 53.484375 4.578125 10.058594 8.480469 20.476562 11.644531 31.199218 5.328125 18.046876 15.316407 34.375 28.625 47.683594l8.320313 8.320313c6.0625 6.058593 6.0625 15.886719 0 21.949219l-8.28125 8.277343c-5.75 5.753907-10.867188 12.082031-15.246094 18.867188 4.839844 29.035156 9.375 58.125 13.601562 87.257812 5.777344-11.984375 10.605469-24.492187 14.457032-37.847656 5.195312-18.050781 15.113281-34.390625 28.394531-47.671875l8.28125-8.28125c5.574219-5.574219 6.105469-14.589844 1.066406-20.769531-.679687-.835938-.285156-.402344-9.386719-9.5-14.011718-14.011719-23.757812-30.894531-28.625-47.691407zm0 0" fill="#ebe1dc"/><path d="m368.382812 445.976562-6.0625 45.671876c-1.3125 9.882812 9.351563 16.996093 17.929688 11.914062 80.261719-47.523438 70.863281-135.472656 69.699219-144.308594-19.566407 35.25-47.6875 65.09375-81.566407 86.722656zm0 0" fill="#738c96"/><path d="m508.613281 251.828125c3.492188-4.386719 4.320313-10.332031 2.273438-15.453125h-36.261719c-4.269531 0-7.726562 3.457031-7.726562 7.726562 0 4.265626 3.460937 7.726563 7.726562 7.726563zm0 0" fill="#dcd2cd"/><path d="m36.175781 207.28125c4.269531 0 7.726563-3.457031 7.726563-7.722656 0-4.269532-3.460938-7.726563-7.726563-7.726563h-36.175781v15.453125h36.175781zm0 0" fill="#607882"/><path d="m43.902344 244.101562c0-4.265624-3.460938-7.726562-7.726563-7.726562h-36.175781v15.453125h36.175781c4.269531 0 7.726563-3.460937 7.726563-7.726563zm0 0" fill="#607882"/><path d="m43.902344 288.648438c0-4.269532-3.460938-7.726563-7.726563-7.726563h-36.175781v15.453125h36.175781c4.269531 0 7.726563-3.460938 7.726563-7.726562zm0 0" fill="#607882"/><path d="m263.027344 222.277344h-32.976563c-.570312 0-1.121093.0625-1.652343.175781l3.339843 15.277344h31.289063c4.269531 0 7.726562-3.460938 7.726562-7.726563s-3.457031-7.726562-7.726562-7.726562zm0 0" fill="#739ad6"/><path d="m263.027344 254.03125h-26.035156c-.566407 0-1.121094.0625-1.652344.175781l3.339844 15.277344h24.347656c4.269531 0 7.726562-3.460937 7.726562-7.726563 0-4.265624-3.457031-7.726562-7.726562-7.726562zm0 0" fill="#739ad6"/></svg>