<svg id="Capa_1" enable-background="new 0 0 512 512" height="512" viewBox="0 0 512 512" width="512" xmlns="http://www.w3.org/2000/svg"><g><g><path d="m480 365.568h-448l15.085-47.969c0-123.712 101.628-224 208.915-224 123.712 0 224 100.288 224 224z" fill="#fee07d"/><path d="m305.91 118.71-20.38 198.89h-120.63l-17.83-174.12c-50.67 41.07-83.07 103.81-83.07 174.12v47.97h-32v-47.97c0-61.86 25.07-117.86 65.61-158.39 26.671-26.664 60.187-46.666 96.51-56.95 33.184-9.396 69.782-11.212 103.87-4.73 5.51 5.38 8.59 13.07 7.92 21.18z" fill="#ffcf64"/><path d="m215.33 97.29c2.36-.44 4.74-.84 7.13-1.19-2.39.36-4.77.75-7.13 1.19z" fill="#ffcf64"/><path d="m112 360.403h-48v-35.804c0-3.866 3.134-7 7-7h34c3.866 0 7 3.134 7 7z" fill="#ffb22a"/><path d="m101 317.599h-30c-3.866 0-7 3.134-7 7v35.804h30v-35.804c0-3.866 3.134-7 7-7z" fill="#f9a319"/><path d="m448 360.403h-48v-35.804c0-3.866 3.134-7 7-7h34c3.866 0 7 3.134 7 7z" fill="#ffb22a"/><path d="m437 317.599h-30c-3.866 0-7 3.134-7 7v35.804h30v-35.804c0-3.866 3.134-7 7-7z" fill="#f9a319"/><path d="m498.388 397.599h-482.388v-41.891c0-3.374 2.735-6.109 6.109-6.109h470.169c3.374 0 6.109 2.735 6.109 6.109v41.891z" fill="#ffb22a"/><path d="m53.015 349.599h-30.906c-3.374 0-6.109 2.735-6.109 6.109v41.94h30.906v-41.94c0-3.374 2.735-6.109 6.109-6.109z" fill="#f9a319"/><path d="m321.174 301.568c0-53.063-43.016-96.08-96.08-96.08s-96.08 43.016-96.08 96.08c0 24.582 9.232 47.008 24.418 64h143.324c15.186-16.992 24.418-39.418 24.418-64z" fill="#ffcf64"/><path d="m355.84 234.641 11.423-111.499c-32.78-18.797-70.766-29.543-111.263-29.543-14.28 0-28.247 1.336-41.784 3.89-5.496 5.384-8.56 13.054-7.885 21.156l11.86 115.77c-16.93 17.321-27.364 41.018-27.364 67.153 0 24.582 9.232 47.008 24.418 64h143.324c15.186-16.992 24.418-39.418 24.418-64-.002-26.021-10.346-49.626-27.147-66.927z" fill="#ffcf64"/><path d="m195.806 317.599h120.63l20.376-198.886c1.054-12.655-7.015-24.254-19.227-27.739-19.566-5.583-40.226-8.572-61.584-8.572-21.265 0-41.837 2.963-61.327 8.499-12.224 3.472-20.303 15.081-19.248 27.745z" fill="#ffb22a"/><path d="m498.388 429.599h-459.216c-7.518 0-27.718-6.611-27.718-14.128l.408-16.916c0-7.518 20.405-16.956 27.922-16.956h458.605c7.518 0 13.612 6.094 13.612 13.612v20.776c-.001 7.517-6.095 13.612-13.613 13.612z" fill="#fee07d"/><path d="m30.906 415.987v-20.777c0-7.518 6.094-13.612 13.612-13.612h-30.906c-7.518.001-13.612 6.095-13.612 13.612v20.776c0 7.518 6.094 13.612 13.612 13.612h30.906c-7.518.001-13.612-6.094-13.612-13.611z" fill="#ffcf64"/><g fill="#f9a319"><path d="m256 174.583c-11.186 0-21.925 1.912-31.909 5.426-5.636 1.984-11.652-1.734-12.261-7.677l-5.5-53.686c-1.055-12.663 7.024-24.273 19.248-27.745 14.729-4.184 30.077-6.897 45.874-7.974-5.106-.348-10.258-.525-15.452-.525-21.265 0-41.837 2.963-61.327 8.499-12.224 3.472-20.303 15.081-19.248 27.745l9.006 87.914 11.375 111.04h120.63l11.351-110.796c-17.598-19.77-43.238-32.221-71.787-32.221z"/><path d="m308.325 349.599h-166.461c7.426 12.84 17.738 23.803 30.049 32h106.365c12.31-8.198 22.621-19.16 30.047-32z"/><path d="m370.136 349.599h-166.461c7.426 12.84 17.738 23.803 30.049 32h106.365c12.31-8.198 22.622-19.16 30.047-32z"/></g><path d="m171.709 381.599c18.921 21.273 50.775 32 84.291 32s65.48-10.727 84.482-32z" fill="#ffcf64"/><circle cx="256" cy="301.568" fill="#685e68" r="96.08"/><path d="m191.92 301.568c0-47.612 34.632-87.135 80.08-94.753-5.203-.872-10.549-1.327-16-1.327-53.063 0-96.08 43.016-96.08 96.08s43.016 96.08 96.08 96.08c5.451 0 10.797-.454 16-1.327-45.448-7.618-80.08-47.141-80.08-94.753z" fill="#554e56"/><circle cx="256" cy="301.568" fill="#d2e4f9" r="64"/><path d="m222.906 301.568c0-30.018 20.666-55.209 48.547-62.122-4.949-1.227-10.125-1.878-15.453-1.878-35.346 0-64 28.654-64 64s28.654 64 64 64c5.328 0 10.504-.651 15.453-1.878-27.881-6.913-48.547-32.104-48.547-62.122z" fill="#bbd3ea"/></g><g><g><path d="m223.97 309.294c-4.267 0-7.726-3.459-7.726-7.726 0-21.922 17.835-39.757 39.757-39.757 4.268 0 7.726 3.459 7.726 7.726s-3.459 7.726-7.726 7.726c-13.402 0-24.304 10.902-24.304 24.304-.001 4.268-3.46 7.727-7.727 7.727z" fill="#698ed5"/></g></g></g></svg>