<svg id="Capa_1" enable-background="new 0 0 512 512" height="512" viewBox="0 0 512 512" width="512" xmlns="http://www.w3.org/2000/svg"><g><g><path d="m224 418.309h64v70.81h-64z" fill="#bce098"/><path d="m298.822 436.617h-85.645c-3.866 0-7-3.134-7-7v-29.617h99.645v29.617c0 3.866-3.134 7-7 7z" fill="#685e68"/><path d="m236.178 429.617v-29.617h-30v29.617c0 3.866 3.134 7 7 7h30c-3.866 0-7-3.134-7-7z" fill="#554e56"/><path d="m313 512h-114c-3.866 0-7-3.134-7-7v-25.417c0-3.866 3.134-7 7-7h114c3.866 0 7 3.134 7 7v25.417c0 3.866-3.134 7-7 7z" fill="#685e68"/><path d="m222 505v-25.417c0-3.866 3.134-7 7-7h-30c-3.866 0-7 3.134-7 7v25.417c0 3.866 3.134 7 7 7h30c-3.866 0-7-3.134-7-7z" fill="#554e56"/><circle cx="256" cy="203.102" fill="#685e68" r="203.102"/><path d="m84.898 203.102c0-106.785 82.411-194.321 187.102-202.48-5.279-.412-10.615-.622-16-.622-112.17 0-203.102 90.932-203.102 203.102s90.932 203.101 203.102 203.101c5.385 0 10.721-.21 16-.622-104.691-8.158-187.102-95.694-187.102-202.479z" fill="#554e56"/><circle cx="256" cy="203.102" fill="#d2e4f9" r="171.102"/><path d="m115.804 203.102c0-89.288 68.393-162.602 155.649-170.413-5.09-.456-10.244-.689-15.453-.689-94.497 0-171.102 76.605-171.102 171.102s76.605 171.101 171.102 171.101c5.209 0 10.363-.233 15.453-.689-87.256-7.81-155.649-81.124-155.649-170.412z" fill="#bbd3ea"/><path d="m306.641 254.631c-6.248 6.248-16.379 6.248-22.627 0l-122.315-122.315c-6.248-6.248-6.248-16.379 0-22.627 6.248-6.248 16.379-6.248 22.627 0l122.315 122.315c6.248 6.248 6.248 16.378 0 22.627z" fill="#de6a66"/><path d="m395.99 196.263h-9.338c-1.573-30.392-13.565-58.073-32.465-79.533l6.265-6.265c3.018-3.018 3.018-7.91 0-10.927-3.017-3.018-7.91-3.017-10.927 0l-6.213 6.213c-21.381-19.196-49.098-31.468-79.585-33.252v-8.499c0-4.267-3.459-7.726-7.726-7.726s-7.726 3.459-7.726 7.726v8.496c-25.965 1.495-50.479 10.526-71.316 26.347-.114.087-.226.176-.335.269l-13.304 11.32c-.334.285-.643.597-.925.934l-11.062 13.254c-.09.108-.178.218-.262.331-15.578 20.884-24.403 45.412-25.724 71.313h-9.336c-4.267 0-7.726 3.459-7.726 7.726s3.459 7.726 7.726 7.726h9.439c1.894 29.365 13.455 56.838 33.154 78.743l-7.055 7.055c-3.018 3.017-3.018 7.91 0 10.927 1.509 1.509 3.486 2.263 5.463 2.263s3.955-.755 5.463-2.263l11.313-11.313c.489-.489.898-1.027 1.228-1.598 2.69-3.043 2.571-7.693-.347-10.593-21.955-21.82-34.046-50.883-34.046-81.835 0-24.99 7.851-48.755 22.707-68.746l10.503-12.583 12.636-10.751c20.148-15.24 44.186-23.295 69.529-23.295 63.618 0 115.375 51.757 115.375 115.375 0 30.966-12.1 60.038-34.072 81.861-2.965 2.945-3.042 7.696-.221 10.735.312.509.688.989 1.128 1.43l11.313 11.313c1.509 1.509 3.486 2.263 5.463 2.263s3.955-.755 5.463-2.263c3.018-3.017 3.018-7.91 0-10.927l-7.055-7.055c19.699-21.904 31.261-49.377 33.155-78.743h9.439c4.267 0 7.726-3.459 7.726-7.726s-3.455-7.727-7.722-7.727z" fill="#685e68"/><path d="m192.604 132.316c-4.787-4.787-5.907-11.854-3.358-17.707l-4.92-4.92c-6.248-6.248-16.379-6.248-22.627 0s-6.248 16.379 0 22.627l122.315 122.315c6.248 6.248 16.379 6.248 22.627 0 1.461-1.461 2.58-3.134 3.358-4.92z" fill="#d15d5d"/><circle cx="256" cy="203.102" fill="#685e68" r="26.034"/><path d="m260.872 203.102c0-8.592 4.163-16.211 10.581-20.953-4.322-3.193-9.667-5.081-15.453-5.081-14.378 0-26.034 11.656-26.034 26.034s11.656 26.034 26.034 26.034c5.786 0 11.131-1.888 15.453-5.081-6.418-4.742-10.581-12.361-10.581-20.953z" fill="#554e56"/></g></g></svg>