<svg id="Layer_1" enable-background="new 0 0 491.5 491.5" height="512" viewBox="0 0 491.5 491.5" width="512" xmlns="http://www.w3.org/2000/svg"><g><path d="m426 117.5c2.8 0 5-2.2 5-5s-2.2-5-5-5h-10.5c-5 0-9.5 2-12.8 5.3s-5.3 7.8-5.3 12.8v109.8c0 2.8 2.2 5 5 5s5-2.2 5-5v-109.9c0-2.2.9-4.2 2.4-5.7s3.5-2.4 5.7-2.4z" fill="#fd481e"/><g clip-rule="evenodd" fill-rule="evenodd"><path d="m459.9 277.6-17.5-7.2-16.2 7.2c-2.8 52.6 1 106.3 9.6 149.6h14.5c8.6-43.3 12.4-97 9.6-149.6z" fill="#fd481e"/><path d="m73.4 61.8h288.2v368h-288.2z" fill="#0087ff" transform="matrix(.966 -.259 .259 .966 -56.192 64.662)"/><path d="m73.4 61.7h288.2v368h-288.2z" fill="#62dbfb"/><path d="m118.3 88.4h198.5v45.6h-198.5z" fill="#f9f9f9"/></g><g fill="#f9f9f9"><path d="m155.4 161.5c-2.7 0-4.8 2.1-4.8 4.8s2.1 4.8 4.8 4.8h124.3c2.7 0 4.8-2.1 4.8-4.8s-2.1-4.8-4.8-4.8z"/><path d="m273.8 402.3c-.4 2.6 1.4 5 4.1 5.4 2.6.4 5-1.4 5.4-4.1.4-2.6 1.1-4.4 2.1-5.5.5-.5 1.1-.9 1.7-1.1.8-.2 1.7-.3 2.7-.1 3.3.5 7.2 2.6 11.1 6.2-.2.3 3.9 2.8 6.8-.3.7-.8 1.1-1.7 1.2-2.7 1.3-6.6 3.1-11 5.4-13.5 1.1-1.2 2.1-1.8 3.2-1.9s2.4.3 3.9 1.3c3.2 2.1 6.5 6.4 9.4 12.5 1.1 2.4 4 3.4 6.4 2.3s3.4-4 2.3-6.4c-3.6-7.8-8.1-13.4-12.7-16.5-3.3-2.2-6.6-3.1-10-2.8-3.5.3-6.7 1.9-9.4 5-2.3 2.6-4.4 6.3-5.9 11.2-3.4-2.1-6.9-3.5-10.1-4-2.4-.3-4.7-.2-6.9.5-2.3.7-4.3 2-6 3.8-2.5 2.6-4.1 6.1-4.7 10.7z"/><path d="m100.1 197.9c-2.7 0-4.8 2.1-4.8 4.8s2.1 4.8 4.8 4.8h234.8c2.7 0 4.8-2.1 4.8-4.8s-2.1-4.8-4.8-4.8z"/><path d="m100.1 234.3c-2.7 0-4.8 2.1-4.8 4.8s2.1 4.8 4.8 4.8h234.8c2.7 0 4.8-2.1 4.8-4.8s-2.1-4.8-4.8-4.8z"/><path d="m100.1 270.7c-2.7 0-4.8 2.1-4.8 4.8s2.1 4.8 4.8 4.8h234.8c2.7 0 4.8-2.1 4.8-4.8s-2.1-4.8-4.8-4.8z"/><path d="m100.1 307.1c-2.7 0-4.8 2.1-4.8 4.8s2.1 4.8 4.8 4.8h234.8c2.7 0 4.8-2.1 4.8-4.8s-2.1-4.8-4.8-4.8z"/><path d="m100.1 343.5c-2.7 0-4.8 2.1-4.8 4.8s2.1 4.8 4.8 4.8h78.8c2.7 0 4.8-2.1 4.8-4.8s-2.1-4.8-4.8-4.8z"/></g><path clip-rule="evenodd" d="m433.5 100.8h19.1v-31.1c0-7.4-19.1-7.4-19.1 0z" fill="#fd481e" fill-rule="evenodd"/><path clip-rule="evenodd" d="m426.2 97.2h33.7v180.4h-33.7z" fill="#df301d" fill-rule="evenodd"/></g></svg>