<svg id="Capa_1" enable-background="new 0 0 512 512" height="512" viewBox="0 0 512 512" width="512" xmlns="http://www.w3.org/2000/svg"><g><path d="m492.452 338.678h-157.662v-78.935l-9.503-13.116 9.503-18.346v-55.986c0-3.866 3.134-7 7-7h16.933l8.064 5.601 7.159-5.601h32.064l8.079 5.601 7.144-5.601h64.219c3.866 0 7 3.134 7 7z" fill="#d2e4f9"/><path d="m406.01 165.295v16.913c0 3.866-3.134 7-7 7h-18.064c-3.866 0-7-3.134-7-7v-16.913h-15.223v167.588c0 2.322 1.039 4.4 2.678 5.796h9.868c1.638-1.396 2.678-3.474 2.678-5.796v-26.879c0-3.866 3.134-7 7-7h18.064c3.866 0 7 3.134 7 7v26.879c0 2.322 1.039 4.4 2.678 5.796h9.868c1.638-1.396 2.678-3.474 2.678-5.796v-167.588zm-7 118.485h-18.064c-3.866 0-7-3.134-7-7v-2.3c0-3.866 3.134-7 7-7h18.064c3.866 0 7 3.134 7 7v2.3c0 3.866-3.134 7-7 7zm0-31.523h-18.064c-3.866 0-7-3.134-7-7v-2.301c0-3.866 3.134-7 7-7h18.064c3.866 0 7 3.134 7 7v2.301c0 3.866-3.134 7-7 7zm0-31.525h-18.064c-3.866 0-7-3.134-7-7v-2.301c0-3.866 3.134-7 7-7h18.064c3.866 0 7 3.134 7 7v2.301c0 3.866-3.134 7-7 7z" fill="#685e68"/><path d="m105.762 5.765c-.847-3.388-3.891-5.765-7.383-5.765h-31.525c-3.493 0-6.537 2.377-7.384 5.765l-31.524 126.097c-.453 1.663-.268 3.797.775 5.622 2.088 3.657 6.745 4.912 10.385 2.832l69.443-39.682c2.301-1.315 5.222-.069 5.865 2.503l10.964 43.853c.865 3.458 3.968 5.767 7.378 5.767 5.094 0 8.557-4.795 7.39-9.46zm-12.569 12.488 2.075 8.301c.631 2.525-1.278 4.97-3.881 4.97h-17.542c-2.602 0-4.512-2.446-3.881-4.97l2.075-8.301c.445-1.781 2.045-3.03 3.881-3.03h13.392c1.836 0 3.436 1.249 3.881 3.03zm-43.879 90.903 12.655-50.62c.707-2.828 4.103-3.974 6.379-2.153l31.637 25.309c2.205 1.764 1.937 5.195-.514 6.596l-44.292 25.312c-3.058 1.747-6.719-1.026-5.865-4.444zm37.06-62.408h10.82c1.835 0 3.435 1.249 3.881 3.03l2.717 10.866c.464 1.857-1.695 3.243-3.19 2.047l-15.478-12.382c-1.476-1.181-.641-3.561 1.25-3.561z" fill="#d2e4f9"/><path d="m501.194 512h-245.194l-15.58-15.762-15.944 15.762h-213.67c-3.866 0-7-3.134-7-7v-150.653l15.762-15.669h472.884l15.742 15.669v150.653c0 3.866-3.134 7-7 7z" fill="#b5adb6"/><path d="m19.568 154.576h267.956v184.102h-267.956z" fill="#d2e4f9"/><path d="m192.951 338.678h-141.859v-134.859c0-3.866 3.134-7 7-7h127.859c3.866 0 7 3.134 7 7z" fill="#685e68"/><path d="m81.092 233.819c0-3.866 3.134-7 7-7h104.859v-23c0-3.866-3.134-7-7-7h-127.859c-3.866 0-7 3.134-7 7v134.859h30z" fill="#554e56"/><path d="m508.194 354.347-15.742-15.669h-472.884l-15.762 15.669v150.653c0 3.866 3.134 7 7 7h23.446v-112.113c0-8.284 6.716-15 15-15h458.942z" fill="#a79ba7"/><path d="m508.194 354.441h-504.388v-24.524c0-3.866 3.134-7 7-7h490.388c3.866 0 7 3.134 7 7z" fill="#ffb22a"/><path d="m40.806 322.916h-30c-3.866 0-7 3.134-7 7v24.524h30v-24.524c0-3.866 3.134-7 7-7z" fill="#f9a319"/><path d="m334.79 228.344h-87.38c-12.666 0-22.934 10.268-22.934 22.934v260.722h31.524v-243.383c0-4.832 3.917-8.749 8.749-8.749h70.042v-31.524z" fill="#685e68"/><path d="m256 251.277c0-12.666 10.268-22.934 22.934-22.934h-31.524c-12.666 0-22.934 10.268-22.934 22.934v260.723h31.524z" fill="#554e56"/><path d="m296.286 165.295h-285.48c-3.866 0-7-3.134-7-7v-17.524c0-3.866 3.134-7 7-7h285.481c3.866 0 7 3.134 7 7v17.524c-.001 3.866-3.135 7-7.001 7z" fill="#ffb22a"/><path d="m33.806 158.295v-17.524c0-3.866 3.134-7 7-7h-30c-3.866 0-7 3.134-7 7v17.524c0 3.866 3.134 7 7 7h30c-3.866 0-7-3.134-7-7z" fill="#f9a319"/><circle cx="82.616" cy="401.665" fill="#ffb22a" r="15.762"/><circle cx="319.049" cy="464.714" fill="#ffb22a" r="15.762"/><circle cx="450.445" cy="401.644" fill="#ffb22a" r="15.762"/><g fill="#a79ba7"><path d="m161.429 378.292c-4.255 0-7.616 3.471-7.616 7.612 0 4.299 3.534 7.612 7.612 7.612 4.27 0 7.612-3.472 7.612-7.612-.001-4.213-3.417-7.612-7.608-7.612z"/><path d="m334.79 378.272c-4.26 0-7.617 3.489-7.617 7.611 0 4.507 3.734 7.612 7.621 7.612 4.15 0 7.612-3.378 7.612-7.612 0-4.139-3.36-7.611-7.616-7.611z"/><path d="m382.064 441.344c-4.072 0-7.578 3.33-7.578 7.604 0 4.107 3.303 7.612 7.612 7.612 4.323 0 7.612-3.541 7.612-7.612 0-4.705-3.92-7.604-7.646-7.604z"/><path d="m449.012 472.866c-4.093 0-7.585 3.343-7.585 7.613 0 4.241 3.451 7.602 7.612 7.602 4.158 0 7.612-3.358 7.612-7.602 0-4.222-3.427-7.613-7.639-7.613z"/><path d="m182.985 451.858c-4.188 0-7.606 3.389-7.606 7.615 0 4.569 3.778 7.612 7.612 7.612 4.199 0 7.601-3.411 7.601-7.612-.001-4.235-3.428-7.615-7.607-7.615z"/><path d="m98.36 472.868c-4.239 0-7.612 3.426-7.612 7.612 0 4.225 3.418 7.602 7.612 7.602 4.144 0 7.612-3.339 7.612-7.602-.001-4.21-3.409-7.612-7.612-7.612z"/><path d="m35.331 441.336c-4.106 0-7.607 3.334-7.607 7.612 0 4.225 3.419 7.612 7.602 7.612 4.109 0 7.612-3.298 7.612-7.612-.001-4.237-3.437-7.612-7.607-7.612z"/></g></g></svg>