<svg id="Capa_1" enable-background="new 0 0 512 512" height="512" viewBox="0 0 512 512" width="512" xmlns="http://www.w3.org/2000/svg"><g><path d="m423.935 507.798-32.734-19.919c-1.779-1.083-4.014-1.083-5.793 0l-38.301 23.309c-1.779 1.083-4.013 1.083-5.793 0l-38.306-23.31c-1.779-1.083-4.013-1.083-5.792 0l-38.307 23.31c-1.779 1.083-4.013 1.083-5.792 0l-38.309-23.31c-1.779-1.082-4.013-1.082-5.792 0l-38.308 23.31c-1.779 1.082-4.013 1.083-5.792 0l-38.314-23.311c-1.779-1.082-4.013-1.082-5.792 0l-32.743 19.921c-3.713 2.259-8.467-.414-8.467-4.76v-435.593c0-11.588 9.394-20.981 20.981-20.981h310.842c11.588 0 20.982 9.394 20.982 20.981v435.594c-.002 4.345-4.757 7.018-8.47 4.759z" fill="#e6f6ff"/><g><path d="m411.421 46.463h-23.861c11.588 0 20.982 9.394 20.982 20.982v430.985l15.394 9.367c3.713 2.259 8.468-.414 8.468-4.76v-435.592c-.001-11.588-9.395-20.982-20.983-20.982z" fill="#d1edff"/></g><g><circle cx="256" cy="69.519" fill="#ffea76" r="69.519"/><path d="m256 0c-4.165 0-8.237.387-12.2 1.089 32.574 5.77 57.319 34.2 57.319 68.43 0 34.229-24.746 62.66-57.319 68.43 3.963.702 8.035 1.089 12.2 1.089 38.394 0 69.519-31.125 69.519-69.519s-31.125-69.519-69.519-69.519z" fill="#ffe54c"/><path d="m276.254 75.544c0 11.186-9.068 20.254-20.254 20.254s-20.254-9.068-20.254-20.254 9.068-32.303 20.254-32.303 20.254 21.117 20.254 32.303z" fill="#6c5e69"/></g><path d="m364.549 375.213c-1.821-.644-3.68-1.315-5.537-2.013v-31.43c5.167 1.055 8.384 3.299 8.673 3.507 3.407 2.535 8.222 1.854 10.79-1.535 2.582-3.408 1.913-8.263-1.494-10.845-.419-.317-7.274-5.388-17.969-6.788v-5.669c0-4.276-3.465-7.741-7.741-7.741s-7.741 3.465-7.741 7.741v6.519c-.834.2-1.674.417-2.528.674-10.173 3.065-17.772 11.761-19.833 22.696-1.884 9.998 1.337 19.653 8.407 25.198 3.571 2.8 7.977 5.366 13.953 8.058v39.919c-4.917-.474-8.261-1.837-13.774-5.443-3.578-2.339-8.376-1.337-10.715 2.241-2.34 3.577-1.337 8.375 2.241 10.715 8.686 5.682 14.705 7.498 22.248 8.013v6.676c0 4.276 3.465 7.741 7.741 7.741s7.741-3.465 7.741-7.741v-7.37c14.884-3.353 24.441-15.877 26.518-28.23 2.649-15.756-5.586-29.451-20.98-34.893zm-25.417-11.868c-2.467-1.934-3.546-5.918-2.749-10.149.677-3.591 2.901-7.851 7.147-9.972v23.029c-1.631-.938-3.122-1.907-4.398-2.908zm31.13 44.194c-.963 5.729-4.786 11.791-11.25 14.594v-32.459c.128.046.249.089.378.135 12.132 4.289 11.389 14.655 10.872 17.73z" fill="#ff6c53"/><g><path d="m372.124 184.583h-232.249c-4.276 0-7.741-3.465-7.741-7.741s3.465-7.741 7.741-7.741h232.249c4.276 0 7.741 3.465 7.741 7.741s-3.465 7.741-7.741 7.741z" fill="#6c5e69"/></g><g><path d="m372.124 224.58h-232.249c-4.276 0-7.741-3.465-7.741-7.741s3.465-7.741 7.741-7.741h232.249c4.276 0 7.741 3.465 7.741 7.741s-3.465 7.741-7.741 7.741z" fill="#6c5e69"/></g><g><path d="m372.124 264.576h-232.249c-4.276 0-7.741-3.465-7.741-7.741s3.465-7.741 7.741-7.741h232.249c4.276 0 7.741 3.465 7.741 7.741s-3.465 7.741-7.741 7.741z" fill="#6c5e69"/></g><path d="m270.634 406.822h-119.534c-4.483 0-8.117-3.634-8.117-8.117v-41.487c0-4.483 3.634-8.117 8.117-8.117h119.533c4.483 0 8.117 3.634 8.117 8.117v41.487c.001 4.483-3.633 8.117-8.116 8.117z" fill="#ff6c53"/><path d="m270.634 349.101h-22.751c4.483 0 8.117 3.634 8.117 8.117v41.487c0 4.483-3.634 8.117-8.117 8.117h22.751c4.483 0 8.117-3.634 8.117-8.117v-41.487c0-4.483-3.634-8.117-8.117-8.117z" fill="#ff534a"/></g></svg>