<?xml version="1.0" encoding="iso-8859-1"?>
<!-- Generator: Adobe Illustrator 21.0.0, SVG Export Plug-In . SVG Version: 6.00 Build 0)  -->
<svg xmlns="http://www.w3.org/2000/svg" xmlns:xlink="http://www.w3.org/1999/xlink" version="1.1" id="Capa_1" x="0px" y="0px" viewBox="0 0 497 497" style="enable-background:new 0 0 497 497;" xml:space="preserve" width="512" height="512">
<g>
	<path style="fill:#C6C5CA;" d="M492.52,214.808l-28.23-3.529c-2.211-0.276-3.969-1.956-4.395-4.143   c-1.904-9.783-4.47-19.329-7.65-28.591c-0.716-2.086,0.016-4.396,1.774-5.726l22.655-17.149c2.057-1.557,2.632-4.402,1.343-6.636   l-28.618-49.567c-1.29-2.234-4.041-3.158-6.418-2.155l-26.29,11.091c-2.031,0.857-4.368,0.29-5.817-1.371   c-6.484-7.436-13.47-14.422-20.906-20.906c-1.661-1.449-2.228-3.786-1.371-5.817l11.092-26.29c1.003-2.377,0.079-5.128-2.155-6.418   l-49.567-28.617c-2.234-1.29-5.079-0.714-6.636,1.342l-17.149,22.655c-1.331,1.758-3.641,2.49-5.726,1.774   c-9.262-3.18-18.808-5.746-28.591-7.65c-2.187-0.425-3.866-2.184-4.142-4.395l-3.528-28.23C281.874,1.921,279.698,0,277.118,0   h-57.235c-2.58,0-4.756,1.921-5.076,4.481l-3.529,28.23c-0.276,2.211-1.955,3.969-4.143,4.395   c-9.783,1.903-19.329,4.47-28.591,7.65c-2.086,0.716-4.395-0.016-5.726-1.774L155.67,20.326c-1.557-2.057-4.402-2.632-6.636-1.343   L99.467,47.601c-2.234,1.29-3.158,4.041-2.155,6.418l11.091,26.29c0.857,2.031,0.29,4.368-1.371,5.817   c-7.436,6.484-14.422,13.47-20.906,20.906c-1.449,1.661-3.786,2.228-5.817,1.371L54.02,97.311   c-2.377-1.003-5.128-0.079-6.418,2.155l-28.617,49.567c-1.29,2.234-0.714,5.079,1.343,6.636l22.655,17.149   c1.758,1.331,2.49,3.641,1.774,5.726c-3.18,9.262-5.746,18.808-7.65,28.591c-0.426,2.187-2.184,3.866-4.395,4.142l-28.23,3.528   C1.921,215.126,0,217.302,0,219.882v57.235c0,2.58,1.921,4.756,4.48,5.076l28.23,3.529c2.211,0.276,3.969,1.955,4.395,4.142   c1.904,9.783,4.47,19.329,7.65,28.591c0.716,2.086-0.015,4.396-1.774,5.726L20.326,341.33c-2.057,1.557-2.632,4.402-1.343,6.636   l28.618,49.567c1.29,2.234,4.041,3.158,6.418,2.155l26.29-11.092c2.031-0.857,4.368-0.29,5.817,1.371   c6.484,7.436,13.47,14.422,20.906,20.906c1.661,1.449,2.228,3.786,1.371,5.817l-11.092,26.29c-1.003,2.377-0.079,5.128,2.155,6.418   l49.567,28.617c2.234,1.29,5.079,0.714,6.636-1.342l17.149-22.655c1.331-1.758,3.641-2.49,5.726-1.774   c9.262,3.18,18.808,5.746,28.591,7.65c2.187,0.426,3.866,2.184,4.142,4.395l3.528,28.23c0.32,2.56,2.496,4.481,5.075,4.481h57.235   c2.58,0,4.756-1.921,5.076-4.48l3.529-28.23c0.276-2.211,1.956-3.969,4.143-4.395c9.783-1.904,19.329-4.47,28.591-7.65   c2.086-0.716,4.396,0.016,5.726,1.774l17.149,22.655c1.557,2.057,4.402,2.632,6.636,1.342l49.567-28.617   c2.234-1.29,3.158-4.041,2.155-6.418l-11.091-26.29c-0.857-2.031-0.29-4.368,1.371-5.817c7.436-6.484,14.422-13.47,20.906-20.906   c1.449-1.661,3.786-2.228,5.817-1.371l26.29,11.092c2.377,1.003,5.128,0.079,6.418-2.155l28.617-49.567   c1.29-2.234,0.714-5.079-1.342-6.636l-22.655-17.149c-1.758-1.331-2.49-3.641-1.773-5.726c3.18-9.262,5.746-18.808,7.65-28.591   c0.426-2.187,2.184-3.866,4.395-4.142l28.23-3.528c2.56-0.32,4.481-2.496,4.481-5.075v-57.235   C497,217.304,495.079,215.128,492.52,214.808z M248.5,281.632c-18.298,0-33.132-14.834-33.132-33.132   c0-18.298,14.834-33.132,33.132-33.132c18.298,0,33.132,14.834,33.132,33.132C281.632,266.798,266.798,281.632,248.5,281.632z"/>
	<path style="fill:#29ABE2;" d="M248.5,82.833c-91.495,0-165.667,74.172-165.667,165.667S157.005,414.167,248.5,414.167   S414.167,339.995,414.167,248.5S339.995,82.833,248.5,82.833z M248.5,281.632c-18.298,0-33.132-14.834-33.132-33.132   c0-18.298,14.834-33.132,33.132-33.132c18.298,0,33.132,14.834,33.132,33.132C281.632,266.798,266.798,281.632,248.5,281.632z"/>
	<path style="fill:#898890;" d="M248.5,115.967c-73.196,0-132.533,59.337-132.533,132.533S175.304,381.033,248.5,381.033   S381.033,321.696,381.033,248.5S321.696,115.967,248.5,115.967z M248.5,281.632c-18.298,0-33.132-14.834-33.132-33.132   c0-18.298,14.834-33.132,33.132-33.132c18.298,0,33.132,14.834,33.132,33.132C281.632,266.798,266.798,281.632,248.5,281.632z"/>
	<g>
		<path style="fill:#74747A;" d="M248.5,115.967c-3.485,0-6.937,0.136-10.354,0.4c68.357,5.283,122.179,62.421,122.179,132.133    s-53.823,126.85-122.179,132.133c3.417,0.264,6.87,0.4,10.354,0.4c73.196,0,132.533-59.337,132.533-132.533    S321.696,115.967,248.5,115.967z"/>
	</g>
	<g>
		<path style="fill:#2692D1;" d="M248.5,82.833c-3.654,0-7.277,0.131-10.872,0.364c86.426,5.6,154.795,77.461,154.795,165.302    s-68.369,159.702-154.795,165.302c3.595,0.233,7.218,0.364,10.872,0.364c91.495,0,165.667-74.171,165.667-165.667    S339.995,82.833,248.5,82.833z"/>
	</g>
	<g>
		<g>
			<g>
				<path style="fill:#898890;" d="M152.11,42.981c1.331,1.758,3.641,2.49,5.726,1.774c4.353-1.495,8.772-2.848,13.246-4.067      L155.67,20.326c-1.557-2.057-4.402-2.632-6.636-1.343l-10.5,6.062L152.11,42.981z"/>
			</g>
			<g>
				<path style="fill:#898890;" d="M492.52,214.808l-28.23-3.529c-2.211-0.276-3.969-1.956-4.395-4.143      c-1.904-9.783-4.47-19.329-7.65-28.591c-0.716-2.086,0.016-4.396,1.774-5.726l22.655-17.149      c2.057-1.557,2.632-4.402,1.343-6.636l-28.618-49.567c-1.29-2.234-4.041-3.158-6.418-2.155l-12.492,5.27l26.819,46.452      c1.29,2.234,0.714,5.079-1.343,6.636l-22.655,17.149c-1.758,1.331-2.49,3.641-1.774,5.726c3.18,9.262,5.746,18.808,7.65,28.591      c0.426,2.187,2.184,3.866,4.395,4.143l28.23,3.529c2.56,0.32,4.48,2.496,4.48,5.076v57.235c0,2.58-1.921,4.755-4.481,5.075      l-28.23,3.528c-2.211,0.276-3.969,1.956-4.395,4.142c-1.904,9.783-4.47,19.33-7.65,28.591c-0.716,2.086,0.015,4.395,1.774,5.726      l22.655,17.149c2.057,1.557,2.632,4.402,1.342,6.636l-26.819,46.452l12.492,5.271c2.377,1.003,5.128,0.079,6.418-2.155      l28.617-49.567c1.29-2.234,0.714-5.079-1.342-6.636l-22.655-17.149c-1.758-1.331-2.49-3.641-1.773-5.726      c3.18-9.262,5.746-18.808,7.65-28.591c0.426-2.187,2.184-3.866,4.395-4.142l28.23-3.528c2.56-0.32,4.481-2.496,4.481-5.075      v-57.235C497,217.304,495.079,215.128,492.52,214.808z"/>
			</g>
			<g>
				<path style="fill:#898890;" d="M376.826,47.602c2.234,1.29,3.158,4.041,2.155,6.418l-11.092,26.29      c-0.857,2.031-0.29,4.368,1.371,5.817c7.436,6.484,14.422,13.47,20.906,20.906c1.448,1.661,3.786,2.228,5.817,1.371      l11.681-4.928c-5.569-6.109-11.464-11.915-17.696-17.349c-1.661-1.449-2.228-3.786-1.371-5.817l11.092-26.29      c1.003-2.377,0.079-5.128-2.155-6.418l-49.567-28.617c-2.234-1.29-5.079-0.714-6.636,1.342l-3.573,4.72L376.826,47.602z"/>
			</g>
			<g>
				<path style="fill:#898890;" d="M59.601,108.403c2.031,0.857,4.368,0.29,5.817-1.371c1.05-1.204,2.134-2.377,3.21-3.557      L54.02,97.311c-2.377-1.003-5.128-0.079-6.418,2.155l-1.799,3.115L59.601,108.403z"/>
			</g>
			<g>
				<path style="fill:#898890;" d="M261.485,4.481l3.528,28.23c0.276,2.211,1.956,3.969,4.142,4.395      c9.783,1.904,19.33,4.47,28.591,7.65c2.086,0.716,4.395-0.015,5.726-1.774l1.736-2.293c-5.044-1.374-10.16-2.574-15.345-3.583      c-2.187-0.425-3.866-2.184-4.142-4.395l-3.528-28.23C281.874,1.921,279.698,0,277.118,0H256.41      C258.989,0,261.165,1.921,261.485,4.481z"/>
			</g>
			<g>
				<path style="fill:#898890;" d="M407.663,393.526l-11.681-4.928c-2.031-0.857-4.368-0.29-5.817,1.371      c-6.484,7.436-13.47,14.422-20.906,20.906c-1.661,1.449-2.228,3.786-1.371,5.817l11.091,26.29      c1.003,2.377,0.079,5.128-2.155,6.418l-39.067,22.555l3.573,4.72c1.557,2.057,4.402,2.632,6.636,1.342l49.567-28.617      c2.234-1.29,3.158-4.041,2.155-6.418l-11.091-26.29c-0.857-2.031-0.29-4.368,1.371-5.817      C396.2,405.44,402.094,399.634,407.663,393.526z"/>
			</g>
			<g>
				<path style="fill:#898890;" d="M303.473,454.019c-1.331-1.758-3.641-2.49-5.726-1.774c-9.262,3.18-18.808,5.746-28.591,7.65      c-2.187,0.426-3.866,2.184-4.142,4.395l-3.529,28.23c-0.32,2.56-2.496,4.48-5.076,4.48h20.708c2.58,0,4.756-1.921,5.076-4.48      l3.529-28.23c0.276-2.211,1.956-3.969,4.143-4.395c5.185-1.009,10.301-2.209,15.345-3.583L303.473,454.019z"/>
			</g>
			<g>
				<path style="fill:#898890;" d="M65.418,389.968c-1.449-1.661-3.786-2.228-5.817-1.371l-13.798,5.821l1.799,3.115      c1.29,2.234,4.041,3.158,6.418,2.155l14.608-6.163C67.552,392.345,66.467,391.172,65.418,389.968z"/>
			</g>
			<g>
				<path style="fill:#898890;" d="M157.836,452.245c-2.086-0.716-4.396,0.016-5.726,1.774l-13.577,17.935l10.5,6.062      c2.234,1.29,5.079,0.714,6.636-1.342l15.413-20.361C166.608,455.093,162.189,453.739,157.836,452.245z"/>
			</g>
		</g>
	</g>
</g>















</svg>
