<svg id="Layer_1" enable-background="new 0 0 54 54" height="512" viewBox="0 0 54 54" width="512" xmlns="http://www.w3.org/2000/svg"><g><g><g><path d="m25.68 19.78h-.48v-2.1c0-.2-.16-.36-.37-.36h-16.51c-.2 0-.36.16-.36.36v2.1h-.49v-2.1c0-.47.38-.85.85-.85h16.51c.47 0 .85.38.85.85z" fill="#434240"/></g><g><g><path d="m22.67 17.07h.48v2.7h-.48z" fill="#434240"/></g><g><path d="m20.13 17.07h.48v2.7h-.48z" fill="#434240"/></g><g><path d="m17.6 17.07h.48v2.7h-.48z" fill="#434240"/></g><g><path d="m15.07 17.07h.48v2.7h-.48z" fill="#434240"/></g><g><path d="m12.53 17.07h.48v2.7h-.48z" fill="#434240"/></g><g><path d="m10 17.07h.48v2.7h-.48z" fill="#434240"/></g></g></g><g><path d="m36.28 20.45c1.51 3.54 1.51 7.54 0 11.08-.23.54-.78.87-1.37.87h-29.41c-.58 0-1.14-.33-1.37-.87-1.51-3.54-1.51-7.54 0-11.08.23-.54.78-.87 1.37-.87h29.42c.58 0 1.13.33 1.36.87z" fill="#e8ebf0"/><path d="m36.9 22.27c-.17-.62-.36-1.23-.62-1.82-.23-.54-.78-.87-1.37-.87h-29.41c-.58 0-1.14.33-1.37.87-.25.59-.45 1.21-.62 1.82z" fill="#fff" opacity=".3"/><path d="m3.02 26.4c.05 1.75.41 3.49 1.11 5.14.23.54.78.87 1.37.87h29.42c.58 0 1.14-.33 1.37-.87.7-1.64 1.06-3.39 1.11-5.14z" fill="#d7dce2"/><path d="m3.56 29.87c.16.56.34 1.12.58 1.66.23.54.78.87 1.37.87h29.42c.58 0 1.14-.33 1.37-.87s.42-1.1.58-1.66z" fill="#bfc8d1"/></g><g><path d="m51 33.63c0 .68-.55 1.23-1.23 1.23h-39.83l-4.88-1.23v-1.23h44.71c.68 0 1.23.55 1.23 1.23z" fill="#f22525"/><path d="m5.06 33.44v.19l4.88 1.23h39.83c.68 0 1.23-.55 1.23-1.23v-.19z" fill="#f33"/></g><g><path d="m16.53 34.86c0 1.39-1.13 2.52-2.52 2.52s-2.52-1.13-2.52-2.52c0-1.4 1.13-2.52 2.52-2.52 1.39-.01 2.52 1.12 2.52 2.52z" fill="#434240"/><path d="m15.34 34.86c0 .73-.59 1.33-1.33 1.33-.73 0-1.33-.6-1.33-1.33 0-.74.6-1.33 1.33-1.33s1.33.59 1.33 1.33z" fill="#e8ebf0"/></g><g><path d="m22.23 34.86c0 1.39-1.13 2.52-2.52 2.52s-2.52-1.13-2.52-2.52c0-1.4 1.13-2.52 2.52-2.52 1.39-.01 2.52 1.12 2.52 2.52z" fill="#434240"/><path d="m21.03 34.86c0 .73-.59 1.33-1.33 1.33-.73 0-1.33-.6-1.33-1.33 0-.74.6-1.33 1.33-1.33.74 0 1.33.59 1.33 1.33z" fill="#e8ebf0"/></g><g><path d="m27.99 18.15h4.53v1.43h-4.53z" fill="#bfc8d1"/><path d="m26.97 17.04h6.57v1.11h-6.57z" fill="#e8ebf0"/><path d="m29.27 18.15h1.97v1.43h-1.97z" fill="#d7dce2"/><path d="m28.52 16.62h3.46v.42h-3.46z" fill="#434240"/></g><path d="m5.54 21.88h15.49v1h-15.49z" fill="#ff7c24"/><g><path d="m33.54 29.4-1.97 1.97-1.96-1.97 1.96-1.97z" fill="#ff7c24"/><g><path d="m31.57 31.61-2.2-2.21 2.2-2.2 2.21 2.2zm-1.72-2.21 1.72 1.73 1.73-1.73-1.73-1.72z" fill="#434240"/></g><path d="m31.42 30.2c-.2-.05-.35-.16-.38-.35-.02-.1.01-.2.06-.29.03-.05.06-.09.09-.14.07-.1.1-.21.08-.32 0-.02-.01-.03-.01-.05.07.05.13.1.17.17.03-.11.02-.22-.02-.32s-.09-.19-.17-.27c0 0 0 0 0-.01.04.02.08.04.11.06.16.09.3.21.41.35.12.15.16.32.13.51 0 .01 0 .03-.01.04.09-.08.14-.18.16-.29.01.01.01.03.02.04.07.21.07.41-.03.6-.06.12-.15.21-.27.27-.02.01-.03.01-.05-.01-.09-.08-.14-.19-.15-.31-.01-.09 0-.18.02-.27 0-.01 0-.02.01-.03-.11.07-.19.15-.21.28-.04.11-.01.22.04.34z" fill="#fff"/></g><path d="m38.16 21.6v10.8h11.53v-2.57c0-.73-.37-1.38-.93-1.77l-.75-2.2c-.07-.2-.26-.34-.47-.34h-4.36l-.9-.9 1.18-3.19h2.74c.25 0 .42-.24.34-.47-.05-.15-.19-.24-.34-.24h-7.15c-.49 0-.89.39-.89.88z" fill="#f33"/><path d="m48.66 27.76-.64-1.89c-.07-.2-.26-.34-.47-.34h-4.36l-.9-.9 1.18-3.19h2.74c.25 0 .42-.24.34-.47-.05-.15-.19-.24-.34-.24h-7.15c-.49 0-.88.4-.88.88v6.16h10.48z" fill="#ff5050"/><path d="m46.18 21.44h-2.72l-1.18 3.19.9.9h4.41z" fill="#434240"/><path d="m44.7 34.87h-7.41l1.4-3.2h4.61z" fill="#1c1b19"/><g><path d="m43.42 34.86c0 1.39-1.13 2.52-2.52 2.52s-2.52-1.13-2.52-2.52c0-1.4 1.13-2.52 2.52-2.52 1.39-.01 2.52 1.12 2.52 2.52z" fill="#434240"/><path d="m42.23 34.86c0 .73-.59 1.33-1.33 1.33-.73 0-1.33-.6-1.33-1.33 0-.74.6-1.33 1.33-1.33s1.33.59 1.33 1.33z" fill="#e8ebf0"/></g><g><path d="m44.85 35.22c-.19.09-.43 0-.51-.2l-1.29-2.95h-4.1l-1.29 2.95c-.09.2-.32.29-.52.2s-.29-.32-.2-.52l1.39-3.18c.06-.15.2-.23.36-.23h4.62c.16 0 .3.09.37.23l1.39 3.18c.08.2-.02.44-.22.52z" fill="#ff5050"/></g><path d="m49.69 30.09v1.04h-.71c-.29 0-.52-.23-.52-.52 0-.29.23-.52.52-.52z" fill="#e8ebf0"/></g></svg>