<svg id="Layer_1" enable-background="new 0 0 54 54" height="512" viewBox="0 0 54 54" width="512" xmlns="http://www.w3.org/2000/svg"><g><path d="m3 47.87h48v1.79h-48z" fill="#434240"/><g><g><path d="m13.97 15.64h13.83v32.23h-13.83z" fill="#d7dce2"/><path d="m27.8 15.64v32.23h-13.83z" fill="#bfc8d1"/><path d="m27.8 15.64-2.5-3.53h-8.83l-2.5 3.53z" fill="#e8ebf0"/><path d="m15.37 10.58h11.05v1.53h-11.05z" fill="#41416d"/><path d="m20.69 8.91h4.14v1.67h-4.14z" fill="#ff5050"/><g><path d="m11.89 47.87h-1v-39.97c0-1.96 1.6-3.56 3.56-3.56h5.4c1.96 0 3.56 1.6 3.56 3.56v1.02h-1v-1.02c0-1.41-1.15-2.56-2.56-2.56h-5.4c-1.41 0-2.56 1.15-2.56 2.56z" fill="#302f2c"/></g><path d="m13.97 20.16h13.83v1.48h-13.83z" fill="#ff5050"/><path d="m13.97 28.85h13.83v1.48h-13.83z" fill="#ff5050"/><g fill="#f33"><path d="m27.8 20.16v1.49h-2.58l.64-1.49z"/><path d="m27.8 28.85v1.48h-6.3l.63-1.48z"/></g></g><g><g><g><path d="m43.3 31.85h-5.38l1.22-22.84h2.94z" fill="#e8ebf0"/><g fill="#ff5050"><path d="m42.43 15.64h-3.64l.09-1.76h3.46z"/><path d="m42.64 19.42h-4.06l.1-1.76h3.86z"/></g></g><g><path d="m49.8 31.85h-5.38l1.22-22.84h2.94z" fill="#e8ebf0"/><g fill="#ff5050"><path d="m48.93 15.64h-3.64l.09-1.76h3.46z"/><path d="m49.14 19.42h-4.06l.1-1.76h3.86z"/></g></g></g><path d="m24.68 32.97h25.12v14.9h-25.12z" fill="#d7dce2"/><path d="m24.68 36.37h9.33v11.51h-9.33z" fill="#bfc8d1"/><path d="m49.8 32.97v14.9h-25.12z" fill="#bfc8d1"/><path d="m17.95 36.37h15.12v11.51h-15.12z" fill="#e8ebf0"/><path d="m33.08 36.37v11.5h-15.13z" fill="#d7dce2"/><g fill="#41416d"><path d="m17.01 35.25h17.01v1.12h-17.01z"/><path d="m23.99 31.85h26.52v1.12h-26.52z"/><g><path d="m19.62 37.6h2.14v2.15h-2.14z"/><path d="m22.84 37.6h2.14v2.15h-2.14z"/><path d="m26.05 37.6h2.14v2.15h-2.14z"/><path d="m29.27 37.6h2.14v2.15h-2.14z"/><path d="m19.62 41.05h2.14v2.15h-2.14z"/><path d="m22.84 41.05h2.14v2.15h-2.14z"/><path d="m26.05 41.05h2.14v2.15h-2.14z"/><path d="m29.27 41.05h2.14v2.15h-2.14z"/><path d="m19.62 44.46h2.14v2.15h-2.14z"/><path d="m22.84 44.46h2.14v2.15h-2.14z"/><path d="m26.05 44.46h2.14v2.15h-2.14z"/><path d="m29.27 44.46h2.14v2.15h-2.14z"/></g></g><g><path d="m32.46 16.63c-.14.27-.34.49-.63.63l-.79.02c-.46-.11-.8-.38-.88-.82-.03-.24.03-.46.15-.67.05-.11.13-.22.2-.33.15-.23.23-.47.19-.75-.01-.04-.02-.08-.03-.13.16.11.29.23.4.38.05-.25.04-.49-.04-.74-.09-.24-.22-.45-.4-.64 0-.01 0-.01.01-.01.09.04.18.09.26.13.37.21.68.48.94.82.27.34.37.74.3 1.17 0 .02-.01.05-.01.1.22-.19.32-.42.36-.68.01.03.02.07.03.1.18.5.18.97-.06 1.42z" fill="#f33"/><path d="m31.77 17.26-.72.02c-.11-.26-.19-.53-.13-.81.07-.29.23-.48.49-.64 0 .03-.01.05-.01.08-.04.21-.07.41-.03.61.03.29.14.53.35.71.02.02.04.03.05.03z" fill="#ffee1d"/></g><path d="m30.33 17.25h2.14v14.6h-2.14z" fill="#434240"/></g><g><g><path d="m9.81 31.41h.56v4.8h-.56z" fill="#434240"/></g><g><path d="m15.07 36.21h-.56v-4.52h-8.83v4.52h-.56v-5.08h9.95z" fill="#434240"/></g><g><g><path d="m4.74 33.72h1.32v1.7h-1.32z" fill="#f22525"/></g><g><path d="m4.74 33.72h.43v1.7h-.43z" fill="#ff5050"/></g><g><path d="m7.3 36.51v10.83c0 .28-.23.51-.51.51h-2.78c-.28 0-.51-.23-.51-.51v-10.83c0-1.05.85-1.9 1.9-1.9 1.05 0 1.9.85 1.9 1.9z" fill="#f33"/></g><g><path d="m4.38 47.85h-.37c-.28 0-.51-.22-.51-.51v-10.82c0-1.05.85-1.9 1.9-1.9.06 0 .12 0 .17.01-.95.1-1.71.91-1.71 1.89v10.83c.01.28.24.5.52.5z" fill="#ff5050"/></g><g><path d="m7.3 36.52v10.83c0 .29-.23.51-.51.51h-.45c.28 0 .51-.22.51-.51v-10.83c0-.53-.21-1-.56-1.35-.29-.29-.69-.49-1.12-.54.07-.01.15-.02.23-.02.53 0 1 .21 1.35.56.34.35.55.82.55 1.35z" fill="#f22525"/></g><g><path d="m4.26 33.21h2.28v.51h-2.28z" fill="#ffee1d"/></g></g><g><g><path d="m9.43 33.72h1.32v1.7h-1.32z" fill="#f22525"/></g><g><path d="m9.43 33.72h.43v1.7h-.43z" fill="#ff5050"/></g><g><path d="m12 36.51v10.83c0 .28-.23.51-.51.51h-2.79c-.28 0-.51-.23-.51-.51v-10.83c0-1.05.85-1.9 1.9-1.9 1.06 0 1.91.85 1.91 1.9z" fill="#f33"/></g><g><path d="m9.07 47.85h-.37c-.28 0-.51-.22-.51-.51v-10.82c0-1.05.85-1.9 1.9-1.9.06 0 .12 0 .17.01-.95.1-1.71.91-1.71 1.89v10.83c.01.28.24.5.52.5z" fill="#ff5050"/></g><g><path d="m12 36.52v10.83c0 .29-.23.51-.51.51h-.45c.28 0 .51-.22.51-.51v-10.83c0-.53-.21-1-.56-1.35-.29-.29-.69-.49-1.12-.54.07-.01.15-.02.23-.02.53 0 1 .21 1.35.56.33.35.55.82.55 1.35z" fill="#f22525"/></g><g><path d="m8.95 33.21h2.28v.51h-2.28z" fill="#ffee1d"/></g></g><g><g><path d="m14.13 33.72h1.32v1.7h-1.32z" fill="#f22525"/></g><g><path d="m14.13 33.72h.43v1.7h-.43z" fill="#ff5050"/></g><g><path d="m16.69 36.51v10.83c0 .28-.23.51-.51.51h-2.78c-.28 0-.51-.23-.51-.51v-10.83c0-1.05.85-1.9 1.9-1.9 1.05 0 1.9.85 1.9 1.9z" fill="#f33"/></g><g><path d="m13.77 47.85h-.37c-.28 0-.51-.22-.51-.51v-10.82c0-1.05.85-1.9 1.9-1.9.06 0 .12 0 .17.01-.95.1-1.71.91-1.71 1.89v10.83c0 .28.23.5.52.5z" fill="#ff5050"/></g><g><path d="m16.69 36.52v10.83c0 .29-.23.51-.51.51h-.45c.28 0 .51-.22.51-.51v-10.83c0-.53-.21-1-.56-1.35-.29-.29-.69-.49-1.12-.54.07-.01.15-.02.23-.02.53 0 1 .21 1.35.56.34.35.55.82.55 1.35z" fill="#f22525"/></g><g><path d="m13.65 33.21h2.28v.51h-2.28z" fill="#ffee1d"/></g></g></g></g></g></svg>