<svg id="Capa_1" enable-background="new 0 0 512 512" height="512" viewBox="0 0 512 512" width="512" xmlns="http://www.w3.org/2000/svg"><g><path d="m478.403 512h-407.495l50.016-134.264v-365.031c-.001-7.017 5.688-12.705 12.704-12.705h344.775c7.017 0 12.705 5.688 12.705 12.705v486.59c0 7.017-5.688 12.705-12.705 12.705z" fill="#e6f6ff"/><path d="m478.403 0h-22.041c7.017 0 12.705 5.688 12.705 12.705v486.59c0 7.017-5.688 12.705-12.705 12.705h22.041c7.017 0 12.705-5.688 12.705-12.705v-486.59c0-7.017-5.688-12.705-12.705-12.705z" fill="#d1edff"/><path d="m70.908 512c-27.623 0-50.016-22.393-50.016-50.016v-100.351c0-7.017 5.688-12.705 12.705-12.705h87.327v113.056c-.001 27.623-22.393 50.016-50.016 50.016z" fill="#d1edff"/><g><path d="m334.852 81.132c0 13.859-11.235 25.094-25.094 25.094s-25.094-11.235-25.094-25.094 11.236-40.022 25.094-40.022 25.094 26.163 25.094 40.022z" fill="#6c5e69"/></g><g><g><path d="m423.74 354.656h-227.963c-4.268 0-7.726-3.459-7.726-7.726s3.459-7.726 7.726-7.726h227.963c4.268 0 7.726 3.459 7.726 7.726s-3.458 7.726-7.726 7.726z" fill="#574d56"/></g><g><path d="m423.74 395.485h-227.963c-4.268 0-7.726-3.459-7.726-7.726s3.459-7.726 7.726-7.726h227.963c4.268 0 7.726 3.459 7.726 7.726s-3.458 7.726-7.726 7.726z" fill="#574d56"/></g></g><g><path d="m362.203 476.621h-104.889c-4.475 0-8.102-3.627-8.102-8.102v-37.29c0-4.475 3.627-8.102 8.102-8.102h104.889c4.475 0 8.102 3.627 8.102 8.102v37.29c0 4.475-3.627 8.102-8.102 8.102z" fill="#ff6c53"/><path d="m362.203 423.127h-22.709c4.475 0 8.102 3.628 8.102 8.102v37.289c0 4.475-3.627 8.102-8.102 8.102h22.709c4.475 0 8.102-3.628 8.102-8.102v-37.288c0-4.475-3.627-8.103-8.102-8.103z" fill="#ff534a"/></g><path d="m240.349 303.218h-38.107c-3.633 0-6.578-2.945-6.578-6.578v-61.508c0-3.633 2.945-6.578 6.578-6.578h38.107c3.633 0 6.578 2.945 6.578 6.578v61.508c0 3.633-2.945 6.578-6.578 6.578z" fill="#ff6c53"/><path d="m240.349 228.554h-20.868c3.633 0 6.578 2.945 6.578 6.578v61.509c0 3.633-2.945 6.578-6.578 6.578h20.868c3.633 0 6.578-2.945 6.578-6.578v-61.509c0-3.633-2.945-6.578-6.578-6.578z" fill="#ff534a"/><path d="m328.812 303.218h-38.107c-3.633 0-6.578-2.945-6.578-6.578v-143.923c0-3.633 2.945-6.578 6.578-6.578h38.107c3.633 0 6.578 2.945 6.578 6.578v143.923c0 3.633-2.945 6.578-6.578 6.578z" fill="#9be69d"/><path d="m328.812 146.139h-20.868c3.633 0 6.578 2.945 6.578 6.578v143.923c0 3.633-2.945 6.578-6.578 6.578h20.868c3.633 0 6.578-2.945 6.578-6.578v-143.923c0-3.633-2.945-6.578-6.578-6.578z" fill="#6fd7a3"/><path d="m417.275 303.218h-38.107c-3.633 0-6.578-2.945-6.578-6.578v-92.414c0-3.633 2.945-6.578 6.578-6.578h38.107c3.633 0 6.578 2.945 6.578 6.578v92.414c0 3.633-2.945 6.578-6.578 6.578z" fill="#64caff"/><path d="m417.275 197.648h-20.868c3.633 0 6.578 2.945 6.578 6.578v92.414c0 3.633-2.945 6.578-6.578 6.578h20.868c3.633 0 6.578-2.945 6.578-6.578v-92.414c0-3.632-2.945-6.578-6.578-6.578z" fill="#00b8ff"/><g><g><path d="m216.873 81.394h-21.776c-4.268 0-7.726-3.459-7.726-7.726 0-4.268 3.459-7.726 7.726-7.726h21.776c4.268 0 7.726 3.459 7.726 7.726s-3.459 7.726-7.726 7.726z" fill="#ff6c53"/></g><g><path d="m424.419 81.394h-21.776c-4.268 0-7.726-3.459-7.726-7.726 0-4.268 3.459-7.726 7.726-7.726h21.776c4.268 0 7.726 3.459 7.726 7.726s-3.458 7.726-7.726 7.726z" fill="#ff6c53"/></g></g></g></svg>