<svg id="Capa_1" enable-background="new 0 0 512 512" height="512" viewBox="0 0 512 512" width="512" xmlns="http://www.w3.org/2000/svg"><g><g><g><path d="m292.938 465.637c-1.31 0-2.637-.333-3.853-1.034l-104.702-61.05c-2.291-1.322-3.747-3.723-3.859-6.365-.112-2.643 1.135-5.159 3.306-6.67l107.893-75.083-74.42-61.328c-1.735-1.43-2.762-3.545-2.811-5.794-.049-2.248.883-4.406 2.554-5.911l56.657-51.015c3.171-2.856 8.056-2.6 10.911.572 2.856 3.171 2.6 8.056-.571 10.912l-49.993 45.014 75.365 62.107c1.866 1.538 2.904 3.86 2.807 6.277-.099 2.417-1.322 4.647-3.307 6.028l-106.269 73.953 94.157 54.968c3.696 2.133 4.965 6.857 2.833 10.553-1.429 2.479-4.027 3.866-6.698 3.866z" fill="#ad9ca9"/></g></g><g><path d="m346.241 508.479h-180.482c-2.425 0-4.718-1.061-6.238-2.885-1.519-1.825-2.099-4.216-1.578-6.502l73.204-337.763c.78-3.542 3.919-6.065 7.546-6.065h34.615c3.627 0 6.766 2.523 7.545 6.065l73.204 337.763c.522 2.286-.058 4.677-1.578 6.502-1.52 1.824-3.813 2.885-6.238 2.885zm-170.525-15.453h160.569l-69.188-322.31h-22.194z" fill="#baafb8"/></g><path d="m474.482 480.149h-191.674v-88.547c0-11.946 9.684-21.63 21.63-21.63h148.414c11.946 0 21.63 9.684 21.63 21.63z" fill="#baafb8"/><path d="m452.853 369.972h-24.748c11.946 0 21.63 9.684 21.63 21.63v88.547h24.748v-88.547c-.001-11.946-9.685-21.63-21.63-21.63z" fill="#ad9ca9"/><path d="m403.27 444.361h-49.25c-10.659 0-19.301-8.641-19.301-19.3 0-10.659 8.641-19.3 19.301-19.3h49.25c10.659 0 19.3 8.641 19.3 19.3.001 10.659-8.64 19.3-19.3 19.3z" fill="#ffea76"/><path d="m403.27 405.76h-21.549c10.659 0 19.301 8.641 19.301 19.301s-8.641 19.3-19.301 19.3h21.549c10.659 0 19.301-8.641 19.301-19.3s-8.641-19.301-19.301-19.301z" fill="#ffe54c"/><g><path d="m397.28 424.158c-4.268 0-7.726-3.459-7.726-7.726v-205.467c0-4.267 3.459-7.726 7.726-7.726s7.726 3.459 7.726 7.726v205.467c.001 4.268-3.458 7.726-7.726 7.726z" fill="#574d56"/></g><g><path d="m202.516 51.671c-.874 0-1.763-.149-2.632-.464l-22.861-8.284c-4.012-1.454-6.086-5.885-4.632-9.896 1.454-4.012 5.886-6.083 9.896-4.632l22.861 8.284c4.012 1.454 6.086 5.885 4.632 9.896-1.138 3.143-4.104 5.096-7.264 5.096z" fill="#574d56"/></g><g><g><path d="m208.743 120.921c-1.018 0-2.052-.202-3.047-.63-3.921-1.685-5.733-6.228-4.048-10.149l9.338-21.731c1.685-3.921 6.23-5.733 10.149-4.048 3.921 1.685 5.733 6.228 4.048 10.149l-9.338 21.731c-1.257 2.926-4.107 4.678-7.102 4.678z" fill="#574d56"/></g><g><path d="m255.22 137.502c-1.018 0-2.052-.202-3.047-.63-3.921-1.685-5.733-6.228-4.048-10.149l9.338-21.731c1.685-3.92 6.227-5.735 10.149-4.048 3.921 1.685 5.733 6.228 4.048 10.149l-9.338 21.731c-1.257 2.926-4.107 4.678-7.102 4.678z" fill="#574d56"/></g><g><path d="m301.698 154.082c-1.017 0-2.052-.202-3.046-.63-3.921-1.685-5.733-6.228-4.048-10.149l9.338-21.731c1.685-3.92 6.227-5.735 10.149-4.048 3.921 1.685 5.733 6.228 4.048 10.149l-9.338 21.731c-1.258 2.926-4.108 4.678-7.103 4.678z" fill="#574d56"/></g><g><path d="m348.176 170.662c-1.017 0-2.051-.202-3.046-.63-3.921-1.684-5.733-6.228-4.048-10.149l9.337-21.731c1.683-3.92 6.223-5.736 10.149-4.048 3.921 1.684 5.733 6.228 4.048 10.149l-9.337 21.731c-1.257 2.926-4.108 4.678-7.103 4.678z" fill="#574d56"/></g><g><path d="m394.654 187.243c-1.017 0-2.051-.202-3.046-.629-3.921-1.685-5.733-6.228-4.048-10.149l9.337-21.731c1.683-3.92 6.223-5.734 10.149-4.049 3.921 1.685 5.733 6.228 4.048 10.149l-9.337 21.731c-1.257 2.926-4.108 4.678-7.103 4.678z" fill="#574d56"/></g><g><path d="m441.131 203.823c-1.017 0-2.051-.202-3.046-.629-3.921-1.685-5.733-6.228-4.048-10.149l9.337-21.731c1.683-3.92 6.223-5.734 10.149-4.049 3.921 1.685 5.733 6.228 4.048 10.149l-9.337 21.731c-1.256 2.926-4.108 4.678-7.103 4.678z" fill="#574d56"/></g></g><path d="m489.075 219.853-9.061 25.002c-2.006 5.536-8.121 8.398-13.658 6.392l-316.598-114.734 16.326-45.051 316.598 114.734c5.537 2.006 8.399 8.12 6.393 13.657z" fill="#6c5e69"/><path d="m144.197 106.81h47.919v21.772h-47.919z" fill="#574d56" transform="matrix(.341 -.94 .94 .341 .209 235.69)"/><path d="m192.842 17.627-56.12 154.858c-12.372 34.139-37.278 62.287-69.657 78.724l-33.552 17.032c-12.2 6.193-25.686-5.739-21.024-18.603l71.22-196.525c15.153-41.813 61.334-63.426 103.149-48.273 5.183 1.879 7.862 7.604 5.984 12.787z" fill="#ffea76"/><path d="m186.858 4.84c-4.35-1.576-8.747-2.732-13.152-3.532-.046.147-.082.294-.135.44l-56.12 154.858c-12.372 34.139-37.278 62.287-69.657 78.724l-33.552 17.032c-.868.441-1.742.78-2.616 1.043-1.141 11.276 10.892 20.417 21.887 14.835l33.552-17.032c32.379-16.437 57.285-44.585 69.657-78.724l56.12-154.858c1.878-5.182-.801-10.907-5.984-12.786z" fill="#ffe54c"/><g><path d="m110.434 119.923c-.874 0-1.763-.149-2.632-.464-4.012-1.454-6.086-5.885-4.632-9.896l9.876-27.254c1.455-4.012 5.885-6.085 9.896-4.632 4.012 1.454 6.086 5.885 4.632 9.896l-9.876 27.254c-1.138 3.143-4.104 5.096-7.264 5.096z" fill="#6c5e69"/></g><g><path d="m52.753 407.186c-4.267 0-7.726-3.459-7.726-7.726v-175.573c0-4.267 3.459-7.726 7.726-7.726s7.726 3.459 7.726 7.726v175.573c.001 4.268-3.459 7.726-7.726 7.726z" fill="#baafb8"/></g><path d="m72.12 480.149h-38.734v-77.132c0-5.751 4.662-10.413 10.413-10.413h17.908c5.751 0 10.413 4.662 10.413 10.413z" fill="#ffea76"/><path d="m510.406 512h-508.812c-.88 0-1.594-.714-1.594-1.594v-28.663c0-.88.714-1.594 1.594-1.594h508.812c.88 0 1.594.714 1.594 1.594v28.663c0 .88-.714 1.594-1.594 1.594z" fill="#9be69d"/><path d="m510.406 480.149h-18.827c.88 0 1.594.714 1.594 1.594v28.663c0 .88-.714 1.594-1.594 1.594h18.827c.88 0 1.594-.714 1.594-1.594v-28.663c0-.881-.714-1.594-1.594-1.594z" fill="#6fd7a3"/></g></svg>