<svg id="Capa_1" enable-background="new 0 0 512 512" height="512" viewBox="0 0 512 512" width="512" xmlns="http://www.w3.org/2000/svg"><g><g><path d="m506.305 210.69h-54.421c-11.452 0-21.205 8.905-21.611 20.35-.427 12.015 9.186 21.888 21.105 21.888h54.927c3.145 0 5.695-2.55 5.695-5.695v-30.847c0-3.146-2.55-5.696-5.695-5.696z" fill="#baafb8"/></g><path d="m440.863 213.511v36.595c3.099 1.784 6.682 2.821 10.515 2.821h18.269v-42.237h-18.269c-3.833 0-7.417 1.037-10.515 2.821z" fill="#ad9ca9"/><path d="m380.583 119.528v297.596h42.237v-297.596c0-31.157-23.476-56.504-52.331-56.504h-171.568c-28.855 0-52.331 25.347-52.331 56.504v80.298c0 11.664 9.455 21.119 21.119 21.119s21.119-9.455 21.119-21.119v-80.298c0-8.407 5.32-14.267 10.094-14.267h171.568c4.773.001 10.093 5.86 10.093 14.267z" fill="#baafb8"/><path d="m167.709 220.945c11.664 0 21.119-9.455 21.119-21.119v-36.449h-42.238v36.449c0 11.664 9.455 21.119 21.119 21.119z" fill="#ad9ca9"/><path d="m139.034 220.992h-70.023c-24.215 0-43.915 19.7-43.915 43.914v152.218h42.237v-152.218c0-.925.753-1.677 1.678-1.677h70.023c11.664 0 21.119-9.455 21.119-21.119-.001-11.663-9.455-21.118-21.119-21.118z" fill="#baafb8"/><path d="m99.434 263.229h39.6c11.664 0 21.119-9.455 21.119-21.119s-9.455-21.119-21.119-21.119h-39.6z" fill="#ad9ca9"/><path d="m510.406 448.976h-508.812c-.88 0-1.594-.714-1.594-1.594v-28.663c0-.88.714-1.594 1.594-1.594h508.812c.88 0 1.594.714 1.594 1.594v28.663c0 .88-.714 1.594-1.594 1.594z" fill="#6c5e69"/><path d="m510.406 417.124h-18.827c.88 0 1.594.714 1.594 1.594v28.663c0 .88-.714 1.594-1.594 1.594h18.827c.88 0 1.594-.714 1.594-1.594v-28.663c0-.88-.714-1.594-1.594-1.594z" fill="#574d56"/><path d="m249.613 417.124h-132.695v-216.447c0-11.369 9.216-20.585 20.585-20.585h91.525c11.369 0 20.585 9.216 20.585 20.585z" fill="#ffea76"/><path d="m229.028 180.092h-21.692c11.369 0 20.585 9.216 20.585 20.585v86.22c0 8.437-6.84 15.276-15.276 15.276-16.695 0-30.229 13.534-30.229 30.229v84.722h67.198c0-7.345 0-220.562 0-216.448-.001-11.368-9.217-20.584-20.586-20.584z" fill="#ffe54c"/><path d="m341.819 417.124h-140.861v-84.722c0-6.454 5.232-11.687 11.687-11.687h117.488c6.454 0 11.687 5.232 11.687 11.687v84.722z" fill="#ff6c53"/><path d="m330.133 320.716h-21.776c6.454 0 11.687 5.232 11.687 11.686v84.722h21.776v-84.722c-.001-6.454-5.233-11.686-11.687-11.686z" fill="#ff534a"/><path d="m446.285 274.429h-23.465v-85.24h23.465c2.937 0 5.319 2.381 5.319 5.319v74.603c0 2.937-2.381 5.318-5.319 5.318z" fill="#6c5e69"/><g><g><path d="m201.526 222.977h-36.52c-4.268 0-7.726-3.459-7.726-7.726s3.459-7.726 7.726-7.726h36.52c4.268 0 7.726 3.459 7.726 7.726s-3.459 7.726-7.726 7.726z" fill="#ff6c53"/></g><g><path d="m201.526 257.909h-36.52c-4.268 0-7.726-3.459-7.726-7.726s3.459-7.726 7.726-7.726h36.52c4.268 0 7.726 3.459 7.726 7.726s-3.459 7.726-7.726 7.726z" fill="#ff6c53"/></g><g><path d="m201.526 292.84h-36.52c-4.268 0-7.726-3.459-7.726-7.726s3.459-7.726 7.726-7.726h36.52c4.268 0 7.726 3.459 7.726 7.726s-3.459 7.726-7.726 7.726z" fill="#ff6c53"/></g></g><path d="m304.333 417.124h-65.889v-30.194c0-5.37 4.354-9.724 9.724-9.724h46.441c5.37 0 9.724 4.354 9.724 9.724z" fill="#e6f6ff"/><path d="m294.609 377.206h-19.628c5.37 0 9.724 4.354 9.724 9.724v30.194h19.628v-30.194c0-5.37-4.353-9.724-9.724-9.724z" fill="#d1edff"/></g></svg>