<?xml version="1.0" encoding="iso-8859-1"?>
<!-- Generator: Adobe Illustrator 19.0.0, SVG Export Plug-In . SVG Version: 6.00 Build 0)  -->
<svg version="1.1" id="Capa_1" xmlns="http://www.w3.org/2000/svg" xmlns:xlink="http://www.w3.org/1999/xlink" x="0px" y="0px"
	 viewBox="0 0 512 512" style="enable-background:new 0 0 512 512;" xml:space="preserve">
<g>
	<path style="fill:#3A484A;" d="M190.77,217.708c-4.267,0-7.726-3.459-7.726-7.726V85.333c0-4.267,3.459-7.726,7.726-7.726
		s7.726,3.459,7.726,7.726v124.649C198.496,214.249,195.037,217.708,190.77,217.708z"/>
	<path style="fill:#3A484A;" d="M456.831,217.708c-4.267,0-7.726-3.459-7.726-7.726V85.333c0-4.267,3.459-7.726,7.726-7.726
		s7.726,3.459,7.726,7.726v124.649C464.557,214.249,461.098,217.708,456.831,217.708z"/>
</g>
<g>
	<path style="fill:#323E40;" d="M456.831,77.608c-4.267,0-7.726,3.458-7.726,7.726v51.56h15.453v-51.56
		C464.557,81.066,461.098,77.608,456.831,77.608z"/>
	<path style="fill:#323E40;" d="M190.77,77.608c-4.267,0-7.726,3.458-7.726,7.726v51.56h15.453v-51.56
		C198.496,81.066,195.037,77.608,190.77,77.608z"/>
</g>
<path style="fill:#B24D3E;" d="M512,91.556V63.892c0-7.971-6.461-14.431-14.431-14.431H0v56.526h497.569
	C505.539,105.987,512,99.526,512,91.556z"/>
<path style="fill:#C86D5C;" d="M83.308,7.066H55.642c-7.971,0-14.431,6.461-14.431,14.431v483.437h56.526V21.497
	C97.738,13.527,91.277,7.066,83.308,7.066z"/>
<path style="fill:#00A6C8;" d="M471.098,174.339H176.502c-18.539,0-33.568,15.029-33.568,33.568v180.558
	c0,18.539,15.029,33.568,33.568,33.568h294.596c18.539,0,33.568-15.029,33.568-33.568V207.907
	C504.666,189.367,489.638,174.339,471.098,174.339z"/>
<rect x="186.422" y="217.821" style="fill:#EFEDEE;" width="274.77" height="160.729"/>
<g>
	<path style="fill:#42C3E2;" d="M202.117,265.486c0-2.363,1.913-4.502,4.728-4.502h22.287c14.745,0,26.677,5.628,26.677,23.524
		c0,12.945-6.304,19.924-14.746,22.513l14.746,27.352c0.45,0.562,0.562,1.351,0.562,1.801c0,3.715-4.84,7.654-9.117,7.654
		c-2.026,0-3.939-1.238-5.065-3.489l-15.983-31.066h-9.455v29.378c0,3.039-3.602,4.614-7.316,4.614
		c-3.602,0-7.316-1.575-7.316-4.614L202.117,265.486L202.117,265.486z M216.75,273.815v23.975h12.382
		c7.316,0,12.044-3.039,12.044-11.931c0-8.893-4.728-12.045-12.044-12.045L216.75,273.815L216.75,273.815z"/>
	<path style="fill:#42C3E2;" d="M280.913,296.328h17.109c2.927,0,4.614,2.814,4.614,5.852c0,2.589-1.463,5.629-4.614,5.629h-17.109
		v22.624h31.854c2.927,0,4.614,3.039,4.614,6.528c0,3.039-1.463,6.304-4.614,6.304h-40.072c-3.264,0-6.416-1.575-6.416-4.614
		v-73.052c0-3.039,3.151-4.614,6.416-4.614h40.072c3.151,0,4.614,3.265,4.614,6.304c0,3.489-1.687,6.527-4.614,6.527h-31.854
		V296.328z"/>
	<path style="fill:#42C3E2;" d="M364.774,338.65l-24.201-45.25v45.25c0,3.039-3.715,4.614-7.316,4.614
		c-3.715,0-7.316-1.575-7.316-4.614v-73.052c0-3.151,3.602-4.614,7.316-4.614c5.29,0,7.429,1.125,10.918,7.767l21.724,41.985v-45.25
		c0-3.151,3.602-4.502,7.316-4.502c3.602,0,7.316,1.351,7.316,4.502v73.164c0,3.039-3.715,4.614-7.316,4.614
		C369.726,343.266,366.687,342.14,364.774,338.65z"/>
	<path style="fill:#42C3E2;" d="M440.868,260.984c3.151,0,4.614,3.377,4.614,6.528c0,3.489-1.687,6.642-4.614,6.642h-16.433v64.497
		c0,3.039-3.715,4.614-7.316,4.614c-3.715,0-7.316-1.575-7.316-4.614v-64.497h-16.546c-2.927,0-4.615-3.039-4.615-6.642
		c0-3.151,1.464-6.528,4.615-6.528L440.868,260.984L440.868,260.984z"/>
</g>
<g>
</g>
<g>
</g>
<g>
</g>
<g>
</g>
<g>
</g>
<g>
</g>
<g>
</g>
<g>
</g>
<g>
</g>
<g>
</g>
<g>
</g>
<g>
</g>
<g>
</g>
<g>
</g>
<g>
</g>
</svg>
