<svg height="512" viewBox="0 0 48 48" width="512" xmlns="http://www.w3.org/2000/svg"><g id="Budget_production" data-name="Budget production"><path d="m1 11h12v34h-12z" fill="#7c7d7d"/><path d="m13 11c0 33.18-.1 32 0 32a9 9 0 0 1 -9-9v-23z" fill="#919191"/><path d="m47 40a5 5 0 0 1 -5 5h-29v-10h29.51a5 5 0 0 1 4.49 5z" fill="#dad7e5"/><path d="m46.09 42.88c-.89.2-22.19.12-22.09.12a8 8 0 0 1 -8-8c0-.1 26.52 0 26.91.09a4.79 4.79 0 0 1 1.82.72 5 5 0 0 1 1.36 7.07z" fill="#edebf2"/><path d="m37 18.75v16.25h-20v-20h15.08a8 8 0 0 0 4.92 3.75z" fill="#edb996"/><path d="m37 18.75c0 15-.1 14.25 0 14.25-8.69 0-17-6.58-17-18h12.08a8 8 0 0 0 4.92 3.75z" fill="#f6ccaf"/><path d="m9 17a2 2 0 1 1 -2.82-1.82 2 2 0 0 1 2.82 1.82z" fill="#9dcc6b"/><path d="m8.82 17.82a2 2 0 0 1 -2.64-2.64 2 2 0 0 1 2.64 2.64z" fill="#b5e08c"/><path d="m47 11c0 8.18-10.9 11.05-14.92 4a8 8 0 1 1 14.92-4z" fill="#fc6"/><path d="m47 11a7.87 7.87 0 0 1 -1.44 4.56 7.87 7.87 0 0 1 -4.56 1.44 8 8 0 0 1 -6.56-12.56 8 8 0 0 1 12.56 6.56z" fill="#ffde76"/><path d="m39 10a1 1 0 1 1 1-1 1 1 0 0 0 1 1c1.66 0 1.21-3-1-3.82a1 1 0 1 0 -2 0 3 3 0 0 0 1 5.82 1 1 0 1 1 -1 1 1 1 0 0 0 -1-1c-1.66 0-1.21 3 1 3.82a1 1 0 1 0 2 0 3 3 0 0 0 -1-5.82z" fill="#374f68"/><path d="m24 15h6v6h-6z" fill="#a87e6b"/><path d="m30 15v5a5 5 0 0 1 -5-5z" fill="#be927c"/><path d="m47 40a5 5 0 1 1 -8.86-3.18 5 5 0 0 1 8.86 3.18z" fill="#c6c3d8"/><path d="m46.86 41.18a5 5 0 0 1 -8.72-4.36 5 5 0 0 1 8.72 4.36z" fill="#dad7e5"/><path d="m37 40c0 1 .22 1 0 1h-24v-2h24.1a4.62 4.62 0 0 0 -.1 1z" fill="#c6c3d8"/><path d="m42 38a2 2 0 1 0 1.82 2.82 2 2 0 0 0 -1.82-2.82z" fill="#7c7d7d"/><path d="m41.18 38.18a2 2 0 0 0 2.64 2.64 2 2 0 0 0 -2.64-2.64z" fill="#919191"/></g></svg>