<svg height="512" viewBox="0 0 59 60" width="512" xmlns="http://www.w3.org/2000/svg"><g id="Page-1" fill="none" fill-rule="evenodd"><g id="003---Calendar"><path id="Path" d="m28.539 48h-25.539c-1.65685425 0-3-1.3431458-3-3v-29h48v13.854z" fill="#ecf0f1"/><path id="Path" d="m48 16v-7c0-1.65685425-1.3431458-3-3-3h-42c-1.65685425 0-3 1.34314575-3 3v7z" fill="#e64c3c"/><g fill="#95a5a5"><path id="Path" d="m15 6c.0068206 1.03784406-.2222805 2.06366989-.67 3-.7443045 1.7511167-2.4290179 2.9183546-4.33 3-.55228475 0-1-.4477153-1-1s.44771525-1 1-1c.7755802-.02344206 1.5008042-.38971679 1.98-1 .6845589-.84764445 1.046018-1.91075939 1.02-3 0-2.21-1.35-4-3-4s-3 1.79-3 4h-2c0-3.31 2.24-6 5-6s5 2.69 5 6z"/><path id="Path" d="m29 6c.0068206 1.03784406-.2222805 2.06366989-.67 3-.7443045 1.7511167-2.4290179 2.9183546-4.33 3-.5522847 0-1-.4477153-1-1s.4477153-1 1-1c.7755802-.02344206 1.5008042-.38971679 1.98-1 .6845589-.84764445 1.046018-1.91075939 1.02-3 0-2.21-1.35-4-3-4s-3 1.79-3 4h-2c0-3.31 2.24-6 5-6s5 2.69 5 6z"/><path id="Path" d="m43 6c0 3.31-2.24 6-5 6-.5522847 0-1-.4477153-1-1s.4477153-1 1-1c1.65 0 3-1.79 3-4s-1.35-4-3-4-3 1.79-3 4h-2c0-3.31 2.24-6 5-6s5 2.69 5 6z"/></g><path id="Path" d="m44 21v7.03l-1.03.97-6.05 5.68v.01l-.6.55-7.32 6.88-2 1.88h-22c-.55228475 0-1-.4477153-1-1v-22c0-.5522847.44771525-1 1-1h38c.5522847 0 1 .4477153 1 1z" fill="#d1d4d1"/><path id="Shape" d="m37 27v-7h-2v7h-6v-7h-2v7h-6v-7h-2v7h-6v-7h-2v7h-7v2h7v6h-7v2h7v7h2v-7h6v7h2v-7h6v7l2-1.88v-5.12h2.52c.5522847 0 1-.4477153 1-1s-.4477153-1-1-1h-2.52v-6h6v5.3c0 .5522847.4477153 1 1 1 .1095007.0004111.218086-.0199486.32-.06.2696012-.0888368.4880991-.2891265.6-.55v-.01c.051241-.1202223.07842-.2493227.08-.38v-5.3h5.97l1.03-.97v-1.03zm-18 8h-6v-6h6zm8 0h-6v-6h6z" fill="#a5a5a4" fill-rule="nonzero"/><path id="Path" d="m58 44c.0017229 1.5199287-.2310135 3.0310288-.69 4.48-2.3501897 7.4743687-10.0616362 11.8764502-17.6927191 10.0998938-7.6310829-1.7765563-12.6053308-9.1319344-11.4126411-16.8757752 1.1926898-7.7438407 8.1496312-13.2616026 15.9616239-12.6596495 7.8119928.6019531 13.8414853 7.1203846 13.8337363 14.9555309z" fill="#90bae1"/><path id="Path" d="m58 44c.0017229 1.5199287-.2310135 3.0310288-.69 4.48-5.2874103 3.5297934-12.2264342 3.339888-17.3128696-.4738143-5.0864354-3.8137022-7.2135411-10.4213899-5.3071304-16.4861857 4.6012028-3.0693298 10.5186597-3.3557315 15.3947697-.7450986 4.87611 2.6106328 7.9185741 7.6941094 7.9152303 13.2250986z" fill="#b0d3f0"/><path id="Shape" d="m43 60c-8.836556 0-16-7.163444-16-16s7.163444-16 16-16 16 7.163444 16 16c-.0104696 8.8322157-7.1677843 15.9895304-16 16zm0-30c-7.7319865 0-14 6.2680135-14 14s6.2680135 14 14 14 14-6.2680135 14-14c-.0082673-7.7285595-6.2714405-13.9917327-14-14z" fill="#547580" fill-rule="nonzero"/><path id="Path" d="m49 51c-.2651948-.0000566-.5195073-.1054506-.707-.293l-6-6c-.1875494-.1874927-.2929434-.4418052-.293-.707v-10c0-.5522847.4477153-1 1-1s1 .4477153 1 1v9.586l5.707 5.707c.2859079.2859943.3714219.7160366.216678 1.0896546-.1547439.3736179-.5192821.6172591-.923678.6173454z" fill="#4482c3"/></g></g></svg>