<svg id="Layer_1" height="512" viewBox="0 0 512 512" width="512" xmlns="http://www.w3.org/2000/svg" data-name="Layer 1"><path d="m169.75 396.24a30.46 30.46 0 0 1 -30.43-30.43v-220.41a30.46 30.46 0 0 1 30.43-30.4h134.73l68.2 70.53v180.28a30.46 30.46 0 0 1 -30.43 30.43z" fill="#bc0613"/><path d="m296 135h-126.26a10.43 10.43 0 0 0 -10.42 10.43v220.38a10.43 10.43 0 0 0 10.42 10.43h172.52a10.43 10.43 0 0 0 10.42-10.43v-172.22z" fill="#fff"/><path d="m306.32 193.68a8.82 8.82 0 0 1 -8.81-8.8l-1.61-50.15 57 59z" fill="#f00"/><path d="m296 135 56.68 58.62h-46.36a8.71 8.71 0 0 1 -8.72-8.71zm-.21-.48v.49l1.6 49.9a8.91 8.91 0 0 0 8.91 8.89h46.81l-.31-.32-56.68-58.61-.35-.35z" fill="#f00"/><g fill="#bcbec0"><path d="m190.67 223.09h130.9v7.54h-130.9z"/><path d="m190.67 236.25h130.9v7.54h-130.9z"/><path d="m190.67 249.42h130.9v7.54h-130.9z"/><path d="m190.67 262.58h130.9v7.54h-130.9z"/><path d="m190.67 275.74h130.9v7.54h-130.9z"/><path d="m226.64 178.14h53.97v3.89h-53.97z"/><path d="m226.64 185.93h53.97v3.89h-53.97z"/><path d="m226.64 193.71h53.97v3.89h-53.97z"/><path d="m226.64 201.5h53.97v3.89h-53.97z"/><path d="m190.67 177.68h27.13v27.13h-27.13z"/></g><path d="m168.12 377h175.76a8.8 8.8 0 0 0 8.8-8.8v-67.2h-193.36v67.25a8.8 8.8 0 0 0 8.8 8.75z" fill="#f00"/><path d="m227.93 316.12c3.2.51 5.51 1.53 6.91 3a10 10 0 0 1 1.46 5.64l.16 27.75a11.65 11.65 0 0 1 -3 6.66 10.87 10.87 0 0 1 -7.13 3.41h-19.48c-.31 0-.62-.41-.93-1.24v-43.52c0-1.14.37-1.7 1.09-1.7zm-11 8.52v28.83c0 .31.2.46.62.46h4.8c2 0 3-.72 3.1-2.17v-24.95q0-2.35-3.87-2.17z" fill="#fff"/><path d="m248.7 316.12h15.3a10.78 10.78 0 0 1 5.43 3.25q2.32 3.28 2.32 5.27l.16 4.19v19.83c0 5.48-.42 8.22-1.24 8.22q-1.15 2.76-5 5.11l-1.71.62h-15.26a12.11 12.11 0 0 1 -6.82-5.73 10.67 10.67 0 0 1 -.77-4.65v-25.89q0-7.74 7.59-10.22zm3.72 11v23.25q0 2.94 1.86 2.94 5.89.31 5.89-1.55l.15-1.39v-22.79c.11-1.54-.51-2.42-1.86-2.63h-4.65a1.78 1.78 0 0 0 -1.39 2.17z" fill="#fff"/><path d="m287.17 316.12h17.51c.93 0 1.4.56 1.4 1.7v6.51a1.51 1.51 0 0 1 -1.71 1.71h-14.57c-.8-.05-1.22.37-1.24 1.24v24.05a1.7 1.7 0 0 0 1.55 1.67h14.6c.93 0 1.4.36 1.4 1.09v7.28c0 .83-.31 1.24-.93 1.24h-19.87a11.83 11.83 0 0 1 -5.74-3.25 11.32 11.32 0 0 1 -2.94-7.91v-24.49-.77q0-3.19 2.94-6.82a10.75 10.75 0 0 1 7.13-3.1z" fill="#fff"/></svg>