<svg height="512" viewBox="0 0 48 48" width="512" xmlns="http://www.w3.org/2000/svg"><g id="_5-star_product_quality" data-name="5-star product quality"><path d="m47 5c0 6.17.18 6.75-.54 8a4 4 0 0 1 -3.46 2h-15l-4 4-4-4h-15a4 4 0 0 1 -4-4v-6a4 4 0 0 1 3-3.87c.67-.19-1.79-.13 39-.13a4 4 0 0 1 4 4z" fill="#dad7e5"/><path d="m47 5c0 6.17.18 6.75-.54 8h-30.59a11.86 11.86 0 0 1 -11.87-11.87c0-.23 39.9-.13 39-.13a4 4 0 0 1 4 4z" fill="#edebf2"/><path d="m17 23v24h-10v-18h4z" fill="#edb996"/><path d="m17 26v19a8 8 0 0 1 -5.66-2.34c-2.96-2.98-2.34-6.15-2.34-11.66h3z" fill="#f6ccaf"/><path d="m17 23-6 6h-10l6-6z" fill="#f6ccaf"/><path d="m17 23-4 4h-2.34a2.34 2.34 0 0 1 -1.66-4z" fill="#ffdec7"/><path d="m41 29v18h-24v-24l6 6z" fill="#edb996"/><path d="m41 31v14h-2a19 19 0 0 1 -18.88-16.88l2.88 2.88z" fill="#f6ccaf"/><path d="m47 29h-24l-6-6h24z" fill="#f6ccaf"/><path d="m45 27h-15.34a13.65 13.65 0 0 1 -9.66-4c-.1-.1.35 0 21 0z" fill="#ffdec7"/><g fill="#fc6"><path d="m17.17 6.33-.17-.65a1 1 0 0 0 -1.9 0l-.22.65h-.88a1 1 0 0 0 -.62 1.78l.68.55-.34 1a1 1 0 0 0 .82 1.34c.58.08.87-.28 1.46-.76.65.53 1 1 1.7.71 1-.41.51-1.44.24-2.26.64-.51 1.28-.87 1-1.66s-.86-.7-1.77-.7z"/><path d="m25.17 6.33-.17-.65a1 1 0 0 0 -1.9 0l-.22.65h-.88a1 1 0 0 0 -.62 1.78l.68.55-.34 1a1 1 0 0 0 .82 1.34c.58.08.87-.29 1.46-.76.65.53 1 1 1.7.71 1-.41.51-1.44.24-2.26.64-.51 1.28-.87 1-1.66s-.86-.7-1.77-.7z"/><path d="m9.17 6.33-.17-.65a1 1 0 0 0 -1.9 0l-.22.65h-.88a1 1 0 0 0 -.62 1.78l.68.55-.34 1a1 1 0 0 0 .82 1.34c.58.08.87-.28 1.46-.76.65.53 1 1 1.7.71 1-.41.51-1.44.24-2.26.64-.51 1.28-.87 1-1.66s-.86-.7-1.77-.7z"/><path d="m33.17 6.33-.17-.65a1 1 0 0 0 -1.9 0l-.22.65h-.88a1 1 0 0 0 -.62 1.78l.68.55-.34 1a1 1 0 0 0 .82 1.34c.57.07.86-.28 1.46-.76.65.53 1 1 1.7.71 1-.41.51-1.44.24-2.26.64-.51 1.28-.87 1-1.66s-.86-.7-1.77-.7z"/><path d="m42.94 7c-.25-.73-.86-.67-1.77-.67-.17-.61-.34-1.33-1.17-1.33s-.93.63-1.17 1.33c-.78 0-1.5-.1-1.77.67a1 1 0 0 0 .32 1.11l.68.55c-.22.67-.61 1.42-.17 2a1.81 1.81 0 0 0 .46.32c.66.22 1.13-.32 1.65-.74.47.38.86.78 1.32.79a1.2 1.2 0 0 0 .79-.37c.44-.55.07-1.25-.17-2 .64-.51 1.28-.87 1-1.66z"/></g></g></svg>