<svg clip-rule="evenodd" fill-rule="evenodd" height="512" image-rendering="optimizeQuality" shape-rendering="geometricPrecision" text-rendering="geometricPrecision" viewBox="0 0 173.397 173.397" width="512" xmlns="http://www.w3.org/2000/svg"><g id="Layer_x0020_1"><g id="_219988336"><g fill="#31bccb" fill-rule="nonzero"><path id="_312325296" d="m110.653 85.0052c-.9352 0-1.6934.7582-1.6934 1.6934s.7582 1.6934 1.6934 1.6934h16.4521c.9352 0 1.6934-.7582 1.6934-1.6934s-.7582-1.6934-1.6934-1.6934z"/><path id="_312325224" d="m88.3922 110.653c0-.9352-.7582-1.6934-1.6934-1.6934s-1.6934.7582-1.6934 1.6934v16.4519c0 .9352.7582 1.6934 1.6934 1.6934s1.6934-.7582 1.6934-1.6934z"/><path id="_312325440" d="m62.7442 88.392c.9352 0 1.6934-.7582 1.6934-1.6934s-.7582-1.6934-1.6934-1.6934h-16.452c-.9352 0-1.6934.7582-1.6934 1.6934s.7582 1.6934 1.6934 1.6934z"/><path id="_312324912" d="m85.0053 62.744c0 .9352.7582 1.6934 1.6934 1.6934s1.6934-.7582 1.6934-1.6934v-16.4519c0-.9352-.7582-1.6934-1.6934-1.6934s-1.6934.7582-1.6934 1.6934z"/></g><g><path id="_312325344" d="m144.11 68.2413c10.1937 0 18.4573 8.2636 18.4573 18.4573 0 6.0405-2.9018 11.4028-7.3873 14.77h-22.14c-4.4854-3.3672-7.3872-8.7296-7.3872-14.77 0-10.1937 8.2636-18.4573 18.4572-18.4573z" fill="#0087ff"/><path id="_312324816" d="m149.83 79.4919c0 3.5481-2.561 7.4192-5.7203 7.4192s-5.7204-3.8711-5.7204-7.4192c0-8.4609 11.4407-8.4609 11.4407 0z" fill="#ffd180"/><path id="_312324792" d="m155.18 94.5124c0-2.4028-1.966-4.3689-4.3688-4.3689h-13.4022c-2.403 0-4.369 1.966-4.369 4.3689v6.9569c3.0842 2.315 6.9169 3.6867 11.07 3.6867 4.1532 0 7.9859-1.3717 11.07-3.6867z" fill="#fe5694"/></g><g><path id="_219990256" d="m29.2872 68.2413c10.1938 0 18.4574 8.2636 18.4574 18.4573 0 6.0405-2.9018 11.4028-7.3873 14.77h-22.1402c-4.4854-3.3672-7.3872-8.7296-7.3872-14.77 0-10.1937 8.2636-18.4573 18.4573-18.4573z" fill="#0087ff"/><path id="_219989608" d="m35.0076 79.4919c0 3.5481-2.5612 7.4192-5.7205 7.4192s-5.7204-3.8711-5.7204-7.4192c0-8.4609 11.4409-8.4609 11.4409 0z" fill="#ffd180"/><path id="_219989992" d="m40.3573 94.5124c0-2.4028-1.9661-4.3689-4.3689-4.3689h-13.4023c-2.403 0-4.369 1.966-4.369 4.3689v6.9569c3.0842 2.315 6.917 3.6867 11.0701 3.6867 4.1532 0 7.986-1.3717 11.0701-3.6867z" fill="#32d736"/></g><g><path id="_219989680" d="m86.6985 125.653c10.1937 0 18.4573 8.2636 18.4573 18.4573 0 6.0405-2.9018 11.4028-7.3873 14.77h-22.14c-4.4854-3.3672-7.3872-8.7296-7.3872-14.77 0-10.1937 8.2636-18.4573 18.4572-18.4573z" fill="#0087ff"/><path id="_219988984" d="m92.4188 136.903c0 3.5481-2.561 7.4192-5.7203 7.4192s-5.7204-3.8711-5.7204-7.4192c0-8.4609 11.4407-8.4609 11.4407 0z" fill="#ffd180"/><path id="_219989104" d="m97.7685 151.924c0-2.4028-1.966-4.3689-4.3688-4.3689h-13.4022c-2.403 0-4.369 1.966-4.369 4.3689v6.9569c3.0842 2.315 6.9169 3.6867 11.07 3.6867 4.1532 0 7.9859-1.3717 11.07-3.6867z" fill="#ffe600"/></g><g><path id="_219989032" d="m86.6986 10.8299c10.1938 0 18.4574 8.2636 18.4574 18.4573 0 6.0405-2.9018 11.4029-7.3873 14.7701l-22.1402-.0001c-4.4854-3.3672-7.3872-8.7296-7.3872-14.77 0-10.1937 8.2636-18.4573 18.4573-18.4573z" fill="#0087ff"/><path id="_219989392" d="m92.419 22.0805c0 3.5481-2.5611 7.4192-5.7205 7.4192-3.1593 0-5.7204-3.8711-5.7204-7.4192 0-8.461 11.4409-8.461 11.4409 0z" fill="#ffd180"/><path id="_219988888" d="m97.7687 37.101c0-2.4028-1.966-4.3689-4.3689-4.3689h-13.4023c-2.403 0-4.369 1.966-4.369 4.3689v6.9569c3.0842 2.315 6.917 3.6867 11.0701 3.6867 4.1532 0 7.986-1.3717 11.0701-3.6867z" fill="#fd481e"/></g><path id="_219988744" d="m86.6986 61.2986c14.0281 0 25.4 11.372 25.4 25.4 0 8.3126-3.9933 15.692-10.166 20.3258l-30.468-.0001c-6.1726-4.6338-10.1659-12.0132-10.1659-20.3257 0-14.028 11.3719-25.4 25.3999-25.4z" fill="#0087ff"/><path id="_219988072" d="m94.5706 76.7811c0 4.8827-3.5244 10.21-7.8721 10.21-4.3476 0-7.8721-5.3273-7.8721-10.21 0-11.6435 15.7442-11.6435 15.7442 0z" fill="#ffd180"/><path id="_219988432" d="m101.933 97.4515c0-3.3065-2.7056-6.0122-6.0122-6.0122h-18.4435c-3.3069 0-6.0123 2.7055-6.0123 6.0122v9.5737c4.2443 3.1858 9.5187 5.0735 15.234 5.0735 5.7154 0 10.9898-1.8877 15.234-5.0735z" fill="#ff9801"/></g></g></svg>