<svg id="Layer_1" enable-background="new 0 0 54 54" height="512" viewBox="0 0 54 54" width="512" xmlns="http://www.w3.org/2000/svg"><g><g><g><path d="m12.29 7.37h29.4v11.44h-29.4z" fill="#434240"/><path d="m41.71 7.38v11.43h-29.42z" fill="#302f2c"/><path d="m43.75 5.82c0 .86-.7 1.55-1.55 1.55h-30.4c-.86 0-1.55-.7-1.55-1.55 0-.86.7-1.55 1.55-1.55h30.4c.85 0 1.55.7 1.55 1.55z" fill="#434240"/><path d="m43.76 5.82c0 .86-.7 1.56-1.56 1.56h-30.4l30.4-3.11c.86 0 1.56.7 1.56 1.55z" fill="#302f2c"/><path d="m12.29 21.91h29.4v11.44h-29.4z" fill="#434240"/><path d="m41.71 21.92v11.43h-29.42z" fill="#302f2c"/><path d="m43.75 20.36c0 .86-.7 1.55-1.55 1.55h-30.4c-.86 0-1.55-.7-1.55-1.55 0-.86.7-1.55 1.55-1.55h30.4c.85 0 1.55.7 1.55 1.55z" fill="#434240"/><path d="m43.76 20.36c0 .86-.7 1.56-1.56 1.56h-30.4l30.4-3.11c.86 0 1.56.7 1.56 1.55z" fill="#302f2c"/><path d="m12.29 36.46h29.4v11.44h-29.4z" fill="#434240"/><path d="m41.71 36.46v11.43h-29.42z" fill="#302f2c"/><path d="m43.75 34.91c0 .86-.7 1.55-1.55 1.55h-30.4c-.86 0-1.55-.7-1.55-1.55 0-.86.7-1.55 1.55-1.55h30.4c.85-.01 1.55.69 1.55 1.55z" fill="#434240"/><path d="m43.76 34.9c0 .86-.7 1.56-1.56 1.56h-30.4l30.4-3.11c.86 0 1.56.7 1.56 1.55z" fill="#302f2c"/><path d="m43.75 49.45c0 .86-.7 1.55-1.55 1.55h-30.4c-.86 0-1.55-.7-1.55-1.55 0-.86.7-1.55 1.55-1.55h30.4c.85-.01 1.55.69 1.55 1.55z" fill="#434240"/><path d="m43.76 49.44c0 .86-.7 1.56-1.56 1.56h-30.4l30.4-3.11c.86 0 1.56.7 1.56 1.55z" fill="#302f2c"/></g><path d="m20.35 3.34v.92h-4.84v-.92c0-.19.15-.34.34-.34h4.16c.18 0 .34.15.34.34z" fill="#302f2c"/></g><g><path d="m36.8 27.63c0 5.42-4.39 9.8-9.8 9.8-5.42 0-9.8-4.38-9.8-9.8 0-5.4 4.38-9.8 9.8-9.8 5.4.01 9.8 4.4 9.8 9.8z" fill="#ff7c24"/><path d="m33.93 34.56c-3.84 3.83-10.04 3.82-13.86 0l13.86-13.86c3.82 3.83 3.82 10.05 0 13.86z" fill="#f60"/><path d="m35.39 27.63c0 4.64-3.77 8.39-8.39 8.39-4.64 0-8.39-3.75-8.39-8.39 0-4.63 3.75-8.39 8.39-8.39 4.63 0 8.39 3.77 8.39 8.39z" fill="#ffee1d"/><path d="m32.94 33.57c-3.29 3.29-8.6 3.27-11.87 0l11.87-11.87c3.27 3.27 3.27 8.59 0 11.87z" fill="#fc0"/><g><path d="m30.2 29.1c0 1.77-1.43 3.22-3.2 3.22s-3.2-1.45-3.2-3.22 3.2-6.14 3.2-6.14 3.2 4.37 3.2 6.14z" fill="#fff"/></g></g></g></svg>