<svg id="Capa_1" enable-background="new 0 0 512 512" height="512" viewBox="0 0 512 512" width="512" xmlns="http://www.w3.org/2000/svg"><g><g><g><path d="m415.965 479.941-15.998 16.009h-287.965l-15.998-16.009v-415.886l19.442-16.05h284.521l15.998 16.05z" fill="#fee07d"/><path d="m141.906 94.957h274.059v-30.902l-15.998-16.05h-284.52l-19.443 16.05v415.886l15.998 16.008h30.902l-15.998-16.008v-1.766c0-8.284 6.716-15 15-15h274.059v-30.933h-289.059v-242.772c0-8.284 6.716-15 15-15h274.059v-30.933h-289.059v-33.58c0-8.284 6.716-15 15-15z" fill="#ffcf64"/><path d="m415.965 512h-319.961c-8.835 0-15.998-7.163-15.998-15.998 0-8.835 7.163-15.998 15.998-15.998h319.961c8.835 0 15.998 7.163 15.998 15.998 0 8.835-7.163 15.998-15.998 15.998z" fill="#685e68"/><path d="m110.908 496.002c0-8.836 7.163-15.998 15.998-15.998h-30.902c-8.835 0-15.998 7.163-15.998 15.998s7.162 15.998 15.998 15.998h30.902c-8.836 0-15.998-7.163-15.998-15.998z" fill="#554e56"/><path d="m415.965 143.537h-319.961c-8.835 0-15.998-7.163-15.998-15.998 0-8.835 7.163-15.998 15.998-15.998h319.961c8.835 0 15.998 7.163 15.998 15.998 0 8.835-7.163 15.998-15.998 15.998z" fill="#685e68"/><path d="m110.908 127.539c0-8.836 7.163-15.998 15.998-15.998h-30.902c-8.835 0-15.998 7.162-15.998 15.998 0 8.836 7.163 15.998 15.998 15.998h30.902c-8.836 0-15.998-7.163-15.998-15.998z" fill="#554e56"/><path d="m415.965 432.01h-319.961c-8.835 0-15.998-7.163-15.998-15.998 0-8.835 7.163-15.998 15.998-15.998h319.961c8.835 0 15.998 7.163 15.998 15.998 0 8.835-7.163 15.998-15.998 15.998z" fill="#685e68"/><path d="m110.908 416.012c0-8.836 7.163-15.998 15.998-15.998h-30.902c-8.835 0-15.998 7.163-15.998 15.998 0 8.835 7.163 15.998 15.998 15.998h30.902c-8.836 0-15.998-7.163-15.998-15.998z" fill="#554e56"/><path d="m251.035 362.814-86.089-86.089c-2.734-2.734-2.734-7.166 0-9.899l86.089-86.089c2.734-2.734 7.166-2.734 9.899 0l86.089 86.089c2.734 2.734 2.734 7.166 0 9.899l-86.089 86.089c-2.734 2.734-7.166 2.734-9.899 0z" fill="#685e68"/><path d="m199.638 263.035 71.797-71.797-10.501-10.501c-2.734-2.734-7.166-2.734-9.899 0l-86.089 86.089c-2.734 2.734-2.734 7.166 0 9.899l86.089 86.089c2.734 2.734 7.166 2.734 9.899 0l10.501-10.501-71.797-71.797c-4.827-4.827-4.827-12.654 0-17.481z" fill="#554e56"/><path d="m274.736 271.533c8.156 14.199-1.375 32.427-17.736 33.108-17.802.742-28.181-18.46-19.767-33.108l12.681-22.077c2.691-4.685 9.449-4.685 12.14 0z" fill="#fee07d"/><path d="m175.994 39.965h-63.992v-32.965c0-3.866 3.134-7 7-7h49.992c3.866 0 7 3.134 7 7z" fill="#fee07d"/><path d="m149.002 0h-30c-3.866 0-7 3.134-7 7v32.965h30v-32.965c0-3.866 3.134-7 7-7z" fill="#ffcf64"/><path d="m415.965 64.055h-319.961c-8.835 0-15.998-7.163-15.998-15.998 0-8.835 7.163-15.998 15.998-15.998h79.959l80.021 15.998 143.982-.052z" fill="#685e68"/><path d="m110.908 48.057c0-8.836 7.163-15.998 15.998-15.998h-30.902c-8.835 0-15.998 7.162-15.998 15.998 0 8.836 7.163 15.998 15.998 15.998h30.902c-8.836 0-15.998-7.163-15.998-15.998z" fill="#554e56"/></g><path d="m367.314 131.892c.347-1.309.531-2.684.531-4.101v-28.666c0-6.456 5.234-11.69 11.69-11.69h8.71c6.456 0 11.69-5.234 11.69-11.69 0-6.456 5.234-11.69 11.69-11.69h4.339c9.11 0 16.445-7.599 16.011-16.804-.406-8.622-7.833-15.254-16.464-15.254h-239.549l13.063 21.387 24.945 14.285 7.249 23.666 8.102 11.513 10.119-2.936c.278-1.171.546-2.87.546-4.126 0-8.706 7.057-15.763 15.763-15.763h.345c8.706 0 15.763 7.057 15.763 15.763l32.059 31.739c0-8.827 7.156-15.982 15.982-15.982 8.827 0 15.982 7.156 15.982 15.982z" fill="#bce098"/><g fill="#acd680"><path d="m238.83 95.512v-18.897c0-6.937-5.623-12.56-12.56-12.56-10.717 0-19.405-8.688-19.405-19.405v-12.654h208.648-.001-239.549v12.654c0 10.717 8.688 19.405 19.405 19.405 6.937 0 12.56 5.623 12.56 12.56v18.897c0 8.853 7.176 16.029 16.029 16.029h.273c7.275 0 13.398-4.93 15.211-11.631-.398-1.398-.611-2.873-.611-4.398z"/><path d="m366.783 127.791v-.268c0-8.827-7.156-15.982-15.982-15.982-7.409 0-13.64 5.042-15.451 11.881.346 1.309.531 2.683.531 4.101v.268c0 8.92 7.302 16.114 16.221 15.981 7.316-.109 13.423-5.121 15.212-11.879-.347-1.309-.531-2.683-.531-4.102z"/><path d="m303.916 191.977.063-97.02c0-8.706-8.277-14.935-16.982-14.935h-.345c-7.362 0-13.545 5.047-15.278 11.87.316 1.245.485 2.549.485 3.892v96.192c0 8.853 7.176 16.029 16.029 16.029 7.37 0 13.578-4.974 15.451-11.748.295-1.281.514-2.547.577-4.28z"/></g><circle cx="352.068" cy="192.262" fill="#bce098" r="16.125"/></g></g></svg>