<svg id="Capa_1" enable-background="new 0 0 512 512" height="512" viewBox="0 0 512 512" width="512" xmlns="http://www.w3.org/2000/svg"><g><path d="m497.158 372.023h-482.316c-8.197 0-14.842-6.645-14.842-14.842v-342.339c0-8.197 6.645-14.842 14.842-14.842h482.316c8.197 0 14.842 6.645 14.842 14.842v342.339c0 8.197-6.645 14.842-14.842 14.842z" fill="#6c5e69"/><path d="m497.158 0h-23.137c8.197 0 14.842 6.645 14.842 14.842v342.339c0 8.197-6.645 14.842-14.842 14.842h23.137c8.197 0 14.842-6.645 14.842-14.842v-342.339c0-8.197-6.645-14.842-14.842-14.842z" fill="#574d56"/><path d="m306.833 77.235h-237.687c-5.513 0-9.981-4.469-9.981-9.981v-67.254h257.649v67.254c0 5.512-4.469 9.981-9.981 9.981z" fill="#baafb8"/><path d="m296.154 0v67.254c0 5.512-4.469 9.981-9.981 9.981h20.66c5.513 0 9.981-4.469 9.981-9.981v-67.254z" fill="#ad9ca9"/><path d="m294.52 77.235h-213.06v414.681c0 11.092 8.992 20.083 20.083 20.083h172.893c11.092 0 20.083-8.992 20.083-20.083v-414.681z" fill="#e6f6ff"/><path d="m81.46 77.235v18.543h174.972c9.761 0 17.673 7.913 17.673 17.673v378.465c0 11.092-8.992 20.083-20.083 20.083h20.415c11.092 0 20.083-8.992 20.083-20.083v-414.681z" fill="#d1edff"/><g><path d="m199.631 443.632c-1.233 0-2.483-.296-3.646-.919l-36.373-19.513c-2.457-1.319-4.014-3.859-4.072-6.647s1.39-5.391 3.79-6.811l37.128-21.974-46.893-22.965c-2.783-1.362-4.482-4.255-4.317-7.348.164-3.094 2.16-5.791 5.071-6.85l58.125-21.168-78.235-22.675c-3.211-.931-5.459-3.82-5.571-7.161s1.937-6.375 5.078-7.519l65.003-23.671-35.388-20.938c-2.571-1.522-4.035-4.389-3.759-7.364s2.242-5.524 5.05-6.546l60.415-21.996-60.415-22c-2.379-.866-4.183-2.843-4.827-5.291-.645-2.449-.05-5.057 1.594-6.984l24.724-28.977c2.77-3.245 7.646-3.632 10.893-.862 3.246 2.77 3.632 7.646.863 10.892l-17.501 20.51 69.896 25.453c3.052 1.111 5.082 4.012 5.082 7.26s-2.031 6.149-5.083 7.261l-65.001 23.665 35.387 20.938c2.571 1.521 4.035 4.389 3.759 7.364s-2.242 5.523-5.049 6.545l-58.124 21.166 78.234 22.675c3.211.931 5.459 3.82 5.571 7.161s-1.937 6.375-5.078 7.519l-63.293 23.049 43.443 21.276c2.551 1.248 4.21 3.796 4.322 6.634.112 2.837-1.341 5.508-3.785 6.954l-37.656 22.287 24.297 13.034c3.761 2.018 5.174 6.701 3.156 10.462-1.393 2.596-4.06 4.072-6.815 4.074z" fill="#6c5e69"/></g><path d="m429.262 322.347h-58.295c-5.136 0-9.3-4.164-9.3-9.3v-44.685l12.266-40.014-12.266-34.385v-44.685c0-5.136 4.164-9.3 9.3-9.3h58.295c5.136 0 9.3 4.164 9.3 9.3v44.685l-10.765 37.2 10.765 37.2v44.685c0 5.136-4.164 9.299-9.3 9.299z" fill="#ff6c53"/><path d="m429.262 139.977h-21.53c5.136 0 9.3 4.164 9.3 9.3v163.77c0 5.136-4.164 9.3-9.3 9.3h21.53c5.136 0 9.3-4.164 9.3-9.3v-44.685l-10.765-37.2 10.765-37.2v-44.685c0-5.136-4.164-9.3-9.3-9.3z" fill="#ff534a"/><path d="m361.667 193.962h76.895v74.4h-76.895z" fill="#ffea76"/><path d="m417.032 193.962h21.53v74.4h-21.53z" fill="#ffe54c"/><g><g><path d="m370.059 50.167h-12.248c-4.268 0-7.726-3.459-7.726-7.726s3.459-7.726 7.726-7.726h12.248c4.268 0 7.726 3.459 7.726 7.726s-3.458 7.726-7.726 7.726z" fill="#ff6c53"/></g><g><path d="m418.601 50.167h-12.25c-4.268 0-7.726-3.459-7.726-7.726s3.459-7.726 7.726-7.726h12.25c4.268 0 7.726 3.459 7.726 7.726s-3.458 7.726-7.726 7.726z" fill="#9be69d"/></g><g><path d="m467.142 50.167h-12.249c-4.268 0-7.726-3.459-7.726-7.726s3.459-7.726 7.726-7.726h12.249c4.268 0 7.726 3.459 7.726 7.726s-3.458 7.726-7.726 7.726z" fill="#ff6c53"/></g></g><g><g><path d="m370.059 84.961h-12.248c-4.268 0-7.726-3.459-7.726-7.726 0-4.268 3.459-7.726 7.726-7.726h12.248c4.268 0 7.726 3.459 7.726 7.726 0 4.268-3.458 7.726-7.726 7.726z" fill="#9be69d"/></g><g><path d="m418.601 84.961h-12.25c-4.268 0-7.726-3.459-7.726-7.726 0-4.268 3.459-7.726 7.726-7.726h12.25c4.268 0 7.726 3.459 7.726 7.726.001 4.268-3.458 7.726-7.726 7.726z" fill="#ff6c53"/></g><g><path d="m467.142 84.961h-12.249c-4.268 0-7.726-3.459-7.726-7.726 0-4.268 3.459-7.726 7.726-7.726h12.249c4.268 0 7.726 3.459 7.726 7.726.001 4.268-3.458 7.726-7.726 7.726z" fill="#9be69d"/></g></g><g><path d="m38.889 312.864c-4.267 0-7.726-3.459-7.726-7.726v-161.532c0-4.268 3.459-7.726 7.726-7.726s7.726 3.459 7.726 7.726v161.531c.001 4.268-3.458 7.727-7.726 7.727z" fill="#574d56"/></g><g><path d="m406.805 238.889h-13.382c-4.268 0-7.726-3.459-7.726-7.726 0-4.268 3.459-7.726 7.726-7.726h13.382c4.268 0 7.726 3.459 7.726 7.726.001 4.267-3.458 7.726-7.726 7.726z" fill="#ff6c53"/></g><g><g><path d="m274.865 44.269h-15.425c-4.267 0-7.726-3.459-7.726-7.726s3.459-7.726 7.726-7.726h15.425c4.268 0 7.726 3.459 7.726 7.726s-3.459 7.726-7.726 7.726z" fill="#6c5e69"/></g><g><path d="m116.538 44.269h-15.424c-4.267 0-7.726-3.459-7.726-7.726s3.459-7.726 7.726-7.726h15.424c4.267 0 7.726 3.459 7.726 7.726s-3.459 7.726-7.726 7.726z" fill="#6c5e69"/></g></g><path d="m218.158 72.609c0 16.661-13.507 90.958-30.168 90.958s-30.168-74.297-30.168-90.958 13.507-30.168 30.168-30.168 30.168 13.506 30.168 30.168z" fill="#6c5e69"/><path d="m187.99 42.441c-3.23 0-6.34.513-9.257 1.453 12.131 3.908 20.911 15.284 20.911 28.715 0 13.432-8.779 64.311-20.911 83.535 2.917 4.623 6.028 7.423 9.257 7.423 16.661 0 30.168-74.297 30.168-90.958s-13.507-30.168-30.168-30.168z" fill="#574d56"/></g></svg>