<svg id="Capa_1" enable-background="new 0 0 512 512" height="512" viewBox="0 0 512 512" width="512" xmlns="http://www.w3.org/2000/svg"><g><g><g><path d="m379.805 486.584c-2.34 0-4.652-1.058-6.171-3.069-2.572-3.404-1.897-8.25 1.508-10.822l56.755-42.875c3.404-2.573 8.25-1.896 10.822 1.508s1.897 8.25-1.508 10.822l-56.755 42.875c-1.393 1.053-3.029 1.561-4.651 1.561z" fill="#574d56"/></g><g><path d="m442.527 424.963c-3.365 0-6.461-2.216-7.428-5.614l-29.909-105.127c-1.168-4.105 1.213-8.378 5.317-9.546 4.108-1.171 8.378 1.212 9.546 5.317l29.909 105.128c1.168 4.105-1.213 8.378-5.317 9.546-.707.201-1.418.296-2.118.296z" fill="#574d56"/></g><g><path d="m382.762 97.09c-1.872 0-3.751-.676-5.235-2.046l-35.973-33.168c-3.137-2.892-3.335-7.781-.443-10.918s7.782-3.336 10.917-.443l35.973 33.168c3.137 2.892 3.335 7.781.443 10.918-1.523 1.652-3.599 2.489-5.682 2.489z" fill="#574d56"/></g><g><path d="m416.559 198.771c-3.556 0-6.758-2.471-7.543-6.088l-17.832-82.056c-.906-4.17 1.739-8.285 5.909-9.191 4.175-.904 8.286 1.74 9.191 5.909l17.832 82.056c.906 4.17-1.739 8.285-5.909 9.191-.553.121-1.105.179-1.648.179z" fill="#574d56"/></g><g><path d="m360.345 236.459c-1.557 0-3.129-.469-4.491-1.445l-63.02-45.105c-3.47-2.483-4.27-7.31-1.786-10.78 2.484-3.471 7.313-4.27 10.78-1.786l63.02 45.105c3.47 2.483 4.27 7.31 1.786 10.78-1.509 2.109-3.882 3.231-6.289 3.231z" fill="#574d56"/></g><g><path d="m360.351 268.086h-133.062c-4.267 0-7.726-3.459-7.726-7.726s3.459-7.726 7.726-7.726h133.062c4.268 0 7.726 3.459 7.726 7.726s-3.459 7.726-7.726 7.726z" fill="#574d56"/></g><g><path d="m55.197 333.7c-2.408 0-4.781-1.123-6.29-3.23-2.483-3.47-1.684-8.297 1.786-10.78l59.526-42.604c3.472-2.482 8.297-1.683 10.78 1.786 2.483 3.47 1.684 8.297-1.786 10.78l-59.526 42.604c-1.362.974-2.934 1.444-4.49 1.444z" fill="#574d56"/></g><g><path d="m154.169 406.505c-.544 0-1.095-.058-1.648-.178-4.17-.906-6.815-5.021-5.909-9.191l16.386-75.404c.906-4.17 5.02-6.81 9.191-5.909 4.17.906 6.815 5.021 5.909 9.191l-16.386 75.404c-.786 3.616-3.987 6.087-7.543 6.087z" fill="#574d56"/></g><g><path d="m101.3 463.531c-2.083 0-4.159-.837-5.682-2.489-2.893-3.137-2.695-8.025.443-10.918l34.768-32.058c3.137-2.892 8.025-2.693 10.917.443 2.893 3.137 2.695 8.025-.443 10.918l-34.768 32.058c-1.485 1.369-3.363 2.046-5.235 2.046z" fill="#574d56"/></g><g><path d="m168.106 204.199c-.7 0-1.411-.096-2.118-.297-4.104-1.168-6.485-5.442-5.317-9.546l29.068-102.171c1.168-4.104 5.444-6.487 9.546-5.317 4.104 1.168 6.485 5.442 5.317 9.546l-29.068 102.171c-.967 3.397-4.063 5.614-7.428 5.614z" fill="#574d56"/></g><g><path d="m187.152 80.795c-1.622 0-3.257-.508-4.651-1.561l-54.35-41.057c-3.404-2.572-4.079-7.418-1.508-10.822s7.417-4.079 10.822-1.508l54.35 41.057c3.404 2.572 4.079 7.418 1.508 10.822-1.52 2.011-3.831 3.069-6.171 3.069z" fill="#574d56"/></g></g><circle cx="171.073" cy="260.36" fill="#ffea76" r="74.333"/><path d="m171.073 186.027c-4.453 0-8.807.414-13.045 1.164 34.829 6.169 61.288 36.569 61.288 73.169s-26.459 66.999-61.288 73.168c4.238.751 8.592 1.164 13.045 1.164 41.053 0 74.333-33.28 74.333-74.333 0-41.052-33.28-74.332-74.333-74.332z" fill="#ffe54c"/><g fill="#6c5e69"><path d="m192.729 266.802c0 11.96-9.696 21.656-21.656 21.656s-21.656-9.696-21.656-21.656 9.696-34.54 21.656-34.54 21.656 22.579 21.656 34.54z"/><circle cx="199.923" cy="83.115" r="25.867"/><circle cx="122.611" cy="25.871" r="25.867"/><circle cx="46.972" cy="335.095" r="25.867"/><circle cx="148.512" cy="414.51" r="25.867"/></g><circle cx="416.566" cy="251.64" fill="#ffea76" r="74.333"/><path d="m416.566 325.973c-4.453 0-8.807-.414-13.045-1.164 34.829-6.169 61.288-36.569 61.288-73.169s-26.459-66.999-61.288-73.168c4.238-.751 8.592-1.164 13.045-1.164 41.053 0 74.333 33.28 74.333 74.333 0 41.052-33.28 74.332-74.333 74.332z" fill="#ffe54c"/><path d="m394.91 258.082c0 11.96 9.696 21.656 21.656 21.656s21.656-9.696 21.656-21.656-9.696-34.54-21.656-34.54-21.656 22.579-21.656 34.54z" fill="#6c5e69"/><circle cx="445.416" cy="428.885" fill="#6c5e69" r="25.867"/><circle cx="368.105" cy="486.129" fill="#6c5e69" r="25.867"/><circle cx="292.466" cy="176.905" fill="#6c5e69" r="25.867"/><circle cx="394.006" cy="97.49" fill="#6c5e69" r="25.867"/></g></svg>