<svg height="512" viewBox="0 0 60 60" width="512" xmlns="http://www.w3.org/2000/svg"><g id="Icons"><path d="m48 48v6a2 2 0 0 1 -2 2h-32a2 2 0 0 1 -2-2v-6z" fill="#84b5cb"/><rect fill="#9fc9d3" height="46" rx="4" width="58" x="1" y="4"/><path d="m54 11v32a2.006 2.006 0 0 1 -2 2h-22v-36h22a2.006 2.006 0 0 1 2 2z" fill="#3f5c6c"/><path d="m30 9v36h-22a2.006 2.006 0 0 1 -2-2v-32a2.006 2.006 0 0 1 2-2z" fill="#547580"/><path d="m23.66 17.34-2.83 2.83a3.812 3.812 0 0 0 -1.93-1.07 4 4 0 0 0 -3.73 1.07l-2.83-2.83a8.018 8.018 0 0 1 7.23-2.19 7.8 7.8 0 0 1 4.09 2.19z" fill="#f0c419"/><path d="m14.64 25.18a1.01 1.01 0 0 1 -.1 1.28l-1.44 1.44a1 1 0 0 1 -1.5-.1 8.008 8.008 0 0 1 .74-10.46l2.83 2.83a4.025 4.025 0 0 0 -1.17 2.83 4.066 4.066 0 0 0 .64 2.18z" fill="#e64c3c"/><path d="m24.39 27.81a.993.993 0 0 1 -1.49.09l-1.44-1.44a1 1 0 0 1 -.11-1.27 4 4 0 0 0 .49-3.32 3.791 3.791 0 0 0 -1.01-1.7l2.83-2.83a7.779 7.779 0 0 1 2.18 4.05 7.994 7.994 0 0 1 -1.45 6.42z" fill="#4fba6f"/><path d="m18 24a1 1 0 0 1 -1-1v-5a1 1 0 0 1 2 0v5a1 1 0 0 1 -1 1z" fill="#ecf0f1"/><path d="m50 32.075a7.967 7.967 0 0 1 -8.317 7.919c-5.119-.2-8.53-5.228-7.434-10.185.935-4.227 4.2-7.238 4.69-13.087a.775.775 0 0 1 1.263-.545c2.853 2.355 9.798 8.814 9.798 15.898z" fill="#f0c419"/><path d="m47 35a8.637 8.637 0 0 0 -.458-2.859.547.547 0 0 0 -.971-.131 1.918 1.918 0 0 1 -1.641.99c-1.457 0-2.941-1.038-2.27-5.375a.55.55 0 0 0 -.945-.454c-1.715 1.829-3.715 4.935-3.715 8.202a4.848 4.848 0 0 0 5.213 4.618 4.947 4.947 0 0 0 4.787-4.991" fill="#f29c1f"/><g fill="#ecf0f1"><path d="m23 33h-10a1 1 0 0 1 0-2h10a1 1 0 0 1 0 2z"/><path d="m23 37h-10a1 1 0 0 1 0-2h10a1 1 0 0 1 0 2z"/><path d="m20 41h-7a1 1 0 0 1 0-2h7a1 1 0 0 1 0 2z"/></g></g></svg>