<?xml version="1.0" encoding="iso-8859-1"?>
<!-- Generator: Adobe Illustrator 19.0.0, SVG Export Plug-In . SVG Version: 6.00 Build 0)  -->
<svg version="1.1" id="Capa_1" xmlns="http://www.w3.org/2000/svg" xmlns:xlink="http://www.w3.org/1999/xlink" x="0px" y="0px"
	 viewBox="0 0 512 512" style="enable-background:new 0 0 512 512;" xml:space="preserve">
<rect x="136.942" y="133.831" style="fill:#FFE380;" width="340.495" height="316.616"/>
<path style="fill:#C13247;" d="M363.711,200.269H250.667c-10.33,0-18.704,8.374-18.704,18.704v231.47h150.453v-231.47
	C382.415,208.644,374.042,200.269,363.711,200.269z"/>
<rect x="262.407" y="230.719" style="fill:#DC5A64;" width="89.564" height="219.727"/>
<rect x="117.049" y="424.352" style="fill:#EFEDEE;" width="380.291" height="52.182"/>
<rect x="136.942" y="133.831" style="fill:#E8B921;" width="340.495" height="46.253"/>
<path style="fill:#DC5A64;" d="M509.562,138.973L310.356,2.164c-1.908-1.31-4.426-1.31-6.334,0L104.816,138.973
	c-4.53,3.111-2.328,10.205,3.167,10.205h398.412C511.89,149.178,514.092,142.085,509.562,138.973z"/>
<g>
	<path style="fill:#3A484A;" d="M235.862,105.689c-4.267,0-7.726-3.459-7.726-7.726V85.054c0-4.267,3.459-7.726,7.726-7.726
		c4.267,0,7.726,3.459,7.726,7.726v12.909C243.588,102.23,240.129,105.689,235.862,105.689z"/>
	<path style="fill:#3A484A;" d="M378.517,105.689c-4.267,0-7.726-3.459-7.726-7.726V85.054c0-4.267,3.459-7.726,7.726-7.726
		s7.726,3.459,7.726,7.726v12.909C386.243,102.23,382.784,105.689,378.517,105.689z"/>
	<path style="fill:#3A484A;" d="M307.189,112.579c-9.091,0-17.628-3.801-23.422-10.431c-2.808-3.213-2.481-8.094,0.732-10.902
		c3.212-2.808,8.093-2.481,10.902,0.732c2.859,3.271,7.156,5.148,11.787,5.148c4.632,0,8.929-1.876,11.787-5.147
		c2.809-3.213,7.69-3.541,10.902-0.732c3.213,2.808,3.542,7.689,0.732,10.902C324.818,108.778,316.281,112.579,307.189,112.579z"/>
	<path style="fill:#3A484A;" d="M97.782,510.818c-24.39,0-44.232-19.843-44.232-44.232c0-8.407,6.816-15.223,15.223-15.223
		s15.223,6.816,15.223,15.223c0,7.601,6.184,13.785,13.785,13.785c7.601,0,13.786-6.184,13.786-13.785V344.038
		c0-8.407,6.816-15.223,15.223-15.223s15.223,6.816,15.223,15.223v122.548C142.015,490.976,122.173,510.818,97.782,510.818z"/>
</g>
<path style="fill:#323E40;" d="M126.792,328.814c-8.407,0-15.223,6.816-15.223,15.223v53.629c4.718,2.256,9.906,3.457,15.223,3.457
	s10.506-1.202,15.224-3.457v-53.629C142.015,335.631,135.2,328.814,126.792,328.814z"/>
<path style="fill:#DC5A64;" d="M253.558,360.916c-2.865-31.824-20.486-116.114-126.766-116.114S2.891,329.091,0.026,360.916
	c-0.42,4.673,4.247,8.162,8.576,6.353c5.174-2.162,11.31-3.414,17.891-3.414c11.091,0,20.921,3.556,27.002,9.032
	c3.679,3.312,9.182,3.312,12.861,0c6.082-5.475,15.911-9.032,27.002-9.032s20.921,3.556,27.002,9.032
	c3.679,3.312,9.182,3.312,12.861,0c6.082-5.475,15.911-9.032,27.002-9.032c11.091,0,20.921,3.556,27.002,9.032
	c3.678,3.312,9.182,3.312,12.861,0c6.082-5.475,15.911-9.032,27.002-9.032c6.581,0,12.718,1.252,17.891,3.414
	C249.311,369.078,253.978,365.589,253.558,360.916z"/>
<path style="fill:#C13247;" d="M30.932,360.916c2.721-30.214,18.751-107.707,111.313-115.474c-4.934-0.414-10.074-0.64-15.453-0.64
	c-106.28,0-123.901,84.289-126.766,116.114c-0.42,4.673,4.247,8.162,8.577,6.353c5.174-2.162,11.31-3.414,17.891-3.414
	c1.695,0,3.354,0.093,4.981,0.253C31.037,363.157,30.828,362.074,30.932,360.916z"/>
<g>
</g>
<g>
</g>
<g>
</g>
<g>
</g>
<g>
</g>
<g>
</g>
<g>
</g>
<g>
</g>
<g>
</g>
<g>
</g>
<g>
</g>
<g>
</g>
<g>
</g>
<g>
</g>
<g>
</g>
</svg>
