<?xml version="1.0" encoding="iso-8859-1"?>
<!-- Generator: Adobe Illustrator 19.0.0, SVG Export Plug-In . SVG Version: 6.00 Build 0)  -->
<svg version="1.1" id="Capa_1" xmlns="http://www.w3.org/2000/svg" xmlns:xlink="http://www.w3.org/1999/xlink" x="0px" y="0px"
	 viewBox="0 0 512 512" style="enable-background:new 0 0 512 512;" xml:space="preserve">
<path style="fill:#D4D2D3;" d="M479.714,58.439H92.482L23.716,388.143l-1.294-3.236l-8.213,24.467v24.351
	C14.208,476.955,49.253,512,92.482,512h387.232c9.984,0,18.078-8.093,18.078-18.078V76.517
	C497.792,66.533,489.699,58.439,479.714,58.439z"/>
<path style="fill:#EFEDEE;" d="M76.052,0.307C40.711,7.856,14.208,39.259,14.208,76.853v356.872
	c0-39.361,29.054-71.938,66.887-77.452c6.576-0.958,11.388-6.712,11.388-13.356V13.525C92.482,4.885,84.502-1.498,76.052,0.307z"/>
<polygon style="fill:#00A6C8;" points="449.54,277.494 449.54,106.691 302.863,106.691 293.978,111.848 287.41,106.691 
	235.665,106.691 226.78,111.848 220.212,106.691 140.733,106.691 140.733,186.17 140.733,186.17 146.043,192.607 140.733,201.623 
	140.733,201.623 140.733,310.466 140.733,310.466 146.043,316.902 140.733,325.918 140.733,325.918 140.733,463.748 
	282.407,463.748 290.955,457.706 297.859,463.748 372.581,463.748 381.13,457.706 388.034,463.748 449.54,463.748 449.54,292.946 
	443.079,285.22 "/>
<g>
	<path style="fill:#EFEDEE;" d="M220.212,106.691c0,43.825-35.655,79.479-79.48,79.479l0,0v15.453l0,0
		c52.346,0,94.932-42.587,94.932-94.932H220.212z"/>
	<path style="fill:#EFEDEE;" d="M287.41,106.691v114.195c0,4.267,3.459,7.726,7.726,7.726c4.267,0,7.726-3.459,7.726-7.726v-49.37
		h74.479c4.267,0,7.726-3.459,7.726-7.726s-3.459-7.726-7.726-7.726h-74.479v-49.37H287.41V106.691z"/>
	<path style="fill:#EFEDEE;" d="M449.54,277.494L449.54,277.494h-82.205c-4.267,0-7.726,3.459-7.726,7.726s3.459,7.726,7.726,7.726
		h82.205l0,0V277.494z"/>
	<path style="fill:#EFEDEE;" d="M254.927,310.466H140.733l0,0v15.453l0,0h49.37v74.479c0,4.267,3.459,7.726,7.726,7.726
		c4.267,0,7.726-3.459,7.726-7.726v-74.479h49.37c4.267,0,7.726-3.459,7.726-7.726C262.653,313.925,259.194,310.466,254.927,310.466
		z"/>
	<path style="fill:#EFEDEE;" d="M380.308,363.452h-90.175c-4.267,0-7.726,3.459-7.726,7.726v92.571h15.453v-84.845h74.722v84.845
		h15.453v-92.571C388.034,366.91,384.575,363.452,380.308,363.452z"/>
</g>
<g>
</g>
<g>
</g>
<g>
</g>
<g>
</g>
<g>
</g>
<g>
</g>
<g>
</g>
<g>
</g>
<g>
</g>
<g>
</g>
<g>
</g>
<g>
</g>
<g>
</g>
<g>
</g>
<g>
</g>
</svg>
