<svg id="Layer_1" enable-background="new 0 0 512 512" viewBox="0 0 512 512" xmlns="http://www.w3.org/2000/svg"><g><g><g><path clip-rule="evenodd" d="m311.287 106.8c-41.107-20.231-65.049-60.725-67.791-101.8h-40.752c3.388 65.727 47.948 120.515 108.544 141.198 43.785 21.554 68.082 66.082 68.082 109.802s-24.297 88.249-68.082 109.802c-60.597 20.683-105.157 75.471-108.545 141.198h40.752c2.743-41.075 26.684-81.602 67.792-101.833 14.133-4.808 27.362-11.455 39.397-19.682 41.946-28.588 69.373-75.923 69.373-129.485s-27.426-100.897-69.373-129.485c-12.035-8.228-25.264-14.875-39.397-19.715z" fill="#08a9f1" fill-rule="evenodd"/></g><g><path clip-rule="evenodd" d="m311.287 106.8c-8.26-4.033-15.811-8.938-22.651-14.455-9.874 4.453-19.36 9.744-28.33 15.875-2.065 1.387-4.098 2.839-6.098 4.324 16.295 14.81 35.687 26.362 57.079 33.654 8.518 4.195 16.295 9.26 23.296 15.004 10.293-4.55 20.166-10.035 29.491-16.391 1.742-1.194 3.42-2.388 5.098-3.614-5.776-5.324-11.939-10.228-18.489-14.681-12.034-8.229-25.263-14.876-39.396-19.716zm23.297 243.999c-7.002 5.743-14.778 10.809-23.296 15.004-21.393 7.292-40.785 18.844-57.079 33.654 2.001 1.484 4.033 2.936 6.098 4.324 8.97 6.131 18.456 11.422 28.33 15.875 6.84-5.518 14.391-10.422 22.651-14.488 14.133-4.808 27.362-11.455 39.397-19.682 6.55-4.453 12.713-9.357 18.521-14.681-10.681-7.81-22.297-14.553-34.622-20.006z" fill="#0098de" fill-rule="evenodd"/></g><g><path clip-rule="evenodd" d="m312.191 106.8c41.107-20.231 65.049-60.725 67.824-101.8h40.72c-2.581 50.271-29.298 94.347-69.147 121.515-12.035 8.196-25.265 14.875-39.397 19.682-43.785 21.554-68.082 66.082-68.082 109.802s24.297 88.249 68.082 109.802c60.628 20.684 105.188 75.472 108.544 141.199h-40.72c-2.775-41.075-26.717-81.602-67.824-101.833-14.133-4.808-27.362-11.455-39.397-19.682-41.946-28.588-69.34-75.923-69.34-129.485s27.394-100.897 69.34-129.485c12.035-8.228 25.264-14.875 39.397-19.715z" fill="#ff526e" fill-rule="evenodd"/></g><g><path clip-rule="evenodd" d="m168.606 349.572-41.172 63.436c-5.905 9.067-18.134 11.68-27.201 5.808-9.099-5.872-11.713-18.134-5.808-27.201l41.14-63.436z" fill="#ff526e" fill-rule="evenodd"/></g><g><path clip-rule="evenodd" d="m176.35 76.276 7.647 13.23 7.647 13.261-7.647 13.229-7.647 13.229h-15.262-15.295l-7.647-13.229-7.647-13.261 7.647-13.229 7.647-13.23h15.262z" fill="#ae66d8" fill-rule="evenodd"/></g><g><path clip-rule="evenodd" d="m200.291 385.743 5.421 9.39 5.421 9.421-5.421 9.39-5.421 9.389h-10.841-10.842l-5.421-9.389-5.42-9.39 5.42-9.421 5.421-9.39h10.842z" fill="#ae66d8" fill-rule="evenodd"/></g><g><path clip-rule="evenodd" d="m183.868 169.817c49.787-10.616 98.767 21.102 109.415 70.889 10.616 49.787-21.102 98.767-70.889 109.415-49.787 10.616-98.767-21.102-109.415-70.889-10.616-49.787 21.102-98.768 70.889-109.415z" fill="#9ce8ff" fill-rule="evenodd"/></g><g><path clip-rule="evenodd" d="m223.975 170.171c-22.78 23.329-35.042 54.789-35.042 85.829 0 33.88 14.617 68.211 41.527 91.991-2.646.807-5.324 1.517-8.067 2.13-14.713 3.13-29.33 2.581-42.914-1.065-19.618-26.103-31.202-58.273-31.202-93.056 0-30.427 8.873-58.854 24.2-82.957 3.678-1.291 7.486-2.388 11.39-3.227 13.682-2.903 27.33-2.613 40.108.355z" fill="#d22a69" fill-rule="evenodd"/></g></g><path d="m314.854 397.715c-.272-.134-.553-.25-.84-.348-13.195-4.479-25.777-10.766-37.409-18.695-4.516-3.064-8.983-6.474-13.278-10.136-2.942-2.509-7.362-2.157-9.871.786s-2.157 7.362.786 9.871c1.989 1.696 4.019 3.331 6.067 4.921-38.437 29.357-61.662 72.79-64.105 120.523-.197 3.862 2.773 7.153 6.635 7.35.122.006.243.01.364.01 3.703 0 6.795-2.904 6.986-6.644 2.303-45.015 24.892-85.87 62.15-112.728 7.27 4.69 14.864 8.802 22.716 12.31-33.683 21.757-55.692 58.724-58.451 99.589-.26 3.858 2.656 7.197 6.514 7.458.161.011.32.016.479.016 3.651 0 6.729-2.833 6.979-6.53.589-8.728 2.168-17.254 4.631-25.445h112.205c2.463 8.19 4.042 16.717 4.631 25.445.25 3.698 3.327 6.53 6.979 6.53.158 0 .318-.005.479-.016 3.858-.261 6.774-3.599 6.514-7.458-3.092-45.808-30.359-86.734-71.161-106.809zm-3.544 13.922c12.757 6.703 23.952 15.725 33.148 26.432h-66.298c9.197-10.707 20.393-19.728 33.15-26.432zm-50.883 54.382c2.163-4.823 4.652-9.482 7.442-13.947h86.5c.126 0 .248-.012.372-.019 2.794 4.47 5.286 9.135 7.452 13.966zm131.986-52.117c-8.774-11.23-18.884-21.22-30.086-29.799 39.883-30.978 63.417-78.169 63.417-128.103 0-49.907-23.536-97.098-63.42-128.1 11.202-8.58 21.314-18.57 30.089-29.802 20.564-26.321 32.322-57.698 34.002-90.738.196-3.862-2.775-7.151-6.637-7.348-3.861-.179-7.152 2.775-7.348 6.637-2.388 46.954-26.9 88.867-65.164 114.936-.564.282-1.092.646-1.571 1.081-11.019 7.309-23.148 13.318-36.194 17.772-.287.098-.567.214-.839.349-.241.119-.477.248-.717.369-.032.018-.066.032-.098.05-9.463 4.759-18.308 10.661-26.291 17.573-2.924 2.531-3.242 6.952-.711 9.876 1.384 1.6 3.335 2.419 5.296 2.419 1.624 0 3.255-.562 4.58-1.708 6.307-5.46 13.217-10.221 20.583-14.186 14.362 7.72 26.702 18.436 36.397 31.145h-36.504c-3.867 0-7.001 3.135-7.001 7.001s3.135 7.001 7.001 7.001h45.657c3.085 5.547 5.722 11.348 7.866 17.348h-39.577c-3.867 0-7.001 3.135-7.001 7.001s3.135 7.001 7.001 7.001h43.605c1.246 5.669 2.06 11.457 2.425 17.32h-41.069c-3.867 0-7.001 3.135-7.001 7.001s3.135 7.001 7.001 7.001h41.069c-.366 5.872-1.182 11.671-2.432 17.348h-43.343c-3.867 0-7.001 3.135-7.001 7.001s3.135 7.001 7.001 7.001h39.312c-2.142 5.99-4.776 11.781-7.856 17.32h-43.333c-3.867 0-7.001 3.135-7.001 7.001s3.135 7.001 7.001 7.001h34.18c-9.696 12.711-22.037 23.427-36.4 31.147-5.74-3.074-11.199-6.635-16.266-10.625-3.039-2.393-7.44-1.869-9.833 1.168-2.393 3.038-1.87 7.44 1.168 9.833 6.875 5.414 14.38 10.132 22.309 14.023.267.131.542.245.823.34 13.047 4.454 25.175 10.463 36.195 17.773.475.432.999.793 1.559 1.073 38.27 26.068 62.786 67.985 65.175 114.943.19 3.741 3.283 6.646 6.987 6.646.12 0 .241-.003.361-.009 3.862-.197 6.833-3.486 6.637-7.348-1.681-33.035-13.439-64.412-34.003-90.733zm-65.041-50.383c35.661-23.433 58.035-64.157 58.035-107.519 0-23.319-6.483-45.869-18.007-65.387-.246-.585-.574-1.127-.962-1.619-9.819-16.094-23.113-30.031-39.065-40.513 7.959-3.483 15.594-7.554 22.861-12.168 38.601 28.28 61.508 72.68 61.508 119.687 0 47.034-22.906 91.435-61.506 119.689-7.268-4.615-14.904-8.686-22.864-12.17zm-109.812-284.143c10.782 18.63 25.455 35.251 42.753 48.51-4.229 3.289-8.313 6.784-12.204 10.459-2.811 2.655-2.938 7.087-.283 9.898 1.377 1.458 3.232 2.194 5.092 2.194 1.725 0 3.453-.633 4.806-1.911 5.883-5.557 12.239-10.673 18.894-15.208 11.54-7.866 24.125-14.154 37.409-18.69.283-.097.56-.211.828-.344 40.804-20.075 68.071-61.002 71.161-106.809.26-3.858-2.657-7.197-6.515-7.457-3.865-.253-7.197 2.657-7.457 6.515-.589 8.728-2.167 17.254-4.63 25.444h-112.208c-2.463-8.19-4.042-16.716-4.631-25.444-.26-3.857-3.596-6.767-7.457-6.515-3.858.26-6.775 3.599-6.515 7.457 2.757 40.87 24.771 77.841 58.463 99.597-7.885 3.522-15.486 7.632-22.732 12.305-37.255-26.83-59.841-67.688-62.146-112.732-.198-3.862-3.493-6.84-7.35-6.634-3.862.197-6.832 3.488-6.635 7.35 1.309 25.562 8.494 49.791 21.357 72.015zm50.305-19.448c-2.789-4.464-5.276-9.124-7.439-13.947h101.768c-2.163 4.823-4.651 9.482-7.44 13.947zm10.295 14.003h66.3c-9.197 10.707-20.392 19.729-33.151 26.433-12.758-6.704-23.953-15.726-33.149-26.433zm-74.826 291.403c7.393 0 14.844-.783 22.244-2.367 27.519-5.874 51.101-22.117 66.401-45.737 15.298-23.616 20.487-51.779 14.612-79.305-5.889-27.522-22.141-51.107-45.761-66.409-23.624-15.305-51.791-20.491-79.309-14.602-27.521 5.889-51.101 22.136-66.395 45.748-15.295 23.614-20.476 51.775-14.588 79.291 3.982 18.654 12.732 35.496 25.308 49.181l-36.016 55.592c-7.947 12.267-4.44 28.727 7.837 36.706 4.326 2.789 9.266 4.229 14.315 4.229 1.872 0 3.759-.198 5.635-.599 6.953-1.485 12.889-5.571 16.705-11.491l36.021-55.6c10.636 3.552 21.749 5.363 32.991 5.363zm-80.772 42.636c-3.728 5.784-11.492 7.441-17.286 3.705-5.791-3.763-7.448-11.54-3.693-17.336l34.593-53.395c3.196 2.648 6.563 5.129 10.1 7.42 3.536 2.291 7.179 4.343 10.901 6.177zm47.298-63.088c-5.521-2.204-10.869-4.964-15.971-8.269-5.051-3.273-9.71-6.987-13.944-11.077-.164-.18-.338-.352-.523-.517-12.648-12.417-21.405-28.258-25.19-45.993-5.106-23.861-.614-48.278 12.647-68.752 13.261-20.473 33.707-34.561 57.571-39.667 23.86-5.104 48.282-.61 68.766 12.661 20.482 13.269 34.575 33.72 39.681 57.583 5.094 23.866.594 48.288-12.671 68.766-13.266 20.48-33.712 34.563-57.575 39.657-17.803 3.81-35.914 2.268-52.471-4.269-.106-.045-.213-.084-.32-.123zm-13.715-88.882c0 27.24 7.68 53.89 21.96 77.02-5.79-2.02-11.36-4.76-16.6-8.16-1.93-1.25-3.8-2.58-5.6-4-9.01-20.34-13.77-42.41-13.77-64.86 0-18.26 3.05-36.09 8.99-52.98 6.24-5.76 13.38-10.44 21.18-13.86-10.63 20.62-16.16 43.35-16.16 66.84zm55.01 80.93c-9.4-11.67-16.72-24.91-21.6-39.05-.56-.89-.91-1.93-1-3.03-.01-.01-.01-.02-.01-.02-3.97-12.45-6.07-25.56-6.07-38.83 0-26.44 8.18-52.04 23.03-73.42 5.41.13 10.77.83 15.99 2.08-5.48 6.94-10.15 14.52-13.92 22.53h52.6c3.99 4.27 7.46 8.96 10.37 14h-68.51c-1.34 4.16-2.45 8.39-3.32 12.67h77.68c1.15 3.21 2.09 6.52 2.81 9.91.29 1.36.54 2.72.76 4.09h-83.18c-.21 2.71-.31 5.42-.31 8.14 0 1.52.03 3.03.09 4.54h84.37c-.03 4.71-.49 9.4-1.38 14h-81.55c.71 4.28 1.66 8.51 2.85 12.67h75.11c-1.83 4.84-4.16 9.53-6.99 14h-63.14c5.11 11.9 12.2 22.92 20.99 32.5-2.32.73-4.69 1.35-7.1 1.87-2.84.61-5.7 1.06-8.57 1.35zm-70.547-203.206c1.25 2.168 3.563 3.504 6.065 3.504h30.302c2.499 0 4.808-1.332 6.06-3.494l15.171-26.259c1.248-2.165 1.248-4.831 0-6.995l-15.171-26.259c-1.252-2.162-3.561-3.494-6.06-3.494h-30.302c-2.503 0-4.815 1.336-6.065 3.504l-15.159 26.239c-1.256 2.169-1.256 4.845 0 7.015zm10.11-48.993h22.22l11.12 19.248-11.12 19.247h-22.22l-11.12-19.247zm56.099 340.776 10.756-18.646c1.24-2.16 1.24-4.816 0-6.976l-10.752-18.666c-1.251-2.166-3.562-3.5-6.063-3.5h-21.515c-2.501 0-4.813 1.334-6.063 3.5l-10.772 18.651c-1.251 2.167-1.251 4.837 0 7.003l10.776 18.632c1.252 2.162 3.561 3.492 6.059 3.492h21.515c2.498.002 4.806-1.329 6.059-3.49zm-23.538-10.511-6.722-11.623 6.729-11.65h13.431l6.71 11.65-6.705 11.623z"/></g></svg>