<svg id="Capa_1" enable-background="new 0 0 511.996 511.996" height="512" viewBox="0 0 511.996 511.996" width="512" xmlns="http://www.w3.org/2000/svg"><g><path d="m46.05 242.127v-105.972c0-2.501 1.334-4.812 3.5-6.062l93.559-54.017c3.556-2.053 5.075-6.585 3.129-10.201-2.014-3.742-6.704-5.055-10.357-2.946l-93.993 54.267c-2.166 1.25-4.834 1.25-7 0l-23.651-13.655c-3.652-2.108-8.341-.798-10.355 2.943-1.948 3.618-.429 8.152 3.13 10.206l23.538 13.59c2.166 1.25 3.5 3.561 3.5 6.062v106.1c0 4.219 3.483 7.624 7.731 7.497 4.104-.124 7.269-3.705 7.269-7.812z" fill="#d2e4f9"/><path d="m364.703 61.694c4.142 0 7.5-3.357 7.5-7.5v-46.093c0-4.143-3.358-7.5-7.5-7.5s-7.5 3.357-7.5 7.5v46.094c0 4.142 3.358 7.499 7.5 7.499z" fill="#d2e4f9"/><path d="m147.267 61.694c4.142 0 7.5-3.357 7.5-7.5v-46.694c0-4.143-3.358-7.5-7.5-7.5s-7.5 3.357-7.5 7.5v46.694c0 4.143 3.358 7.5 7.5 7.5z" fill="#d2e4f9"/><path d="m511.411 107.158c-1.79-4.251-6.814-5.845-10.678-3.617l-23.651 13.655c-2.166 1.25-4.834 1.25-7 0l-93.992-54.267c-3.654-2.109-8.342-.797-10.357 2.945-1.947 3.617-.428 8.149 3.129 10.202l93.559 54.017c2.166 1.25 3.5 3.561 3.5 6.062v112.526c0 .861.146 1.688.413 2.458-1.806-.437-3.776-.208-5.512.794l-92.708 53.525c-2.166 1.25-4.834 1.25-7 0l-96.918-55.956c-1.194-.689-2.499-1.013-3.785-1.006 1.864-1.364 3.075-3.568 3.075-6.056v-106.285c0-2.501 1.334-4.812 3.5-6.062l93.558-54.016c3.557-2.053 5.076-6.585 3.13-10.201-2.013-3.742-6.704-5.055-10.357-2.947l-93.831 54.174c-2.166 1.25-4.834 1.25-7 0l-93.558-54.016c-3.557-2.053-8.24-1.104-10.4 2.389-2.234 3.614-1.027 8.334 2.627 10.443l93.831 54.174c2.166 1.25 3.5 3.561 3.5 6.062v106.358c0 4.144 3.391 7.487 7.534 7.428-.819.598-1.53 1.372-2.07 2.307-.367.635-.629 1.301-.794 1.979-2.201-3.172-6.504-4.178-9.908-2.214l-92.48 53.393c-2.166 1.25-4.834 1.25-7 0l-92.48-53.393c-3.587-2.071-8.174-.843-10.245 2.745-2.071 3.587-.842 8.174 2.745 10.245l92.48 53.393c2.166 1.25 3.5 3.561 3.5 6.062v109.032c0 2.501-1.334 4.812-3.5 6.062l-33.608 19.404c-3.363 1.942-4.908 6.122-3.319 9.665 1.277 2.846 4.027 4.455 6.862 4.455 1.272 0 2.562-.324 3.743-1.006l33.939-19.595c2.166-1.25 4.834-1.25 7 0l101.351 58.515c1.16.67 2.455 1.005 3.75 1.005s2.59-.335 3.75-1.005l101.468-58.583c2.166-1.25 4.834-1.25 7 0l34.057 19.663c1.181.682 2.471 1.006 3.743 1.006 2.835 0 5.584-1.608 6.862-4.455 1.59-3.543.044-7.723-3.319-9.665l-33.843-19.539c-2.166-1.25-3.5-3.561-3.5-6.062v-108.896c0-2.501 1.334-4.812 3.5-6.062l92.618-53.473c3.168-1.829 4.496-5.62 3.337-8.952.811.195 1.672.26 2.562.167 3.862-.403 6.701-3.84 6.701-7.722v-112.075c0-2.501 1.334-4.812 3.5-6.062l23.595-13.622c3.303-1.909 4.874-5.984 3.394-9.5zm-255.426 388.678-101.218-58.438v-112.939c0-2.501 1.334-4.812 3.5-6.062l92.48-53.393c1.848-1.067 3.071-2.802 3.538-4.724.611.88 1.42 1.643 2.409 2.214l97.008 56.008c2.166 1.25 3.5 3.561 3.5 6.062v112.835z" fill="#d2e4f9"/><g><path d="m185.97 190.051c17.354 30.211-4.029 69.829-40.748 68.337-33.783-1.373-53.666-38.726-36.826-68.044l32.801-57.103c2.691-4.685 9.449-4.685 12.14 0z" fill="#fee07d"/></g><path d="m138.565 190.051 23.702-41.264-8.93-15.547c-2.691-4.685-9.449-4.685-12.14 0l-32.814 57.127c-16.75 29.16 2.83 66.354 36.417 68.002 6.297.309 12.147-.589 17.436-2.442-25.548-9-38.202-40.58-23.671-65.876z" fill="#ffcf64"/><g><path d="m403.573 190.343c16.842 29.321-3.045 66.676-36.831 68.045-36.721 1.488-58.093-38.13-40.741-68.337l32.633-56.811c2.691-4.685 9.449-4.685 12.14 0z" fill="#fee07d"/></g><path d="m356.001 190.051 23.702-41.264-8.93-15.547c-2.691-4.685-9.449-4.685-12.14 0l-32.633 56.811c-17.432 30.347 4.219 70.191 41.251 68.314 4.424-.224 8.601-1.071 12.481-2.438-25.771-9.025-38.184-40.715-23.731-65.876z" fill="#ffcf64"/><g><path d="m294.688 378.459c17.354 30.211-4.029 69.829-40.748 68.337-33.783-1.373-53.666-38.726-36.826-68.044l32.801-57.103c2.691-4.685 9.449-4.685 12.14 0z" fill="#fee07d"/></g><path d="m247.283 378.459 23.702-41.264-8.93-15.547c-2.691-4.685-9.449-4.685-12.14 0l-32.814 57.126c-16.75 29.16 2.83 66.355 36.417 68.003 6.296.309 12.147-.589 17.436-2.442-25.548-9-38.202-40.58-23.671-65.876z" fill="#ffcf64"/><g fill="#de6a66"><circle cx="411.296" cy="473.235" r="19.942"/><circle cx="255.985" cy="253.154" r="19.942"/><circle cx="473.421" cy="253.154" r="19.942"/><circle cx="38.549" cy="253.154" r="19.942"/><circle cx="147.267" cy="65.015" r="19.942"/><circle cx="364.763" cy="65.015" r="19.942"/><circle cx="100.908" cy="473.235" r="19.942"/></g></g></svg>