<svg id="Capa_1" enable-background="new 0 0 512 512" height="512" viewBox="0 0 512 512" width="512" xmlns="http://www.w3.org/2000/svg"><g><g><path d="m10.023 449.837c-4.268 0-7.726-3.459-7.726-7.726v-127.259c0-12.015 9.775-21.79 21.79-21.79h53.496c4.268 0 7.726 3.459 7.726 7.726s-3.459 7.726-7.726 7.726h-53.497c-3.494 0-6.337 2.843-6.337 6.337v127.259c0 4.269-3.459 7.727-7.726 7.727z" fill="#ad9ca9"/></g><g><path d="m252.86 295.151c-4.268 0-7.726-3.459-7.726-7.726v-181.992c0-30.62 24.91-55.531 55.53-55.531h109.636c30.62 0 55.53 24.911 55.53 55.531v52.624c0 4.267-3.459 7.726-7.726 7.726s-7.726-3.459-7.726-7.726v-52.624c0-22.099-17.979-40.078-40.077-40.078h-109.637c-22.099 0-40.077 17.979-40.077 40.078v181.992c-.001 4.268-3.46 7.726-7.727 7.726z" fill="#ad9ca9"/></g><path d="m510.406 462.098h-508.812c-.88 0-1.594-.714-1.594-1.594v-28.664c0-.88.714-1.594 1.594-1.594h508.812c.88 0 1.594.714 1.594 1.594v28.663c0 .881-.714 1.595-1.594 1.595z" fill="#6c5e69"/><path d="m510.406 430.247h-18.827c.88 0 1.594.714 1.594 1.594v28.663c0 .88-.714 1.594-1.594 1.594h18.827c.88 0 1.594-.714 1.594-1.594v-28.664c0-.88-.714-1.593-1.594-1.593z" fill="#574d56"/><path d="m197.818 430.246h-153.79v-216.9c0-7.83 6.347-14.177 14.177-14.177h125.436c7.83 0 14.177 6.347 14.177 14.177z" fill="#ff6c53"/><path d="m183.642 199.17h-21.124c7.83 0 14.177 6.347 14.177 14.177v33.656c0 5.286-3.423 10.021-8.492 11.522-15.696 4.647-29.379 12.366-39.956 22.616-13.549 13.131-21.011 29.752-21.011 46.801v102.305h90.583v-216.9c-.001-7.83-6.348-14.177-14.177-14.177z" fill="#ff534a"/><path d="m324.443 274.328c-47.722-10.008-95.444-10.008-143.166 0-33.004 6.922-55.498 28.886-55.498 53.613l120.73 37.577 133.432-37.577c0-24.727-22.494-46.692-55.498-53.613z" fill="#e6f6ff"/><path d="m324.443 274.328c-27.988-5.869-55.975-8.291-83.963-7.276 19.734.716 39.469 3.138 59.203 7.276 33.004 6.922 55.498 28.886 55.498 53.613h24.76c0-24.727-22.494-46.692-55.498-53.613z" fill="#d1edff"/><path d="m495.872 430.246h-75.534v-273.058c0-10.899 8.835-19.734 19.734-19.734h36.066c10.899 0 19.734 8.835 19.734 19.734z" fill="#baafb8"/><path d="m476.137 137.454h-20.093c10.899 0 19.734 8.835 19.734 19.734v273.059h20.093v-273.059c.001-10.899-8.835-19.734-19.734-19.734z" fill="#ad9ca9"/><g><g><path d="m504.037 187.842h-91.865c-4.268 0-7.726-3.459-7.726-7.726s3.459-7.726 7.726-7.726h91.865c4.268 0 7.726 3.459 7.726 7.726s-3.459 7.726-7.726 7.726z" fill="#ffea76"/></g><g><path d="m504.037 233.095h-91.865c-4.268 0-7.726-3.459-7.726-7.726s3.459-7.726 7.726-7.726h91.865c4.268 0 7.726 3.459 7.726 7.726s-3.459 7.726-7.726 7.726z" fill="#ffea76"/></g><g><path d="m504.037 278.347h-91.865c-4.268 0-7.726-3.459-7.726-7.726s3.459-7.726 7.726-7.726h91.865c4.268 0 7.726 3.459 7.726 7.726s-3.459 7.726-7.726 7.726z" fill="#ffea76"/></g></g><path d="m168.104 199.17h-94.361l18.299-42.663c3.064-7.144 10.091-11.776 17.864-11.776h22.035c7.774 0 14.8 4.632 17.864 11.776z" fill="#ffea76"/><path d="m149.805 156.507c-3.064-7.144-10.091-11.776-17.864-11.776h-22.035c-.185 0-.367.015-.551.02 7.552.214 14.322 4.781 17.313 11.755l18.299 42.663h23.137z" fill="#ffe54c"/><g><path d="m120.923 256.233c-4.268 0-7.726-3.459-7.726-7.726v-9.868c0-4.267 3.459-7.726 7.726-7.726 4.268 0 7.726 3.459 7.726 7.726v9.868c.001 4.267-3.458 7.726-7.726 7.726z" fill="#d1edff"/></g><path d="m125.779 327.941h254.162v102.305h-254.162z" fill="#e6f6ff"/><path d="m125.779 327.941v20.207h219.199c5.635 0 10.203 4.568 10.203 10.203v71.895h24.76v-102.305z" fill="#d1edff"/><g><path d="m259.211 382.916h-12.702c-4.268 0-7.726-3.459-7.726-7.726 0-4.268 3.459-7.726 7.726-7.726h12.702c4.268 0 7.726 3.459 7.726 7.726s-3.458 7.726-7.726 7.726z" fill="#d1edff"/></g></g></svg>