<svg height="512" viewBox="0 0 60 60" width="512" xmlns="http://www.w3.org/2000/svg"><g id="Icons"><path d="m56 40v17a2.006 2.006 0 0 1 -2 2h-48a2.006 2.006 0 0 1 -2-2v-17z" fill="#d1d4d1"/><path d="m56 11v29h-52v-29a2.006 2.006 0 0 1 2-2h48a2.006 2.006 0 0 1 2 2z" fill="#ecf0f1"/><path d="m44 59v-9a3 3 0 0 0 -3-3h-22a3 3 0 0 0 -3 3v9z" fill="#547580"/><circle cx="30" cy="53" fill="#3f5c6c" r="2"/><rect fill="#3f5c6c" height="6" rx="1" width="6" x="9" y="30"/><rect fill="#3f5c6c" height="8" rx="1" width="27" x="9" y="16"/><g fill="#547580"><path d="m20 37a1 1 0 0 1 -1-1v-2a1 1 0 0 1 2 0v2a1 1 0 0 1 -1 1z"/><path d="m24 37a1 1 0 0 1 -1-1v-2a1 1 0 0 1 2 0v2a1 1 0 0 1 -1 1z"/><path d="m28 37a1 1 0 0 1 -1-1v-2a1 1 0 0 1 2 0v2a1 1 0 0 1 -1 1z"/><path d="m32 37a1 1 0 0 1 -1-1v-2a1 1 0 0 1 2 0v2a1 1 0 0 1 -1 1z"/><path d="m36 37a1 1 0 0 1 -1-1v-2a1 1 0 0 1 2 0v2a1 1 0 0 1 -1 1z"/></g><path d="m50.079 14h-5.679a1.21 1.21 0 0 0 -1.148.827l-3.193 9.581a1.21 1.21 0 0 0 1.152 1.592h3.051l-3.134 8.773a.89.89 0 0 0 1.541.846l9.074-11.666a1.21 1.21 0 0 0 -.955-1.953h-3.526l3.843-6.149a1.21 1.21 0 0 0 -1.026-1.851z" fill="#f0c419"/><path d="m7 9v-6a2 2 0 0 1 2-2h42a2 2 0 0 1 2 2v6z" fill="#95a5a5"/></g></svg>