<svg id="Layer_1" enable-background="new 0 0 54 54" height="512" viewBox="0 0 54 54" width="512" xmlns="http://www.w3.org/2000/svg"><g><path d="m51 27c0 13.26-10.74 24-24 24s-24-10.74-24-24 10.74-24 24-24 24 10.74 24 24z" fill="#41416d"/><path d="m44.28 10.35c-4.32-4.21-10.22-6.8-16.73-6.8-13.26 0-24 10.74-24 24 0 6.51 2.59 12.41 6.8 16.73-4.53-4.36-7.35-10.49-7.35-17.28 0-13.26 10.74-24 24-24 6.79 0 12.92 2.82 17.28 7.35z" fill="#fff" opacity=".3"/><path d="m47.04 27c0 11.07-8.96 20.04-20.04 20.04-11.07 0-20.04-8.97-20.04-20.04s8.97-20.04 20.04-20.04 20.04 8.97 20.04 20.04z" fill="#d7dce2"/><path d="m46.12 27c0 10.56-8.55 19.12-19.12 19.12-10.56 0-19.12-8.56-19.12-19.12s8.56-19.12 19.12-19.12 19.12 8.56 19.12 19.12z" fill="#e8ebf0"/><path d="m29.81 34.71c0 1.55-1.26 2.81-2.81 2.81s-2.81-1.26-2.81-2.81 1.26-2.81 2.81-2.81 2.81 1.26 2.81 2.81z" fill="#434240"/><g fill="#434240"><path d="m19.46 39.57h6.12v3.48h-6.12z"/><path d="m28.42 39.57h6.12v3.48h-6.12z"/></g><g><path d="m14.22 19.49-.43-.25c.17-.28.34-.56.52-.83 2.86-4.21 7.6-6.72 12.69-6.72s9.83 2.51 12.69 6.72c.18.28.36.55.52.84l-.43.25c-.16-.27-.33-.54-.51-.81-2.77-4.07-7.35-6.5-12.27-6.5s-9.51 2.43-12.27 6.5c-.18.25-.35.52-.51.8z" fill="#bfc8d1"/></g><path d="m27 36.17c-.8 0-1.43-.67-1.38-1.46l.96-16.88h.84l.96 16.88c.05.79-.58 1.46-1.38 1.46z" fill="#ff5050"/><g><g><path d="m26.25 11.01h.5v1.82h-.5z" fill="#bfc8d1"/></g><g><path d="m27.25 11.01h.5v1.82h-.5z" fill="#bfc8d1"/></g></g><g><g><path d="m13.15 18.76h.5v3.27h-.5z" fill="#ff5050" transform="matrix(.5 -.866 .866 .5 -10.965 21.805)"/></g><g><path d="m13.75 17.72h.5v3.27h-.5z" fill="#ff5050" transform="matrix(.5 -.866 .866 .5 -9.765 21.807)"/></g></g><g><g><path d="m38.96 20.15h3.27v.5h-3.27z" fill="#bfc8d1" transform="matrix(.866 -.5 .5 .866 -4.759 23.05)"/></g><g><path d="m38.36 19.11h3.27v.5h-3.27z" fill="#bfc8d1" transform="matrix(.866 -.5 .5 .866 -4.32 22.611)"/></g></g><g><path d="m19.21 13.1h.5v1.69h-.5z" fill="#bfc8d1" transform="matrix(.866 -.5 .5 .866 -4.364 11.6)"/></g><g><path d="m33.69 13.69h1.69v.5h-1.69z" fill="#bfc8d1" transform="matrix(.5 -.866 .866 .5 5.187 36.871)"/></g><g><g><path d="m17.15 21.23v-2.1h1.56v.36h-1.13v.47h1.06v.35h-1.06v.57h1.17v.35z" fill="#ff5050"/></g></g><g><g><path d="m26.21 15.57h-.34v-1.3c-.13.12-.27.2-.44.26v-.31c.09-.03.19-.09.29-.17.11-.08.18-.18.22-.29h.28v1.81z" fill="#434240"/></g><g><path d="m26.61 15.6.44-1.86h.26l-.45 1.86z" fill="#434240"/></g><g><path d="m28.58 15.25v.32h-1.21c.01-.12.05-.24.12-.34.07-.11.19-.25.39-.43.16-.14.25-.24.29-.29.05-.07.07-.14.07-.21 0-.08-.02-.14-.06-.18s-.1-.06-.17-.06-.13.02-.17.06-.07.12-.07.22l-.34-.03c.02-.19.08-.33.19-.41s.24-.12.4-.12c.18 0 .32.05.42.14s.15.21.15.36c0 .08-.01.16-.04.23s-.07.15-.14.23c-.04.05-.12.13-.23.23s-.18.17-.21.2-.05.06-.07.1h.68z" fill="#434240"/></g></g><g><g><path d="m36 21.23v-2.1h1.44v.36h-1.02v.5h.88v.36h-.88v.89h-.42z"/></g></g><path d="m15.35 30.82c-.19 0-.35 0-.53 0v2.65c-1.19 0-2.36 0-3.55 0 0-.07 0-.14 0-.21 0-1.78 0-3.55 0-5.33 0-.59.27-.85.86-.85h1.88c.53 0 .81.28.81.81v2.41h.36c.41.01.7.3.7.71.01.51 0 1.02 0 1.54 0 .32.28.52.53.36.08-.05.17-.18.18-.27.01-.86.01-1.72.01-2.6-.29.1-.57.11-.8-.07-.15-.12-.3-.28-.37-.46-.18-.42.01-.83.53-1.15-.14-.12-.27-.24-.4-.35s-.24-.24-.36-.35c.14-.13.26-.25.37-.36.44.43.9.87 1.34 1.32.17.17.24.38.24.62v3.34c0 .5-.37.89-.85.91s-.89-.34-.91-.85c-.02-.52-.01-1.05-.01-1.57-.03-.08-.03-.16-.03-.25zm-3.38-1.26h2.13c0-.59 0-1.18 0-1.75-.72 0-1.42 0-2.13 0zm4.62-.34c0-.2-.16-.36-.36-.36-.19 0-.36.17-.36.36.01.18.17.35.35.35.21.01.37-.15.37-.35z" fill="#434240"/><path d="m9.72 43.65c4.32 4.21 10.22 6.8 16.73 6.8 13.26 0 24-10.74 24-24 0-6.51-2.59-12.41-6.8-16.73 4.53 4.36 7.35 10.49 7.35 17.28 0 13.26-10.74 24-24 24-6.79 0-12.92-2.82-17.28-7.35z" opacity=".3"/><g fill="#ff5050"><path d="m33.48 31.68v-2.84h1.95v.48h-1.37v.67h1.19v.48h-1.19v1.21z"/><path d="m35.9 28.83h.57v1.54c0 .24.01.4.02.47.02.12.08.21.18.28.09.07.22.11.38.11s.29-.03.37-.1.13-.15.15-.25.03-.26.03-.48v-1.57h.57v1.49c0 .34-.02.58-.05.72s-.09.26-.17.36-.19.17-.33.23-.32.09-.55.09c-.27 0-.48-.03-.62-.09s-.25-.14-.33-.24-.14-.21-.16-.32c-.04-.16-.06-.4-.06-.72z"/><path d="m38.77 31.68v-2.84h2.11v.48h-1.53v.63h1.43v.48h-1.43v.77h1.59v.48z"/><path d="m41.43 31.68v-2.82h.57v2.34h1.43v.48z"/></g></g></svg>