<svg id="Capa_1" enable-background="new 0 0 511.996 511.996" height="512" viewBox="0 0 511.996 511.996" width="512" xmlns="http://www.w3.org/2000/svg"><g><g><path d="m341.773 282.181c3.66 1.863 5.618 5.058 7.591 1.456l10.074-18.58c.526-.961 1.535-1.559 2.631-1.559h31.635c2.151 0 3.603 2.197 2.76 4.176l-26.727 62.756c-1.612 3.785-.092 8.326 3.648 10.04 3.862 1.77 8.384-.009 10.031-3.877 9.922-23.298 70.948-166.585 92.29-216.696 1.28-3.005 5.759-2.087 5.759 1.179v145.386c0 2.168.92 4.121 2.391 5.49-1.471 1.369-2.391 3.322-2.391 5.49v103.048c0 4.122 3.424 7.233 7.546 7.256 4.762.027 8.555 4.219 7.915 9.109-.472 3.604-3.442 6.505-7.055 6.902-4.884.538-9.025-3.335-8.936-8.133.046-2.505-1.075-4.931-3.253-6.168-5.819-3.304-11.748.815-11.748 6.319 0 13.566 11.79 24.43 25.663 22.884 10.686-1.191 19.24-9.876 20.287-20.576 1.081-11.054-5.707-20.732-15.418-24.085v-96.558c0-2.168-.92-4.121-2.391-5.49 1.471-1.369 2.391-3.322 2.391-5.49-.025-203.552.051-196.604-.031-197.517-.371-4.133-3.754-6.82-7.469-6.82h-31.062c-2.74 0-5.262 1.494-6.579 3.898l-112.732 205.872c-2.026 3.7-.607 8.359 3.18 10.288zm29.164-38.125 14.014-25.593c.526-.961 1.535-1.559 2.631-1.559h25.965c2.151 0 3.603 2.197 2.76 4.176l-10.9 25.593c-.471 1.106-1.558 1.824-2.76 1.824h-29.08c-2.278 0-3.725-2.441-2.63-4.441zm42.16-73.745h20.295c2.151 0 3.603 2.197 2.76 4.176l-10.9 25.593c-.471 1.106-1.558 1.824-2.76 1.824h-23.41c-2.279 0-3.726-2.442-2.631-4.441l14.014-25.593c.527-.962 1.536-1.559 2.632-1.559zm25.514-46.594h14.626c2.151 0 3.603 2.197 2.76 4.176l-10.9 25.594c-.471 1.106-1.558 1.824-2.76 1.824h-17.74c-2.279 0-3.726-2.442-2.631-4.441l14.015-25.594c.525-.961 1.533-1.559 2.63-1.559zm25.513-46.593h8.956c2.151 0 3.603 2.197 2.76 4.176l-10.9 25.593c-.471 1.106-1.558 1.824-2.76 1.824h-12.07c-2.279 0-3.726-2.442-2.631-4.441l14.014-25.593c.526-.962 1.535-1.559 2.631-1.559z" fill="#d2e4f9"/><path d="m220.478 239.137c4.105.562 7.883-2.318 8.44-6.423l7.162-52.759c.206-1.518 1.973-2.249 3.193-1.323 109.073 82.817 69.29 52.499 78.314 59.427 5.107 3.211 11.997-.769 11.458-6.993-.005-.053-.01-.106-.015-.158-.001-.007-.001-.015-.002-.022-.008-.071-.017-.141-.026-.212-5.178-38.143-20.326-149.732-26.201-193.006-.505-4.242-3.334-5.26-25.319-34.734-3.007-3.921-8.909-3.903-11.902 0-24.377 32.374-24.857 31.091-25.312 34.679-3.336 24.572-22.969 169.198-26.211 193.083-.56 4.105 2.316 7.884 6.421 8.441zm27.092-130.951h30.41c1.86 0 2.713 2.317 1.297 3.523l-34.385 29.283c-1.397 1.19-3.525.027-3.279-1.792l3.975-29.283c.134-.991.981-1.731 1.982-1.731zm8.281-49.408 28.046 31.068c1.161 1.286.248 3.34-1.485 3.34h-32.263c-1.211 0-2.145-1.069-1.982-2.269l4.218-31.068c.229-1.687 2.326-2.335 3.466-1.071zm52.017 153.105-50.018-37.979c-1.526-1.159-.707-3.593 1.209-3.593h44.862c1.001 0 1.847.739 1.982 1.731l5.156 37.979c.24 1.765-1.773 2.939-3.191 1.862zm-52.519-60.095 40.065-34.121c1.204-1.025 3.066-.314 3.279 1.254l4.632 34.121c.163 1.2-.77 2.269-1.982 2.269h-44.697c-1.86 0-2.713-2.317-1.297-3.523zm33.403-78.949-21.157-23.437c-1.161-1.286-.248-3.34 1.485-3.34h17.975c1.001 0 1.847.739 1.982 1.731l3.182 23.437c.264 1.949-2.149 3.069-3.467 1.609zm-15.636-50.947 4.565 5.952c1.009 1.316.071 3.217-1.587 3.217h-9.13c-1.658 0-2.596-1.902-1.587-3.217l4.565-5.952c.801-1.044 2.374-1.044 3.174 0z" fill="#685e68"/><path d="m38.562 97.986c4.142 0 7.5-3.358 7.5-7.5v-51.924c0-4.142-3.358-7.5-7.5-7.5s-7.5 3.358-7.5 7.5v51.925c0 4.142 3.358 7.499 7.5 7.499z" fill="#698ed5"/><path d="m69.625 97.986c4.142 0 7.5-3.358 7.5-7.5v-36.394c0-4.142-3.358-7.5-7.5-7.5s-7.5 3.358-7.5 7.5v36.394c0 4.143 3.357 7.5 7.5 7.5z" fill="#698ed5"/><path d="m355.388 473.433c24.849 0 24.849-14 49.698-14 10.496 0 16.559 2.497 21.934 5.382v-39.219l-77.656-.197v47.727c1.838.198 3.834.307 6.024.307z" fill="#de6a66"/><path d="m206.294 459.433c24.848 0 24.848 14 49.697 14 6.636 0 11.5-.999 15.539-2.462v-44.131h-77.656v34.075c3.4-.911 7.403-1.482 12.42-1.482z" fill="#de6a66"/><path d="m57.198 473.433c24.849 0 24.849-14 49.699-14 3.571 0 6.629.289 9.321.784v-34.015l-77.656-.266v43.763c4.648 2.126 10.215 3.734 18.636 3.734z" fill="#de6a66"/><path d="m349.364 333.653h-177.995v-101.948h170.995c3.866 0 7 3.134 7 7z" fill="#698ed5"/><path d="m318.123 333.653h-108.718v-55.125c0-3.866 3.134-7 7-7h94.718c3.866 0 7 3.134 7 7z" fill="#d2e4f9"/><path d="m23.031 107.38h155.311v226.273h-155.311z" fill="#d2e4f9"/><path d="m23.031 107.38h30v226.273h-30z" fill="#bbd3ea"/><path d="m38.562 426.84h77.656v30h-77.656z" fill="#d15d5d"/><path d="m349.364 426.84h77.656v30h-77.656z" fill="#d15d5d"/><path d="m193.874 426.84h77.656v30h-77.656z" fill="#d15d5d"/><path d="m186.874 200.643h-172.374c-3.866 0-7-3.134-7-7v-17.063c0-3.866 3.134-7 7-7h172.374c3.866 0 7 3.134 7 7v17.062c0 3.867-3.134 7.001-7 7.001z" fill="#de6a66"/><path d="m37.5 193.643v-17.062c0-3.866 3.134-7 7-7h-30c-3.866 0-7 3.134-7 7v17.062c0 3.866 3.134 7 7 7h30c-3.866 0-7-3.134-7-7z" fill="#d15d5d"/><circle cx="488.965" cy="271.528" fill="#de6a66" r="15.531"/><path d="m186.874 116.217h-172.374c-3.866 0-7-3.134-7-7v-17.062c0-3.866 3.134-7 7-7h172.374c3.866 0 7 3.134 7 7v17.062c0 3.866-3.134 7-7 7z" fill="#de6a66"/><path d="m37.5 109.217v-17.062c0-3.866 3.134-7 7-7h-30c-3.866 0-7 3.134-7 7v17.062c0 3.866 3.134 7 7 7h30c-3.866 0-7-3.134-7-7z" fill="#d15d5d"/><path d="m15.531 425.579c0 4.142 3.358 7.5 7.5 7.5h419.312.034c4.112 0 7.523-3.347 7.494-7.557v-74.499h-434.33zm20.4-32.425 15.093 20.124c1.483 1.978.072 4.8-2.4 4.8h-15.093c-1.657 0-3-1.343-3-3v-20.124c0-2.883 3.67-4.106 5.4-1.8zm310.854 16.725-25.593-34.125c-1.483-1.978-.072-4.8 2.4-4.8h51.187c2.472 0 3.883 2.822 2.4 4.8l-25.594 34.125c-1.2 1.6-3.6 1.6-4.8 0zm51.393-30.725 25.593 34.125c1.483 1.978.072 4.8-2.4 4.8h-51.187c-2.472 0-3.883-2.822-2.4-4.8l25.594-34.125c1.2-1.6 3.6-1.6 4.8 0zm-69.993 38.925h-51.187c-2.472 0-3.883-2.822-2.4-4.8l25.593-34.125c1.2-1.6 3.6-1.6 4.8 0l25.593 34.125c1.484 1.977.073 4.8-2.399 4.8zm-74.587-8.2-25.593-34.125c-1.483-1.978-.072-4.8 2.4-4.8h51.187c2.472 0 3.883 2.822 2.4 4.8l-25.593 34.125c-1.201 1.6-3.601 1.6-4.801 0zm-18.6 8.2h-51.187c-2.472 0-3.883-2.822-2.4-4.8l25.593-34.125c1.2-1.6 3.6-1.6 4.8 0l25.593 34.125c1.484 1.977.073 4.8-2.399 4.8zm-74.586-8.2-25.594-34.125c-1.483-1.978-.072-4.8 2.4-4.8h51.187c2.472 0 3.883 2.822 2.4 4.8l-25.593 34.125c-1.2 1.6-3.6 1.6-4.8 0zm-18.601 8.2h-51.187c-2.472 0-3.883-2.822-2.4-4.8l25.593-34.125c1.2-1.6 3.6-1.6 4.8 0l25.594 34.125c1.484 1.977.073 4.8-2.4 4.8zm-74.586-8.2-25.593-34.125c-1.483-1.978-.072-4.8 2.4-4.8h51.187c2.472 0 3.883 2.822 2.4 4.8l-25.593 34.125c-1.201 1.6-3.601 1.6-4.801 0zm362.247-14.001-15.093-20.124c-1.483-1.978-.072-4.8 2.4-4.8h15.093c1.657 0 3 1.343 3 3v20.124c0 2.883-3.671 4.107-5.4 1.8z" fill="#554e56"/><path d="m504.496 451.933c-26.814 0-27.897 14-49.705 14s-22.784-14-49.705-14c-26.811 0-27.892 14-49.698 14-21.807 0-22.781-14-49.7-14-26.81 0-27.892 14-49.697 14-21.712 0-22.866-14-49.697-14-26.811 0-27.893 14-49.699 14-21.805 0-22.781-14-49.698-14-26.81 0-27.893 14-49.699 14s-22.78-14-49.698-14c-4.142 0-7.5 3.358-7.5 7.5s3.358 7.5 7.5 7.5c21.806 0 22.78 14 49.698 14 26.811 0 27.893-14 49.699-14 21.712 0 22.867 14 49.698 14 26.811 0 27.893-14 49.699-14 21.805 0 22.78 14 49.697 14 26.81 0 27.892-14 49.697-14 21.901 0 22.726 14 49.7 14 26.811 0 27.892-14 49.698-14 21.808 0 22.784 14 49.705 14 26.814 0 27.897-14 49.705-14 4.142 0 7.5-3.358 7.5-7.5s-3.358-7.5-7.5-7.5z" fill="#d2e4f9"/><path d="m504.496 482.995c-26.814 0-27.897 14-49.705 14-18.909 0-20.743-9.472-38.361-12.965-4.063-.807-8.01 1.835-8.815 5.898s1.835 8.01 5.898 8.815c13.571 2.691 18.159 13.251 41.278 13.251 26.814 0 27.897-14 49.705-14 4.142 0 7.5-3.358 7.5-7.5s-3.358-7.499-7.5-7.499z" fill="#d2e4f9"/><path d="m378.67 489.779c-7.269 3.997-11.819 7.216-23.282 7.216-21.807 0-22.781-14-49.7-14-26.81 0-27.892 14-49.697 14-21.712 0-22.866-14-49.697-14-26.811 0-27.893 14-49.699 14-21.805 0-22.781-14-49.698-14-26.811 0-27.893 14-49.699 14s-22.78-14-49.698-14c-4.142 0-7.5 3.358-7.5 7.5s3.358 7.5 7.5 7.5c21.806 0 22.78 14 49.698 14 26.811 0 27.893-14 49.699-14 21.712 0 22.867 14 49.698 14 26.811 0 27.893-14 49.699-14 21.805 0 22.78 14 49.697 14 26.81 0 27.892-14 49.697-14 21.901 0 22.726 14 49.7 14 14.697 0 21.435-4.078 30.512-9.073 3.629-1.996 4.953-6.557 2.957-10.186s-6.557-4.955-10.187-2.957z" fill="#d2e4f9"/><g fill="#bbd3ea"><path d="m54.093 247.966h31.062c4.142 0 7.5-3.358 7.5-7.5s-3.358-7.5-7.5-7.5h-31.062c-4.142 0-7.5 3.358-7.5 7.5s3.358 7.5 7.5 7.5z"/><path d="m116.218 247.966h31.062c4.142 0 7.5-3.358 7.5-7.5s-3.358-7.5-7.5-7.5h-31.062c-4.142 0-7.5 3.358-7.5 7.5s3.358 7.5 7.5 7.5z"/><path d="m54.093 279.028h31.062c4.142 0 7.5-3.358 7.5-7.5s-3.358-7.5-7.5-7.5h-31.062c-4.142 0-7.5 3.358-7.5 7.5s3.358 7.5 7.5 7.5z"/><path d="m116.218 279.028h31.062c4.142 0 7.5-3.358 7.5-7.5s-3.358-7.5-7.5-7.5h-31.062c-4.142 0-7.5 3.358-7.5 7.5s3.358 7.5 7.5 7.5z"/></g><path d="m450.903 355.954h-436.403c-3.866 0-7-3.134-7-7v-17.062c0-3.866 3.134-7 7-7h436.403c3.866 0 7 3.134 7 7v17.062c0 3.866-3.134 7-7 7z" fill="#685e68"/></g></g></svg>