<svg id="Capa_1" enable-background="new 0 0 512 512" height="512" viewBox="0 0 512 512" width="512" xmlns="http://www.w3.org/2000/svg"><g><g><path d="m242.033 195.451c-.858 0-1.729-.146-2.583-.454-3.954-1.426-6.004-5.788-4.577-9.742l7.843-21.744c5.151-17.4 20.055-30.264 38.037-32.803l57.224-8.081c15.188-2.144 28.099-11.735 34.537-25.656l25.343-54.794c7.88-17.038 23.538-29.585 41.885-33.564l38.929-8.44c4.102-.884 8.16 1.718 9.052 5.827.89 4.108-1.718 8.161-5.827 9.052l-38.928 8.44c-13.708 2.972-25.406 12.347-31.293 25.076l-25.343 54.794c-8.618 18.632-25.899 31.469-46.226 34.34l-57.224 8.081c-12.145 1.715-22.199 10.434-25.616 22.214-.046.156-.095.309-.151.462l-7.923 21.962c-1.117 3.1-4.042 5.03-7.159 5.03z" fill="#6c5e69"/></g><g><path d="m198.305 216.625c-8.048 0-15.437-5.322-17.706-13.453-11.038-39.552-28.444-75.745-51.734-107.576-22.471-30.708-57.508-49.164-96.128-50.634l-9.634-.366c-10.151-.384-18.067-8.925-17.682-19.076.377-9.913 8.531-17.695 18.368-17.695.235 0 .471.004.71.013l9.636.366c49.921 1.901 95.268 25.837 124.416 65.671 25.911 35.41 45.249 75.584 57.48 119.409 2.73 9.784-2.987 19.93-12.771 22.66-1.654.461-3.319.681-4.955.681z" fill="#e6f6ff"/></g><path d="m180.599 203.172c2.269 8.131 9.658 13.453 17.706 13.453 1.636 0 3.301-.22 4.954-.681 9.784-2.73 15.502-12.876 12.771-22.66-3.26-11.681-7.041-23.094-11.301-34.235h-39.693c6.111 14.173 11.313 28.897 15.563 44.123z" fill="#d1edff"/><path d="m277.776 217.745v-27.371c0-7.406-6.003-13.409-13.409-13.409h-101.03c-7.406 0-13.409 6.003-13.409 13.409v27.371c0 11.541-6.459 22.11-16.728 27.376-29.771 15.264-48.495 45.906-48.495 79.362v160.27c0 15.048 12.199 27.247 27.247 27.247h203.801c15.048 0 27.247-12.199 27.247-27.247v-160.27c0-33.456-18.724-64.098-48.495-79.362-10.27-5.265-16.729-15.835-16.729-27.376z" fill="#ff6c53"/><path d="m294.505 245.121c-10.269-5.265-16.728-15.835-16.728-27.376v-27.37c0-7.406-6.003-13.409-13.409-13.409h-22.978c7.405 0 13.409 6.003 13.409 13.409v27.37c0 11.541 6.459 22.111 16.728 27.376 29.771 15.264 48.495 45.906 48.495 79.362v160.27c0 15.048-12.199 27.247-27.247 27.247h22.978c15.048 0 27.247-12.199 27.247-27.247v-160.27c-.001-33.456-18.725-64.098-48.495-79.362z" fill="#ff534a"/><path d="m472.269 202.734c-17.829 0-300.016 0-335.441 0-4.204 0-7.611 3.407-7.611 7.611s3.407 7.611 7.611 7.611h244.482l2.899 1.797c17.592 10.904 29.299 28.918 32.12 49.422l8.005 58.204c2.799 20.347 20.397 35.691 40.937 35.691 22.785 0 41.322-18.536 41.322-41.321v-84.693c-.001-18.924-15.398-34.322-34.324-34.322zm19.1 119.016c0 14.39-11.708 26.098-26.099 26.098-12.972 0-24.088-9.692-25.856-22.542l-8.005-58.203c-2.605-18.94-11.424-36.137-24.87-49.146h65.73c10.532 0 19.1 8.568 19.1 19.1z" fill="#6c5e69"/><g><path d="m342.999 230.23c-4.204 0-7.611-3.407-7.611-7.611v-107.504c0-4.204 3.407-7.611 7.611-7.611s7.612 3.407 7.612 7.611v107.503c0 4.205-3.408 7.612-7.612 7.612z" fill="#e6f6ff"/></g><circle cx="213.852" cy="340.9" fill="#e6f6ff" r="68.359"/><path d="m213.852 272.541c-4.095 0-8.099.381-11.996 1.071 32.03 5.673 56.363 33.63 56.363 67.288s-24.333 61.614-56.363 67.288c3.897.69 7.901 1.071 11.996 1.071 37.754 0 68.359-30.605 68.359-68.359 0-37.753-30.605-68.359-68.359-68.359z" fill="#d1edff"/><path d="m233.768 346.824c0 10.999-8.917 19.916-19.916 19.916s-19.916-8.917-19.916-19.916 8.917-31.764 19.916-31.764 19.916 20.765 19.916 31.764z" fill="#6c5e69"/><g><path d="m352.284 466.703h-276.863c-4.204 0-7.611-3.407-7.611-7.611s3.407-7.612 7.611-7.612h276.863c4.204 0 7.612 3.407 7.612 7.612s-3.408 7.611-7.612 7.611z" fill="#e6f6ff"/></g></g></svg>