<svg id="Capa_1" enable-background="new 0 0 512 512" height="512" viewBox="0 0 512 512" width="512" xmlns="http://www.w3.org/2000/svg"><g><path d="m440.861 511.245-34.556-14.811c-2.319-.994-4.944-.994-7.263 0l-34.556 14.811c-6.083 2.607-12.85-1.855-12.85-8.473v-110.958h102.073v110.958c.002 6.618-6.765 11.08-12.848 8.473z" fill="#ffea76"/><path d="m351.638 443.984c7.401 5.908 11.694 18.475 20.804 21.433 9.039 2.935 20.215-5.139 30.232-5.139s21.193 8.074 30.232 5.139c9.111-2.958 13.403-15.525 20.805-21.433v-52.17h-102.073z" fill="#ffe54c"/><path d="m499.481 370.038h-486.962c-6.914 0-12.519-5.605-12.519-12.519v-290.35c0-6.914 5.605-12.519 12.519-12.519h486.962c6.914 0 12.519 5.605 12.519 12.519v290.351c0 6.913-5.605 12.518-12.519 12.518z" fill="#e6f6ff"/><path d="m499.481 54.65h-19.876c6.914 0 12.519 5.605 12.519 12.519v290.351c0 6.913-5.605 12.519-12.519 12.519h19.876c6.914 0 12.519-5.605 12.519-12.519v-290.352c0-6.913-5.605-12.518-12.519-12.518z" fill="#d1edff"/><g><circle cx="256" cy="69.39" fill="#ffea76" r="69.39"/><path d="m256 0c-4.157 0-8.221.386-12.177 1.087 32.513 5.759 57.213 34.137 57.213 68.304 0 34.166-24.7 62.544-57.213 68.303 3.956.701 8.02 1.087 12.177 1.087 38.323 0 69.39-31.067 69.39-69.39.001-38.324-31.067-69.391-69.39-69.391z" fill="#ffe54c"/><path d="m276.216 75.404c0 11.165-9.051 20.216-20.216 20.216s-20.216-9.051-20.216-20.216 9.051-32.243 20.216-32.243 20.216 21.078 20.216 32.243z" fill="#6c5e69"/></g><path d="m484.079 372.371c0 8.337-9.36 15.094-11.803 22.616-2.532 7.797.982 18.747-3.741 25.237-4.77 6.555-16.303 6.574-22.857 11.344-6.49 4.723-10.046 15.711-17.842 18.243-7.523 2.443-16.824-4.277-25.161-4.277s-17.639 6.72-25.162 4.277c-7.797-2.532-11.353-13.52-17.842-18.243-6.555-4.77-18.087-4.79-22.857-11.344-4.723-6.49-1.209-17.44-3.741-25.237-2.443-7.523-11.803-14.279-11.803-22.616s9.36-15.094 11.803-22.616c2.532-7.797-.982-18.747 3.741-25.237 4.77-6.555 16.303-6.574 22.857-11.344 6.49-4.723 10.046-15.711 17.842-18.243 7.523-2.443 16.824 4.277 25.161 4.277s17.639-6.72 25.162-4.277c7.797 2.532 11.353 13.52 17.842 18.243 6.555 4.77 18.087 4.79 22.857 11.344 4.723 6.49 1.209 17.44 3.741 25.237 2.443 7.523 11.803 14.279 11.803 22.616z" fill="#ff6c53"/><g><path d="m484.079 372.371c0-8.337-9.36-15.093-11.803-22.616-2.531-7.796.982-18.747-3.74-25.236-4.77-6.555-16.303-6.574-22.857-11.344-6.49-4.723-10.046-15.712-17.842-18.243-4.949-1.607-10.667.747-16.374 2.549 5.03 4.285 8.337 11.951 13.481 15.694 6.555 4.77 18.087 4.789 22.857 11.344 4.723 6.489 1.209 17.44 3.74 25.236 2.443 7.523 11.803 14.279 11.803 22.616 0 8.338-9.36 15.094-11.803 22.617-2.532 7.797.982 18.747-3.741 25.237-4.77 6.555-16.303 6.574-22.857 11.344-5.143 3.743-8.451 11.408-13.48 15.693 5.707 1.802 11.425 4.156 16.374 2.55 7.797-2.532 11.352-13.52 17.842-18.243 6.555-4.77 18.087-4.789 22.857-11.344 4.723-6.49 1.209-17.44 3.741-25.237 2.442-7.523 11.802-14.279 11.802-22.617z" fill="#ff534a"/></g><circle cx="402.674" cy="372.371" fill="#ffea76" r="43.897"/><path d="m402.674 328.474c-3.644 0-7.181.452-10.566 1.289 19.138 4.731 33.33 22.009 33.33 42.608s-14.192 37.877-33.33 42.608c3.385.837 6.923 1.289 10.566 1.289 24.243 0 43.897-19.653 43.897-43.897s-19.653-43.897-43.897-43.897z" fill="#ffe54c"/><path d="m366.439 222.646h-220.877c-4.4 0-7.966-3.567-7.966-7.966v-20.218c0-4.4 3.567-7.966 7.966-7.966h220.877c4.4 0 7.966 3.567 7.966 7.966v20.218c0 4.399-3.567 7.966-7.966 7.966z" fill="#ff6c53"/><path d="m366.439 186.496h-20.216c4.4 0 7.966 3.566 7.966 7.966v20.217c0 4.4-3.567 7.966-7.966 7.966h20.216c4.4 0 7.966-3.566 7.966-7.966v-20.217c0-4.4-3.567-7.966-7.966-7.966z" fill="#ff534a"/><g><g><path d="m143.72 124.038h-51.264c-4.268 0-7.726-3.459-7.726-7.726 0-4.268 3.459-7.726 7.726-7.726h51.264c4.268 0 7.726 3.459 7.726 7.726s-3.458 7.726-7.726 7.726z" fill="#ff6c53"/></g><g><path d="m419.544 124.038h-51.264c-4.268 0-7.726-3.459-7.726-7.726 0-4.268 3.459-7.726 7.726-7.726h51.264c4.268 0 7.726 3.459 7.726 7.726s-3.458 7.726-7.726 7.726z" fill="#ff6c53"/></g></g><g><g><path d="m143.72 153.979h-51.264c-4.268 0-7.726-3.459-7.726-7.726s3.459-7.726 7.726-7.726h51.264c4.268 0 7.726 3.459 7.726 7.726s-3.458 7.726-7.726 7.726z" fill="#ff6c53"/></g><g><path d="m419.544 153.979h-51.264c-4.268 0-7.726-3.459-7.726-7.726s3.459-7.726 7.726-7.726h51.264c4.268 0 7.726 3.459 7.726 7.726s-3.458 7.726-7.726 7.726z" fill="#ff6c53"/></g></g><g><g><path d="m284.606 275.105h-166.518c-4.268 0-7.726-3.459-7.726-7.726s3.459-7.726 7.726-7.726h166.518c4.268 0 7.726 3.459 7.726 7.726s-3.458 7.726-7.726 7.726z" fill="#574d56"/></g><g><path d="m264.003 305.954h-145.915c-4.268 0-7.726-3.459-7.726-7.726s3.459-7.726 7.726-7.726h145.915c4.268 0 7.726 3.459 7.726 7.726s-3.459 7.726-7.726 7.726z" fill="#574d56"/></g><g><path d="m243.399 336.803h-125.311c-4.268 0-7.726-3.459-7.726-7.726s3.459-7.726 7.726-7.726h125.311c4.268 0 7.726 3.459 7.726 7.726s-3.458 7.726-7.726 7.726z" fill="#574d56"/></g></g></g></svg>