<?xml version="1.0"?>
<svg x="-50%" y="0%" width="100%" height="100%" viewBox="-100 0 200 300"
    xmlns="http://www.w3.org/2000/svg" version="1.1">
	<desc>Drill bit</desc>
	<defs>
		<linearGradient id="Gradient1">
			<stop offset="5%" stop-color="rgb(46,70,112)" />
			<stop offset="95%" stop-color="white" />
		</linearGradient>
		<linearGradient id="Gradient2">
			<stop offset="5%" stop-color="rgb(92,111,144)" />
			<stop offset="95%" stop-color="white" />
		</linearGradient>
		<radialGradient id="RadialGradient">
			<stop offset="5%" stop-color="white" />
			<stop offset="95%" stop-color="rgb(92,111,144)" />
		</radialGradient>
		<linearGradient id="DarkGradient">
			<stop offset="5%" stop-color="rgb(92, 111, 144)" />
			<stop offset="95%" stop-color="rgb(46,55,72)" />
		</linearGradient>
	</defs>

	<rect x="-50" y="0" width="100" height="50"
		  fill="url(#Gradient1)" stroke="rgb(46,70,112)" />

	<polygon fill="url(#DarkGradient)" points="-90 230 -30 140 30 140 90 230" />

	<circle fill="url(#Gradient2)" cx="0" cy="220" r="60" />
	<circle fill="url(#Gradient2)" stroke="rgb(115, 131, 160)" stroke-width="1"
			cx="0" cy="220" r="40" />

	<circle fill="url(#RadialGradient)" r="6" cx="0"   cy="220" />
	<circle fill="url(#RadialGradient)" r="6" cx="-20" cy="200"/>
	<circle fill="url(#RadialGradient)" r="6" cx="20"  cy="200" />
	<circle fill="url(#RadialGradient)" r="6" cx="20"  cy="240"  />
	<circle fill="url(#RadialGradient)" r="6" cx="-20" cy="240" />

	<circle fill="url(#RadialGradient)" r="6" cx="-48" cy="235" />
	<circle fill="url(#RadialGradient)" r="6" cx="-26" cy="263" />
	<circle fill="url(#RadialGradient)" r="6" cx="12"  cy="270"  />
	<circle fill="url(#RadialGradient)" r="6" cx="42"  cy="248"  />

	<polygon fill="url(#Gradient2)"
			  points="-50 50 -90 100 -90 230 -30 140 30 140 90 230 90 100 50 50" />
	<g transform="translate(-93, 235) rotate(-56)">
		<polygon fill="url(#Gradient2)" stroke="rgb(115,131,160)" stroke-width="1"
				  points="0 0 100 0 110 10 110 30 100 40, 0, 40, -10, 30, -10, 10" />

		<circle fill="url(#RadialGradient)" r="6" cx="10"  cy="10"/>
		<circle fill="url(#RadialGradient)" r="6" cx="40"  cy="10"/>
		<circle fill="url(#RadialGradient)" r="6" cx="70"  cy="10"/>
		<circle fill="url(#RadialGradient)" r="6" cx="100" y="10"/>
		<circle fill="url(#RadialGradient)" r="6" cx="-5"  cy="20" />
		<circle fill="url(#RadialGradient)" r="6" cx="25"  cy="20" />
		<circle fill="url(#RadialGradient)" r="6" cx="55"  cy="20" />
		<circle fill="url(#RadialGradient)" r="6" cx="85"  cy="20" />
		<circle fill="url(#RadialGradient)" r="6" cx="10"  cy="30" />
		<circle fill="url(#RadialGradient)" r="6" cx="40"  cy="30" />
		<circle fill="url(#RadialGradient)" r="6" cx="70"  cy="30" />
		<circle fill="url(#RadialGradient)" r="6" cx="100" y="30" />
	</g>

	<g transform="translate(39, 154) rotate(56)">
		<polygon fill="url(#Gradient2)" stroke="rgb(115, 131, 160)" stroke-width="1"
				  points="0 0 100 0 110 10 110 30 100 40, 0, 40, -10, 30, -10, 10" />
		<circle fill="url(#RadialGradient)" r="6" cx="10"  y="10"/>
		<circle fill="url(#RadialGradient)" r="6" cx="40"  y="10"/>
		<circle fill="url(#RadialGradient)" r="6" cx="70"  y="10"/>
		<circle fill="url(#RadialGradient)" r="6" cx="100" y="10"/>
		<circle fill="url(#RadialGradient)" r="6" cx="-5"  y="20" />
		<circle fill="url(#RadialGradient)" r="6" cx="25"  y="20" />
		<circle fill="url(#RadialGradient)" r="6" cx="55"  y="20" />
		<circle fill="url(#RadialGradient)" r="6" cx="85"  y="20" />
		<circle fill="url(#RadialGradient)" r="6" cx="10"  y="30" />
		<circle fill="url(#RadialGradient)" r="6" cx="40"  y="30" />
		<circle fill="url(#RadialGradient)" r="6" cx="70"  y="30" />
		<circle fill="url(#RadialGradient)" r="6" cx="100" y="30" />
	</g>
</svg>
