<svg xmlns="http://www.w3.org/2000/svg" width="63" height="63" viewBox="0 0 63 63">
  <g id="Layer_2" data-name="Layer 2">
    <g id="Layer_2-2" data-name="Layer 2">
      <g>
        <line x1="31.5" x2="31.5" y2="63" fill="none" stroke="param(outline)" stroke-width="param(outline-width)"/>
        <line x1="63" y1="31.5" y2="31.5" fill="none" stroke="param(outline)" stroke-width="param(outline-width)"/>
        <line x1="53.774" y1="9.2261" x2="9.2261" y2="53.7739" fill="none" stroke="param(outline)" stroke-width="param(outline-width)"/>
        <line x1="53.774" y1="53.7739" x2="9.2261" y2="9.2261" fill="none" stroke="param(outline)" stroke-width="param(outline-width)"/>
        <g>
          <path d="M31.5,50.0156A19.8219,19.8219,0,0,1,17.3736,44.458,17.6232,17.6232,0,0,1,12.5,31.4838a17.5982,17.5982,0,0,1,4.875-12.9414,19.8239,19.8239,0,0,1,14.1255-5.5586,19.823,19.823,0,0,1,14.126,5.5577A17.6215,17.6215,0,0,1,50.5,31.5146,17.5976,17.5976,0,0,1,45.6245,44.457,19.8216,19.8216,0,0,1,31.5,50.0156Z" fill="param(fill)" fill-opacity="param(fill-opacity)" stroke="param(outline)" stroke-width="param(outline-width)"/>
        </g>
      </g>
    </g>
  </g>
</svg>
