<?xml version="1.0"?>
<!-- Copyright (c) 2006 by Interactive Network Technologies, Inc. -->
<svg x="-50%" y="0%" width="100%" height="100%" viewBox="-100 0 200 200" preserveAspectRatio="none" xmlns="http://www.w3.org/2000/svg" version="1.1">
  <desc>Reamer</desc>
    <defs>
      <linearGradient id="SilverGradient" x1="0%" x2="50%" spreadMethod="reflect" gradientUnits="objectBoundingBox">
        <stop offset="5%" stop-color="rgb(160, 160, 160)" />
        <stop offset="95%" stop-color="rgb(255, 255, 255)" />
      </linearGradient>
   <radialGradient x1="0%" x2="50%" id="RadialGradient" spreadMethod="reflect" gradientUnits="objectBoundingBox">
        <stop offset="5%" stop-color="rgb(130, 176, 187)" />
        <stop offset="95%" stop-color="rgb(73,99,105)" />
      </radialGradient>
   <radialGradient x1="0%" x2="50%" id="RadialGradientRed" spreadMethod="reflect" gradientUnits="objectBoundingBox">
        <stop offset="5%" stop-color="rgb(190, 106, 97)" />
        <stop offset="95%" stop-color="rgb(105,90,85)" />
      </radialGradient>
    </defs>
  <polygon fill="url(#SilverGradient)" stroke="black" stroke-width="1" points="-100 10 -90 0 90 0 100 10" />
  <polygon fill="url(#SilverGradient)" stroke="black" stroke-width="1" points="-100 10 100 10 100 20 95 22 95 24 100 26 100 32 95 34 95 36 100 38 100 117 95 119 95 121 100 123 100 162 95 164  95 166 100 168 100 174 95 176 95 178 100 180 100 190 -100 190 -100 180 -95 178 -95 176 -100 174 -100 168 -95 166 -95 164 -100 162 -100 123 -95 121 -95 119 -100 117 -100 38 -95 36 -95 34 -100 32 -100 26 -95 24 -95 22 -100 20" />
  <polygon fill="url(#SilverGradient)" stroke="black" stroke-width="1" points="-90  200 90 200 100 190 -100 190" />

  <line stroke="black" x1="-95" y1="23" x2="95" y2="23" stroke-width="1" />
  <line stroke="black" x1="-95" y1="35" x2="95" y2="35" stroke-width="1" />
  <line stroke="black" x1="-95" y1="120" x2="95" y2="120" stroke-width="1" />
  <line stroke="black" x1="-95" y1="165" x2="95" y2="165" stroke-width="1" />
  <line stroke="black" x1="-95" y1="177" x2="95" y2="177" stroke-width="1" />

   <circle fill="url(#RadialGradient)" stroke-width="0" r="4" cx="0" cy="70" />
   <circle fill="url(#RadialGradient)" stroke-width="0" r="4" cx="0" cy="90" />

   <circle fill="url(#RadialGradientRed)" stroke-width="0" r="4" cx="0" cy="142" />

</svg>