<?xml version="1.0"?>
<!-- Copyright (c) 2006 by Interactive Network Technologies, Inc. -->
<svg x="-50%" y="0%" width="100%" height="100%" viewBox="-100 0 200 200" preserveAspectRatio="none" xmlns="http://www.w3.org/2000/svg" version="1.1">
  <desc>Reamer</desc>
    <defs>
      <linearGradient id="SilverGradient" x1="0%" x2="50%" spreadMethod="reflect" gradientUnits="objectBoundingBox">
        <stop offset="5%" stop-color="rgb(160, 160, 160)" />
        <stop offset="95%" stop-color="rgb(255, 255, 255)" />
      </linearGradient>
      <linearGradient id="BlueGradient" x1="0%" x2="50%" spreadMethod="reflect" gradientUnits="objectBoundingBox">
        <stop offset="5%" stop-color="rgb(73,99,105)" />
        <stop offset="95%" stop-color="rgb(130,176, 187)" />
      </linearGradient>
   <radialGradient x1="0%" x2="50%" id="RadialGradient" spreadMethod="reflect" gradientUnits="objectBoundingBox">
        <stop offset="5%" stop-color="rgb(130, 176, 187)" />
        <stop offset="95%" stop-color="rgb(73,99,105)" />
      </radialGradient>
    </defs>
  <polygon fill="url(#SilverGradient)" stroke="black" stroke-width="1" points="-100 10 -90 0 90 0 100 10" />
  <rect x="-100" y="10" width="200" height="180" stroke-width="1" fill="url(#SilverGradient)" stroke="black" />
  <polygon fill="url(#SilverGradient)" stroke="black" stroke-width="1" points="-90  200 90 200 100 190 -100 190" />

  <rect x="-40" y="30" width="80" height="140" fill="url(#BlueGradient)" stroke="black" stroke-width="0" />

   <ellipse fill="url(#RadialGradient)" stroke-width="0" rx="14" ry="5" cx="-26" cy="70" />
   <ellipse fill="url(#RadialGradient)" stroke-width="0" rx="14" ry="5" cx="-26" cy="90" />
   <ellipse fill="url(#RadialGradient)" stroke-width="0" rx="14" ry="5" cx="-26" cy="110" />
   <ellipse fill="url(#RadialGradient)" stroke-width="0" rx="14" ry="5" cx="-26" cy="130" />

   <ellipse fill="url(#RadialGradient)" stroke-width="0" rx="14" ry="5" cx="26" cy="70" />
   <ellipse fill="url(#RadialGradient)" stroke-width="0" rx="14" ry="5" cx="26" cy="90" />
   <ellipse fill="url(#RadialGradient)" stroke-width="0" rx="14" ry="5" cx="26" cy="110" />
   <ellipse fill="url(#RadialGradient)" stroke-width="0" rx="14" ry="5" cx="26" cy="130" />
</svg>